G04 EAGLE Gerber RS-274X export*
G75*
%MOMM*%
%FSLAX34Y34*%
%LPD*%
%INSolderpaste Top*%
%IPPOS*%
%AMOC8*
5,1,8,0,0,1.08239X$1,22.5*%
G01*
%ADD10R,0.900000X1.500000*%
%ADD11R,1.500000X0.900000*%
%ADD12R,6.000000X6.000000*%
%ADD13R,1.300000X1.500000*%
%ADD14R,1.050000X2.200000*%
%ADD15R,1.000000X1.050000*%
%ADD16R,1.600000X1.803000*%
%ADD17R,1.800000X1.600000*%
%ADD18R,3.600000X1.200000*%
%ADD19R,1.600000X1.800000*%
%ADD20R,1.600000X2.700000*%
%ADD21R,1.803000X1.600000*%
%ADD22R,1.400000X1.000000*%
%ADD23R,2.400000X2.600000*%
%ADD24R,0.800000X1.700000*%
%ADD25R,1.700000X0.800000*%


D10*
X834338Y320263D03*
X821638Y320263D03*
X808938Y320263D03*
X796238Y320263D03*
X783538Y320263D03*
X770838Y320263D03*
X758138Y320263D03*
X745438Y320263D03*
X732738Y320263D03*
X720038Y320263D03*
X707338Y320263D03*
X694638Y320263D03*
X681938Y320263D03*
X669238Y320263D03*
D11*
X654338Y287413D03*
X654338Y274713D03*
X654338Y262013D03*
X654338Y249313D03*
X654338Y236613D03*
X654338Y223913D03*
X654338Y211213D03*
X654338Y198513D03*
X654338Y185813D03*
X654338Y173113D03*
D10*
X669238Y140263D03*
X681938Y140263D03*
X694638Y140263D03*
X707338Y140263D03*
X720038Y140263D03*
X732738Y140263D03*
X745438Y140263D03*
X758138Y140263D03*
X770838Y140263D03*
X783538Y140263D03*
X796238Y140263D03*
X808938Y140263D03*
X821638Y140263D03*
X834338Y140263D03*
D12*
X757338Y230263D03*
D13*
X825525Y363538D03*
X844525Y363538D03*
D14*
X279650Y502488D03*
X252150Y502488D03*
D15*
X265900Y487238D03*
D16*
X804930Y387350D03*
X833370Y387350D03*
D17*
X779463Y391825D03*
X779463Y363825D03*
D18*
X416313Y322113D03*
X416313Y342113D03*
X266313Y322113D03*
X416313Y362113D03*
X416313Y382113D03*
X416313Y402113D03*
X416313Y422113D03*
X416313Y442113D03*
X416313Y462113D03*
X266313Y342113D03*
X266313Y362113D03*
X266313Y382113D03*
X266313Y402113D03*
X266313Y422113D03*
X266313Y442113D03*
X266313Y462113D03*
D19*
X825788Y341313D03*
X853788Y341313D03*
X344775Y296863D03*
X372775Y296863D03*
D20*
X344775Y268288D03*
X372775Y268288D03*
D16*
X617605Y101600D03*
X646045Y101600D03*
D21*
X619125Y161064D03*
X619125Y132624D03*
X619125Y211864D03*
X619125Y183424D03*
D16*
X589689Y182563D03*
X561249Y182563D03*
X589689Y133350D03*
X561249Y133350D03*
X857183Y449263D03*
X828743Y449263D03*
D21*
X320675Y138045D03*
X320675Y109605D03*
D13*
X854925Y477838D03*
X835925Y477838D03*
D22*
X538050Y481013D03*
X516050Y471513D03*
X516050Y490513D03*
X504938Y522288D03*
X526938Y531788D03*
X526938Y512788D03*
D21*
X482600Y499995D03*
X482600Y471555D03*
X550863Y536508D03*
X550863Y508068D03*
D17*
X587375Y482313D03*
X587375Y454313D03*
D23*
X635000Y519363D03*
X635000Y455363D03*
X687388Y519363D03*
X687388Y455363D03*
D24*
X702800Y101600D03*
X668800Y101600D03*
D25*
X806450Y67138D03*
X806450Y101138D03*
D22*
X614475Y382588D03*
X636475Y392088D03*
X636475Y373088D03*
X685913Y371475D03*
X707913Y380975D03*
X707913Y361975D03*
D21*
X660400Y369955D03*
X660400Y398395D03*
X730250Y393633D03*
X730250Y365193D03*
D17*
X588963Y371188D03*
X588963Y343188D03*
X566738Y371188D03*
X566738Y343188D03*
M02*
