G04 This is an RS-274x file exported by *
G04 gerbv version 2.7.0 *
G04 More information is available about gerbv at *
G04 http://gerbv.geda-project.org/ *
G04 --End of header info--*
%MOIN*%
%FSLAX36Y36*%
%IPPOS*%
%INSoldermask Top*%
G04 --Define apertures--*
%ADD10R,0.0625X0.0875*%
%ADD11R,0.0563X0.0500*%
%ADD12R,0.0434X0.0671*%
%ADD13R,0.0671X0.0434*%
%ADD14R,0.2442X0.2442*%
%ADD15R,0.0592X0.0671*%
%ADD16R,0.0493X0.0946*%
%ADD17R,0.0474X0.0493*%
%ADD18R,0.0710X0.0790*%
%ADD19R,0.0789X0.0710*%
%ADD20R,0.1497X0.0552*%
%ADD21R,0.0710X0.0789*%
%ADD22R,0.0710X0.1143*%
%ADD23R,0.0790X0.0710*%
%ADD24C,0.0800*%
%ADD25R,0.0789X0.0789*%
%ADD26C,0.0789*%
%ADD27R,0.0800X0.0800*%
%ADD28P,0.0866X8.0000X112.5000*%
%ADD29P,0.0866X8.0000X22.5000*%
%ADD30P,0.0866X8.0000X292.5000*%
%ADD31R,0.0631X0.0474*%
%ADD32R,0.1025X0.1104*%
%ADD33R,0.0840X0.0840*%
%ADD34C,0.0840*%
%ADD35R,0.0395X0.0749*%
%ADD36R,0.0749X0.0395*%
%ADD37C,0.0278*%
G04 --Start main section--*
G54D11*
G01X0953126Y1818752D03*
G54D12*
G01X3284795Y1260878D03*
G01X3234795Y1260878D03*
G01X3184795Y1260878D03*
G01X3134795Y1260878D03*
G01X3084795Y1260878D03*
G01X3034795Y1260878D03*
G01X2984795Y1260878D03*
G01X2934795Y1260878D03*
G01X2884795Y1260878D03*
G01X2834795Y1260878D03*
G01X2784795Y1260878D03*
G01X2734795Y1260878D03*
G01X2684795Y1260878D03*
G01X2634795Y1260878D03*
G54D13*
G01X2576134Y1131547D03*
G01X2576134Y1081547D03*
G01X2576134Y1031547D03*
G01X2576134Y0981547D03*
G01X2576134Y0931547D03*
G01X2576134Y0881547D03*
G01X2576134Y0831547D03*
G01X2576134Y0781547D03*
G01X2576134Y0731547D03*
G01X2576134Y0681547D03*
G54D12*
G01X2634795Y0552217D03*
G01X2684795Y0552217D03*
G01X2734795Y0552217D03*
G01X2784795Y0552217D03*
G01X2834795Y0552217D03*
G01X2884795Y0552217D03*
G01X2934795Y0552217D03*
G01X2984795Y0552217D03*
G01X3034795Y0552217D03*
G01X3084795Y0552217D03*
G01X3134795Y0552217D03*
G01X3184795Y0552217D03*
G01X3234795Y0552217D03*
G01X3284795Y0552217D03*
G54D14*
G01X2981646Y0906547D03*
G54D15*
G01X3250098Y1431252D03*
G01X3324902Y1431252D03*
G54D16*
G01X1100984Y1978299D03*
G01X0992717Y1978299D03*
G54D17*
G01X1046850Y1918260D03*
G54D18*
G01X3169016Y1525000D03*
G01X3280984Y1525000D03*
G54D19*
G01X3068752Y1542618D03*
G01X3068752Y1432382D03*
G54D20*
G01X1639028Y1268161D03*
G01X1639028Y1346902D03*
G01X1048476Y1268161D03*
G01X1639028Y1425642D03*
G01X1639028Y1504382D03*
G01X1639028Y1583122D03*
G01X1639028Y1661862D03*
G01X1639028Y1740602D03*
G01X1639028Y1819343D03*
G01X1048476Y1346902D03*
G01X1048476Y1425642D03*
G01X1048476Y1504382D03*
G01X1048476Y1583122D03*
G01X1048476Y1661862D03*
G01X1048476Y1740602D03*
G01X1048476Y1819343D03*
G54D21*
G01X3251134Y1343752D03*
G01X3361370Y1343752D03*
G01X1357382Y1168752D03*
G01X1467618Y1168752D03*
G54D22*
G01X1357382Y1056252D03*
G01X1467618Y1056252D03*
G54D18*
G01X2431516Y0400000D03*
G01X2543484Y0400000D03*
G54D23*
G01X2437500Y0634110D03*
G01X2437500Y0522142D03*
G01X2437500Y0834110D03*
G01X2437500Y0722142D03*
G54D18*
G01X2321610Y0718752D03*
G01X2209642Y0718752D03*
G01X2321610Y0525000D03*
G01X2209642Y0525000D03*
G01X3374736Y1768752D03*
G01X3262768Y1768752D03*
G54D24*
G01X1473500Y0643752D02*
G01X1401500Y0643752D01*
G01X1401500Y0543752D02*
G01X1473500Y0543752D01*
G01X1473500Y0443752D02*
G01X1401500Y0443752D01*
G54D23*
G01X1262500Y0543484D03*
G01X1262500Y0431516D03*
G54D25*
G01X1843752Y0156252D03*
G54D26*
G01X1743752Y0156252D03*
G01X1643752Y0156252D03*
G01X1543752Y0156252D03*
G54D15*
G01X3365846Y1881252D03*
G01X3291043Y1881252D03*
G54D27*
G01X0993752Y2281252D03*
G54D28*
G01X1093752Y2281252D03*
G01X1193752Y2281252D03*
G01X1293752Y2281252D03*
G01X1393752Y2281252D03*
G01X1493752Y2281252D03*
G54D27*
G01X3543752Y1862500D03*
G54D29*
G01X3543752Y1762500D03*
G01X3543752Y1662500D03*
G01X3543752Y1562500D03*
G01X3543752Y1462500D03*
G01X3543752Y1362500D03*
G54D27*
G01X3056252Y0125000D03*
G54D30*
G01X2956252Y0125000D03*
G01X2856252Y0125000D03*
G01X2756252Y0125000D03*
G01X2656252Y0125000D03*
G01X2556252Y0125000D03*
G54D31*
G01X2118307Y1893752D03*
G01X2031693Y1856350D03*
G01X2031693Y1931154D03*
G01X1987945Y2056252D03*
G01X2074559Y2093654D03*
G01X2074559Y2018850D03*
G54D23*
G01X1900000Y1968484D03*
G01X1900000Y1856516D03*
G01X2168752Y2112236D03*
G01X2168752Y2000268D03*
G54D19*
G01X2312500Y1898870D03*
G01X2312500Y1788634D03*
G54D32*
G01X2500000Y2044736D03*
G01X2500000Y1792768D03*
G01X2706252Y2044736D03*
G01X2706252Y1792768D03*
G54D33*
G01X2712500Y2250000D03*
G54D34*
G01X2512500Y2250000D03*
G01X2412500Y2250000D03*
G01X2312500Y2250000D03*
G01X2212500Y2250000D03*
G01X2612500Y2250000D03*
G01X2112500Y2250000D03*
G54D35*
G01X2766929Y0400000D03*
G01X2633071Y0400000D03*
G54D36*
G01X3175000Y0264323D03*
G01X3175000Y0398181D03*
G54D31*
G01X2419193Y1506252D03*
G01X2505807Y1543654D03*
G01X2505807Y1468850D03*
G01X2700445Y1462500D03*
G01X2787059Y1499902D03*
G01X2787059Y1425098D03*
G54D23*
G01X2600000Y1456516D03*
G01X2600000Y1568484D03*
G01X2875000Y1549736D03*
G01X2875000Y1437768D03*
G54D19*
G01X2318752Y1461370D03*
G01X2318752Y1351134D03*
G01X2231252Y1461370D03*
G01X2231252Y1351134D03*
M02*
