G04 EAGLE Gerber RS-274X export*
G75*
%MOMM*%
%FSLAX34Y34*%
%LPD*%
%INBottom Copper*%
%IPPOS*%
%AMOC8*
5,1,8,0,0,1.08239X$1,22.5*%
G01*
%ADD10C,1.828800*%
%ADD11R,1.800000X1.800000*%
%ADD12C,1.800000*%
%ADD13R,1.600200X1.168400*%
%ADD14R,1.828800X1.828800*%
%ADD15P,1.979475X8X112.500000*%
%ADD16P,1.979475X8X22.500000*%
%ADD17P,1.979475X8X292.500000*%
%ADD18R,1.930400X1.930400*%
%ADD19C,1.930400*%
%ADD20C,0.502400*%
%ADD21C,1.270000*%
%ADD22C,0.812800*%

G36*
X641569Y18660D02*
X641569Y18660D01*
X641669Y18661D01*
X641741Y18680D01*
X641815Y18688D01*
X641909Y18722D01*
X642007Y18746D01*
X642073Y18781D01*
X642143Y18806D01*
X642227Y18860D01*
X642317Y18906D01*
X642373Y18954D01*
X642436Y18995D01*
X642506Y19067D01*
X642582Y19132D01*
X642626Y19192D01*
X642678Y19245D01*
X642730Y19331D01*
X642789Y19412D01*
X642819Y19481D01*
X642857Y19544D01*
X642888Y19640D01*
X642927Y19732D01*
X642940Y19805D01*
X642963Y19876D01*
X642971Y19976D01*
X642989Y20075D01*
X642985Y20150D01*
X642991Y20224D01*
X642976Y20323D01*
X642971Y20423D01*
X642950Y20495D01*
X642939Y20568D01*
X642902Y20662D01*
X642874Y20758D01*
X642838Y20823D01*
X642811Y20892D01*
X642753Y20975D01*
X642704Y21062D01*
X642639Y21139D01*
X642612Y21178D01*
X642585Y21202D01*
X642546Y21249D01*
X637095Y26700D01*
X637095Y36800D01*
X642969Y42674D01*
X643031Y42753D01*
X643101Y42825D01*
X643139Y42889D01*
X643185Y42947D01*
X643228Y43038D01*
X643280Y43124D01*
X643303Y43195D01*
X643334Y43263D01*
X643355Y43361D01*
X643386Y43456D01*
X643392Y43531D01*
X643408Y43603D01*
X643406Y43704D01*
X643414Y43804D01*
X643403Y43877D01*
X643402Y43952D01*
X643377Y44049D01*
X643362Y44148D01*
X643335Y44217D01*
X643317Y44290D01*
X643271Y44379D01*
X643234Y44472D01*
X643191Y44533D01*
X643157Y44599D01*
X643092Y44676D01*
X643035Y44758D01*
X642980Y44808D01*
X642931Y44865D01*
X642850Y44925D01*
X642776Y44992D01*
X642711Y45028D01*
X642651Y45072D01*
X642559Y45112D01*
X642471Y45160D01*
X642399Y45181D01*
X642331Y45210D01*
X642232Y45228D01*
X642136Y45255D01*
X642035Y45263D01*
X641988Y45272D01*
X641952Y45270D01*
X641892Y45275D01*
X616123Y45275D01*
X613508Y46358D01*
X611508Y48358D01*
X610425Y50973D01*
X610425Y53802D01*
X611281Y55869D01*
X611322Y56013D01*
X611368Y56156D01*
X611370Y56180D01*
X611376Y56204D01*
X611384Y56354D01*
X611396Y56504D01*
X611392Y56528D01*
X611393Y56552D01*
X611366Y56700D01*
X611344Y56848D01*
X611335Y56871D01*
X611331Y56895D01*
X611271Y57033D01*
X611215Y57172D01*
X611201Y57192D01*
X611192Y57214D01*
X611102Y57335D01*
X611016Y57458D01*
X610998Y57475D01*
X610984Y57494D01*
X610869Y57591D01*
X610758Y57692D01*
X610736Y57704D01*
X610718Y57719D01*
X610584Y57788D01*
X610453Y57860D01*
X610429Y57867D01*
X610408Y57878D01*
X610262Y57914D01*
X610117Y57955D01*
X610088Y57957D01*
X610070Y57962D01*
X610022Y57963D01*
X609873Y57975D01*
X436965Y57975D01*
X436839Y57960D01*
X436713Y57954D01*
X436666Y57940D01*
X436618Y57935D01*
X436499Y57892D01*
X436378Y57857D01*
X436336Y57834D01*
X436290Y57817D01*
X436184Y57749D01*
X436074Y57687D01*
X436027Y57648D01*
X435997Y57628D01*
X435964Y57594D01*
X435888Y57529D01*
X427376Y49017D01*
X427360Y48997D01*
X427340Y48980D01*
X427252Y48860D01*
X427160Y48744D01*
X427148Y48721D01*
X427133Y48700D01*
X427074Y48563D01*
X427011Y48429D01*
X427005Y48404D01*
X426995Y48380D01*
X426969Y48233D01*
X426937Y48089D01*
X426938Y48062D01*
X426933Y48037D01*
X426941Y47888D01*
X426943Y47740D01*
X426950Y47715D01*
X426951Y47688D01*
X426992Y47546D01*
X427028Y47402D01*
X427040Y47379D01*
X427048Y47354D01*
X427120Y47224D01*
X427188Y47092D01*
X427205Y47072D01*
X427218Y47049D01*
X427376Y46863D01*
X427727Y46513D01*
X429099Y43199D01*
X429177Y43059D01*
X429252Y42918D01*
X429262Y42907D01*
X429269Y42895D01*
X429376Y42776D01*
X429481Y42656D01*
X429493Y42647D01*
X429503Y42636D01*
X429634Y42546D01*
X429764Y42452D01*
X429778Y42446D01*
X429789Y42438D01*
X429938Y42380D01*
X430086Y42318D01*
X430100Y42316D01*
X430114Y42310D01*
X430272Y42287D01*
X430430Y42261D01*
X430444Y42262D01*
X430458Y42260D01*
X430618Y42273D01*
X430777Y42283D01*
X430791Y42287D01*
X430806Y42289D01*
X430958Y42338D01*
X431111Y42384D01*
X431124Y42391D01*
X431137Y42396D01*
X431275Y42478D01*
X431413Y42558D01*
X431424Y42568D01*
X431436Y42575D01*
X431551Y42687D01*
X431668Y42796D01*
X431676Y42808D01*
X431686Y42818D01*
X431773Y42953D01*
X431861Y43086D01*
X431868Y43102D01*
X431874Y43111D01*
X431887Y43148D01*
X431955Y43311D01*
X432217Y44118D01*
X433042Y45736D01*
X434110Y47206D01*
X435394Y48490D01*
X436864Y49558D01*
X438482Y50383D01*
X440210Y50944D01*
X440413Y50976D01*
X440413Y40664D01*
X440416Y40638D01*
X440414Y40611D01*
X440436Y40465D01*
X440453Y40317D01*
X440462Y40293D01*
X440466Y40267D01*
X440521Y40129D01*
X440571Y39989D01*
X440585Y39967D01*
X440595Y39943D01*
X440679Y39821D01*
X440760Y39697D01*
X440772Y39684D01*
X440727Y39638D01*
X440714Y39615D01*
X440696Y39596D01*
X440624Y39466D01*
X440548Y39338D01*
X440540Y39313D01*
X440528Y39290D01*
X440487Y39148D01*
X440442Y39006D01*
X440440Y38980D01*
X440433Y38955D01*
X440413Y38711D01*
X440413Y28399D01*
X440210Y28431D01*
X438482Y28992D01*
X436864Y29817D01*
X435394Y30885D01*
X434110Y32169D01*
X433042Y33639D01*
X432217Y35257D01*
X431955Y36064D01*
X431889Y36208D01*
X431825Y36356D01*
X431816Y36367D01*
X431810Y36381D01*
X431713Y36507D01*
X431617Y36635D01*
X431606Y36645D01*
X431597Y36656D01*
X431473Y36758D01*
X431351Y36861D01*
X431338Y36867D01*
X431327Y36876D01*
X431183Y36947D01*
X431041Y37019D01*
X431027Y37023D01*
X431014Y37029D01*
X430857Y37065D01*
X430703Y37103D01*
X430688Y37104D01*
X430674Y37107D01*
X430514Y37106D01*
X430354Y37109D01*
X430340Y37105D01*
X430326Y37105D01*
X430170Y37068D01*
X430014Y37034D01*
X430001Y37028D01*
X429987Y37025D01*
X429843Y36953D01*
X429699Y36884D01*
X429688Y36875D01*
X429675Y36869D01*
X429551Y36766D01*
X429427Y36667D01*
X429418Y36656D01*
X429406Y36646D01*
X429310Y36519D01*
X429211Y36394D01*
X429203Y36378D01*
X429196Y36369D01*
X429180Y36334D01*
X429099Y36176D01*
X427727Y32862D01*
X424338Y29473D01*
X419909Y27639D01*
X415116Y27639D01*
X410687Y29473D01*
X407298Y32862D01*
X406220Y35466D01*
X406171Y35553D01*
X406131Y35646D01*
X406087Y35705D01*
X406050Y35770D01*
X405983Y35845D01*
X405923Y35925D01*
X405866Y35973D01*
X405816Y36028D01*
X405734Y36086D01*
X405657Y36150D01*
X405591Y36184D01*
X405530Y36227D01*
X405436Y36263D01*
X405347Y36309D01*
X405275Y36327D01*
X405205Y36354D01*
X405106Y36369D01*
X405009Y36393D01*
X404934Y36394D01*
X404861Y36405D01*
X404761Y36397D01*
X404660Y36398D01*
X404587Y36382D01*
X404513Y36376D01*
X404418Y36345D01*
X404320Y36324D01*
X404253Y36292D01*
X404182Y36269D01*
X404096Y36217D01*
X404005Y36174D01*
X403947Y36128D01*
X403883Y36090D01*
X403811Y36020D01*
X403733Y35957D01*
X403686Y35899D01*
X403633Y35847D01*
X403579Y35762D01*
X403517Y35683D01*
X403471Y35594D01*
X403445Y35553D01*
X403433Y35520D01*
X403405Y35466D01*
X402327Y32862D01*
X398938Y29473D01*
X394509Y27639D01*
X389716Y27639D01*
X385287Y29473D01*
X381898Y32862D01*
X380064Y37291D01*
X380064Y42084D01*
X381898Y46513D01*
X384554Y49168D01*
X384632Y49267D01*
X384717Y49361D01*
X384740Y49403D01*
X384770Y49441D01*
X384824Y49555D01*
X384885Y49666D01*
X384899Y49713D01*
X384919Y49756D01*
X384946Y49880D01*
X384980Y50001D01*
X384985Y50062D01*
X384993Y50097D01*
X384992Y50145D01*
X385000Y50245D01*
X385000Y52215D01*
X386083Y54829D01*
X415071Y83817D01*
X417685Y84900D01*
X439526Y84900D01*
X439626Y84912D01*
X439726Y84913D01*
X439798Y84932D01*
X439872Y84940D01*
X439967Y84974D01*
X440064Y84998D01*
X440130Y85033D01*
X440200Y85058D01*
X440285Y85112D01*
X440374Y85158D01*
X440431Y85206D01*
X440493Y85247D01*
X440563Y85319D01*
X440639Y85384D01*
X440684Y85444D01*
X440735Y85497D01*
X440787Y85583D01*
X440846Y85664D01*
X440876Y85733D01*
X440914Y85796D01*
X440945Y85892D01*
X440984Y85984D01*
X440998Y86057D01*
X441020Y86128D01*
X441028Y86228D01*
X441046Y86327D01*
X441042Y86402D01*
X441048Y86476D01*
X441033Y86575D01*
X441028Y86675D01*
X441008Y86747D01*
X440997Y86820D01*
X440959Y86914D01*
X440932Y87010D01*
X440895Y87075D01*
X440868Y87144D01*
X440811Y87227D01*
X440762Y87314D01*
X440696Y87391D01*
X440669Y87430D01*
X440642Y87454D01*
X440603Y87501D01*
X397550Y130554D01*
X397451Y130632D01*
X397357Y130717D01*
X397315Y130740D01*
X397277Y130770D01*
X397163Y130824D01*
X397052Y130885D01*
X397006Y130899D01*
X396962Y130919D01*
X396838Y130946D01*
X396717Y130980D01*
X396656Y130985D01*
X396621Y130993D01*
X396573Y130992D01*
X396473Y131000D01*
X385030Y131000D01*
X384905Y130985D01*
X384779Y130979D01*
X384732Y130965D01*
X384684Y130960D01*
X384565Y130917D01*
X384444Y130882D01*
X384402Y130859D01*
X384356Y130842D01*
X384250Y130774D01*
X384140Y130712D01*
X384093Y130673D01*
X384063Y130653D01*
X384030Y130619D01*
X383953Y130554D01*
X381176Y127776D01*
X378867Y126820D01*
X378779Y126771D01*
X378687Y126731D01*
X378628Y126687D01*
X378563Y126650D01*
X378488Y126583D01*
X378408Y126523D01*
X378360Y126466D01*
X378304Y126416D01*
X378247Y126334D01*
X378182Y126257D01*
X378149Y126191D01*
X378106Y126130D01*
X378069Y126036D01*
X378024Y125947D01*
X378006Y125875D01*
X377978Y125805D01*
X377964Y125706D01*
X377940Y125609D01*
X377938Y125534D01*
X377928Y125461D01*
X377936Y125361D01*
X377934Y125260D01*
X377950Y125187D01*
X377956Y125113D01*
X377987Y125018D01*
X378009Y124920D01*
X378041Y124853D01*
X378064Y124782D01*
X378115Y124696D01*
X378158Y124605D01*
X378205Y124547D01*
X378243Y124483D01*
X378313Y124411D01*
X378376Y124333D01*
X378434Y124286D01*
X378486Y124233D01*
X378571Y124179D01*
X378649Y124117D01*
X378739Y124071D01*
X378779Y124045D01*
X378813Y124033D01*
X378867Y124005D01*
X381176Y123049D01*
X384605Y119619D01*
X386462Y115138D01*
X386462Y110287D01*
X384605Y105806D01*
X381176Y102376D01*
X376694Y100520D01*
X353556Y100520D01*
X349074Y102376D01*
X345645Y105806D01*
X343788Y110287D01*
X343788Y115138D01*
X345645Y119619D01*
X349074Y123049D01*
X351383Y124005D01*
X351471Y124054D01*
X351563Y124094D01*
X351622Y124138D01*
X351687Y124175D01*
X351762Y124242D01*
X351842Y124302D01*
X351890Y124359D01*
X351946Y124409D01*
X352003Y124491D01*
X352068Y124568D01*
X352101Y124634D01*
X352144Y124695D01*
X352181Y124789D01*
X352226Y124878D01*
X352244Y124950D01*
X352272Y125020D01*
X352286Y125119D01*
X352310Y125216D01*
X352312Y125291D01*
X352322Y125364D01*
X352314Y125464D01*
X352316Y125565D01*
X352300Y125638D01*
X352294Y125712D01*
X352263Y125807D01*
X352241Y125905D01*
X352209Y125972D01*
X352186Y126043D01*
X352135Y126129D01*
X352091Y126220D01*
X352045Y126278D01*
X352007Y126342D01*
X351937Y126414D01*
X351874Y126492D01*
X351816Y126539D01*
X351764Y126592D01*
X351679Y126646D01*
X351601Y126708D01*
X351511Y126754D01*
X351471Y126780D01*
X351437Y126792D01*
X351383Y126820D01*
X349074Y127776D01*
X345645Y131206D01*
X343788Y135687D01*
X343788Y140538D01*
X345645Y145019D01*
X349074Y148449D01*
X352054Y149683D01*
X352194Y149761D01*
X352335Y149836D01*
X352346Y149845D01*
X352358Y149852D01*
X352476Y149960D01*
X352597Y150065D01*
X352606Y150077D01*
X352616Y150086D01*
X352707Y150218D01*
X352801Y150348D01*
X352806Y150361D01*
X352815Y150373D01*
X352873Y150522D01*
X352935Y150670D01*
X352937Y150684D01*
X352942Y150697D01*
X352966Y150855D01*
X352992Y151013D01*
X352991Y151028D01*
X352993Y151042D01*
X352980Y151202D01*
X352970Y151361D01*
X352965Y151375D01*
X352964Y151389D01*
X352915Y151542D01*
X352869Y151695D01*
X352862Y151707D01*
X352857Y151721D01*
X352774Y151859D01*
X352695Y151997D01*
X352685Y152007D01*
X352677Y152020D01*
X352566Y152135D01*
X352457Y152251D01*
X352445Y152259D01*
X352435Y152270D01*
X352300Y152356D01*
X352167Y152445D01*
X352151Y152452D01*
X352141Y152458D01*
X352105Y152471D01*
X351941Y152539D01*
X351496Y152684D01*
X349857Y153519D01*
X348369Y154600D01*
X347068Y155900D01*
X345987Y157388D01*
X345152Y159027D01*
X344584Y160776D01*
X344553Y160973D01*
X364109Y160973D01*
X364135Y160976D01*
X364161Y160974D01*
X364308Y160996D01*
X364455Y161013D01*
X364480Y161022D01*
X364506Y161026D01*
X364643Y161081D01*
X364783Y161131D01*
X364805Y161145D01*
X364830Y161155D01*
X364951Y161239D01*
X365076Y161320D01*
X365094Y161339D01*
X365116Y161353D01*
X365130Y161369D01*
X365215Y161287D01*
X365238Y161274D01*
X365257Y161256D01*
X365387Y161184D01*
X365514Y161108D01*
X365539Y161100D01*
X365562Y161088D01*
X365705Y161047D01*
X365846Y161002D01*
X365872Y161000D01*
X365897Y160993D01*
X366141Y160973D01*
X385697Y160973D01*
X385666Y160776D01*
X385098Y159027D01*
X384263Y157388D01*
X383182Y155900D01*
X381881Y154600D01*
X380393Y153519D01*
X378754Y152684D01*
X378309Y152539D01*
X378164Y152473D01*
X378017Y152409D01*
X378005Y152400D01*
X377992Y152394D01*
X377865Y152296D01*
X377737Y152201D01*
X377727Y152190D01*
X377716Y152181D01*
X377615Y152057D01*
X377512Y151935D01*
X377505Y151922D01*
X377496Y151911D01*
X377426Y151767D01*
X377353Y151625D01*
X377349Y151611D01*
X377343Y151598D01*
X377307Y151441D01*
X377269Y151286D01*
X377269Y151272D01*
X377265Y151258D01*
X377266Y151098D01*
X377264Y150938D01*
X377267Y150924D01*
X377267Y150909D01*
X377304Y150754D01*
X377338Y150597D01*
X377344Y150584D01*
X377348Y150570D01*
X377419Y150428D01*
X377488Y150283D01*
X377497Y150271D01*
X377503Y150259D01*
X377605Y150136D01*
X377705Y150010D01*
X377717Y150001D01*
X377726Y149990D01*
X377853Y149894D01*
X377979Y149794D01*
X377994Y149787D01*
X378003Y149780D01*
X378038Y149764D01*
X378196Y149683D01*
X381176Y148449D01*
X383953Y145671D01*
X384052Y145593D01*
X384146Y145508D01*
X384188Y145485D01*
X384226Y145455D01*
X384340Y145401D01*
X384451Y145340D01*
X384498Y145326D01*
X384541Y145306D01*
X384665Y145279D01*
X384787Y145245D01*
X384847Y145240D01*
X384882Y145232D01*
X384930Y145233D01*
X385030Y145225D01*
X401465Y145225D01*
X404079Y144142D01*
X450175Y98046D01*
X450274Y97968D01*
X450368Y97883D01*
X450410Y97860D01*
X450448Y97830D01*
X450562Y97776D01*
X450673Y97715D01*
X450719Y97701D01*
X450763Y97681D01*
X450887Y97654D01*
X451008Y97620D01*
X451069Y97615D01*
X451104Y97607D01*
X451152Y97608D01*
X451252Y97600D01*
X677652Y97600D01*
X677742Y97611D01*
X677833Y97611D01*
X677914Y97630D01*
X677998Y97640D01*
X678083Y97671D01*
X678172Y97692D01*
X678247Y97729D01*
X678326Y97758D01*
X678402Y97807D01*
X678484Y97847D01*
X678548Y97901D01*
X678619Y97947D01*
X678682Y98012D01*
X678752Y98070D01*
X678803Y98137D01*
X678861Y98197D01*
X678908Y98275D01*
X678963Y98348D01*
X678997Y98424D01*
X679040Y98496D01*
X679068Y98583D01*
X679105Y98666D01*
X679120Y98748D01*
X679146Y98828D01*
X679153Y98919D01*
X679171Y99008D01*
X679167Y99092D01*
X679174Y99176D01*
X679161Y99266D01*
X679157Y99356D01*
X679130Y99471D01*
X679122Y99520D01*
X679111Y99548D01*
X679100Y99594D01*
X678449Y101600D01*
X679616Y105193D01*
X679634Y105282D01*
X679662Y105369D01*
X679669Y105452D01*
X679685Y105535D01*
X679683Y105626D01*
X679690Y105716D01*
X679677Y105799D01*
X679675Y105883D01*
X679652Y105971D01*
X679638Y106061D01*
X679607Y106139D01*
X679586Y106220D01*
X679543Y106300D01*
X679509Y106385D01*
X679462Y106454D01*
X679422Y106528D01*
X679362Y106596D01*
X679311Y106671D01*
X679248Y106727D01*
X679193Y106790D01*
X679119Y106844D01*
X679052Y106904D01*
X678978Y106945D01*
X678910Y106994D01*
X678826Y107029D01*
X678747Y107073D01*
X678666Y107096D01*
X678588Y107128D01*
X678499Y107143D01*
X678411Y107168D01*
X678294Y107177D01*
X678245Y107185D01*
X678215Y107183D01*
X678168Y107187D01*
X485948Y107187D01*
X483333Y108270D01*
X481333Y110271D01*
X480250Y112885D01*
X480250Y115715D01*
X481106Y117781D01*
X481147Y117926D01*
X481193Y118069D01*
X481195Y118093D01*
X481201Y118116D01*
X481209Y118267D01*
X481221Y118416D01*
X481217Y118440D01*
X481218Y118464D01*
X481191Y118612D01*
X481169Y118761D01*
X481160Y118783D01*
X481156Y118807D01*
X481096Y118945D01*
X481040Y119085D01*
X481026Y119105D01*
X481017Y119127D01*
X480927Y119248D01*
X480841Y119371D01*
X480823Y119387D01*
X480809Y119407D01*
X480694Y119504D01*
X480583Y119604D01*
X480561Y119616D01*
X480543Y119632D01*
X480409Y119700D01*
X480278Y119773D01*
X480254Y119779D01*
X480233Y119790D01*
X480087Y119827D01*
X479942Y119868D01*
X479913Y119870D01*
X479895Y119875D01*
X479847Y119875D01*
X479698Y119887D01*
X474835Y119887D01*
X472221Y120970D01*
X468633Y124558D01*
X467550Y127173D01*
X467550Y130002D01*
X468633Y132617D01*
X470633Y134617D01*
X473248Y135700D01*
X476077Y135700D01*
X478692Y134617D01*
X478750Y134559D01*
X478849Y134480D01*
X478943Y134396D01*
X478985Y134372D01*
X479023Y134342D01*
X479137Y134288D01*
X479248Y134227D01*
X479294Y134214D01*
X479338Y134193D01*
X479462Y134167D01*
X479583Y134132D01*
X479644Y134127D01*
X479679Y134120D01*
X479727Y134121D01*
X479827Y134113D01*
X493986Y134113D01*
X494135Y134130D01*
X494285Y134142D01*
X494308Y134150D01*
X494332Y134153D01*
X494473Y134203D01*
X494617Y134249D01*
X494637Y134262D01*
X494660Y134270D01*
X494787Y134352D01*
X494915Y134429D01*
X494933Y134446D01*
X494953Y134459D01*
X495058Y134567D01*
X495165Y134672D01*
X495178Y134692D01*
X495195Y134710D01*
X495272Y134839D01*
X495354Y134965D01*
X495362Y134988D01*
X495374Y135009D01*
X495420Y135152D01*
X495470Y135294D01*
X495473Y135318D01*
X495480Y135341D01*
X495492Y135490D01*
X495509Y135640D01*
X495506Y135664D01*
X495508Y135688D01*
X495486Y135837D01*
X495468Y135986D01*
X495459Y136014D01*
X495457Y136033D01*
X495439Y136077D01*
X495393Y136219D01*
X494537Y138285D01*
X494537Y141115D01*
X495620Y143729D01*
X497621Y145730D01*
X500235Y146813D01*
X505098Y146813D01*
X505247Y146830D01*
X505398Y146842D01*
X505421Y146850D01*
X505445Y146853D01*
X505586Y146903D01*
X505729Y146949D01*
X505750Y146962D01*
X505773Y146970D01*
X505899Y147052D01*
X506028Y147129D01*
X506045Y147146D01*
X506065Y147159D01*
X506170Y147267D01*
X506278Y147372D01*
X506291Y147392D01*
X506308Y147410D01*
X506385Y147539D01*
X506466Y147665D01*
X506474Y147688D01*
X506487Y147709D01*
X506532Y147852D01*
X506583Y147994D01*
X506585Y148018D01*
X506593Y148041D01*
X506605Y148190D01*
X506622Y148340D01*
X506619Y148364D01*
X506621Y148388D01*
X506598Y148537D01*
X506581Y148686D01*
X506572Y148714D01*
X506569Y148733D01*
X506551Y148777D01*
X506506Y148919D01*
X505650Y150985D01*
X505650Y153815D01*
X506733Y156429D01*
X508733Y158430D01*
X511348Y159513D01*
X707623Y159513D01*
X707748Y159527D01*
X707875Y159534D01*
X707921Y159547D01*
X707969Y159553D01*
X708088Y159595D01*
X708210Y159630D01*
X708252Y159654D01*
X708297Y159670D01*
X708404Y159739D01*
X708514Y159800D01*
X708560Y159840D01*
X708590Y159859D01*
X708624Y159894D01*
X708700Y159959D01*
X715264Y166523D01*
X715358Y166641D01*
X715455Y166756D01*
X715466Y166777D01*
X715481Y166796D01*
X715545Y166932D01*
X715614Y167066D01*
X715619Y167089D01*
X715630Y167111D01*
X715662Y167259D01*
X715698Y167404D01*
X715698Y167428D01*
X715703Y167452D01*
X715701Y167602D01*
X715703Y167753D01*
X715698Y167776D01*
X715697Y167800D01*
X715661Y167946D01*
X715629Y168093D01*
X715618Y168115D01*
X715612Y168138D01*
X715543Y168273D01*
X715479Y168408D01*
X715464Y168427D01*
X715453Y168448D01*
X715355Y168563D01*
X715261Y168680D01*
X715242Y168695D01*
X715227Y168714D01*
X715106Y168803D01*
X714988Y168896D01*
X714962Y168909D01*
X714947Y168921D01*
X714903Y168940D01*
X714770Y169008D01*
X711933Y170183D01*
X709933Y172183D01*
X708850Y174798D01*
X708850Y239540D01*
X709933Y242154D01*
X731116Y263337D01*
X731178Y263415D01*
X731248Y263488D01*
X731286Y263552D01*
X731332Y263610D01*
X731375Y263701D01*
X731427Y263787D01*
X731449Y263858D01*
X731481Y263925D01*
X731502Y264023D01*
X731533Y264119D01*
X731539Y264193D01*
X731554Y264266D01*
X731553Y264366D01*
X731561Y264466D01*
X731550Y264540D01*
X731548Y264614D01*
X731524Y264711D01*
X731509Y264811D01*
X731482Y264880D01*
X731463Y264952D01*
X731417Y265042D01*
X731380Y265135D01*
X731338Y265196D01*
X731304Y265262D01*
X731239Y265339D01*
X731181Y265421D01*
X731126Y265471D01*
X731078Y265527D01*
X730997Y265587D01*
X730923Y265654D01*
X730858Y265690D01*
X730798Y265735D01*
X730706Y265774D01*
X730618Y265823D01*
X730546Y265843D01*
X730478Y265873D01*
X730379Y265890D01*
X730282Y265918D01*
X730182Y265926D01*
X730135Y265934D01*
X730099Y265932D01*
X730038Y265937D01*
X697315Y265937D01*
X697189Y265923D01*
X697063Y265916D01*
X697016Y265903D01*
X696968Y265897D01*
X696849Y265855D01*
X696728Y265820D01*
X696686Y265796D01*
X696640Y265780D01*
X696534Y265711D01*
X696424Y265650D01*
X696378Y265610D01*
X696348Y265591D01*
X696314Y265556D01*
X696238Y265491D01*
X689829Y259083D01*
X687215Y258000D01*
X684385Y258000D01*
X681771Y259083D01*
X679770Y261083D01*
X678687Y263698D01*
X678687Y266527D01*
X679770Y269142D01*
X689708Y279080D01*
X692323Y280163D01*
X728260Y280163D01*
X728386Y280177D01*
X728512Y280184D01*
X728559Y280197D01*
X728607Y280203D01*
X728726Y280245D01*
X728847Y280280D01*
X728889Y280304D01*
X728935Y280320D01*
X729041Y280389D01*
X729151Y280450D01*
X729197Y280490D01*
X729227Y280509D01*
X729261Y280544D01*
X729337Y280609D01*
X746991Y298262D01*
X747053Y298340D01*
X747123Y298413D01*
X747161Y298477D01*
X747207Y298535D01*
X747250Y298626D01*
X747302Y298712D01*
X747324Y298783D01*
X747356Y298850D01*
X747377Y298948D01*
X747408Y299044D01*
X747414Y299118D01*
X747429Y299191D01*
X747428Y299291D01*
X747436Y299391D01*
X747425Y299465D01*
X747423Y299539D01*
X747399Y299636D01*
X747384Y299736D01*
X747357Y299805D01*
X747338Y299877D01*
X747292Y299967D01*
X747255Y300060D01*
X747213Y300121D01*
X747179Y300187D01*
X747114Y300264D01*
X747056Y300346D01*
X747001Y300396D01*
X746953Y300452D01*
X746872Y300512D01*
X746798Y300579D01*
X746733Y300615D01*
X746673Y300660D01*
X746581Y300699D01*
X746493Y300748D01*
X746421Y300768D01*
X746353Y300798D01*
X746254Y300815D01*
X746157Y300843D01*
X746057Y300851D01*
X746010Y300859D01*
X745974Y300857D01*
X745913Y300862D01*
X744710Y300862D01*
X742096Y301945D01*
X741062Y302979D01*
X740944Y303073D01*
X740829Y303170D01*
X740808Y303181D01*
X740789Y303196D01*
X740653Y303260D01*
X740519Y303329D01*
X740496Y303335D01*
X740474Y303345D01*
X740327Y303376D01*
X740181Y303413D01*
X740157Y303413D01*
X740133Y303418D01*
X739983Y303416D01*
X739832Y303418D01*
X739809Y303413D01*
X739785Y303412D01*
X739639Y303376D01*
X739492Y303344D01*
X739470Y303333D01*
X739447Y303327D01*
X739313Y303258D01*
X739177Y303194D01*
X739158Y303179D01*
X739137Y303168D01*
X739022Y303070D01*
X738905Y302976D01*
X738890Y302957D01*
X738871Y302942D01*
X738782Y302821D01*
X738689Y302703D01*
X738676Y302677D01*
X738664Y302662D01*
X738646Y302618D01*
X738577Y302485D01*
X737867Y300771D01*
X724754Y287658D01*
X722140Y286575D01*
X317673Y286575D01*
X315058Y287658D01*
X284483Y318233D01*
X283400Y320848D01*
X283400Y323677D01*
X284483Y326292D01*
X286483Y328292D01*
X289098Y329375D01*
X291927Y329375D01*
X292148Y329284D01*
X292196Y329270D01*
X292242Y329249D01*
X292363Y329222D01*
X292483Y329188D01*
X292533Y329186D01*
X292582Y329175D01*
X292707Y329177D01*
X292831Y329171D01*
X292880Y329180D01*
X292931Y329181D01*
X293052Y329212D01*
X293174Y329234D01*
X293220Y329254D01*
X293269Y329266D01*
X293380Y329323D01*
X293493Y329373D01*
X293534Y329403D01*
X293579Y329426D01*
X293673Y329506D01*
X293773Y329581D01*
X293806Y329619D01*
X293844Y329652D01*
X293918Y329752D01*
X293998Y329847D01*
X294021Y329891D01*
X294051Y329932D01*
X294100Y330046D01*
X294157Y330157D01*
X294169Y330206D01*
X294189Y330252D01*
X294211Y330374D01*
X294241Y330495D01*
X294242Y330545D01*
X294251Y330595D01*
X294244Y330719D01*
X294246Y330843D01*
X294236Y330893D01*
X294233Y330943D01*
X294199Y331062D01*
X294172Y331184D01*
X294150Y331229D01*
X294136Y331278D01*
X294076Y331386D01*
X294022Y331499D01*
X293991Y331538D01*
X293966Y331582D01*
X293808Y331768D01*
X287658Y337918D01*
X286575Y340533D01*
X286575Y344315D01*
X287658Y346929D01*
X289658Y348930D01*
X292273Y350013D01*
X295102Y350013D01*
X297717Y348930D01*
X299717Y346929D01*
X300275Y345583D01*
X300276Y345581D01*
X300276Y345580D01*
X300352Y345444D01*
X300359Y345426D01*
X300373Y345406D01*
X300444Y345278D01*
X300446Y345277D01*
X300446Y345275D01*
X300543Y345161D01*
X300558Y345140D01*
X300572Y345127D01*
X300605Y345089D01*
X300675Y345019D01*
X300753Y344957D01*
X300826Y344887D01*
X300890Y344849D01*
X300948Y344803D01*
X301039Y344760D01*
X301125Y344708D01*
X301196Y344685D01*
X301263Y344654D01*
X301361Y344632D01*
X301457Y344602D01*
X301531Y344596D01*
X301603Y344580D01*
X301704Y344582D01*
X301804Y344574D01*
X301878Y344585D01*
X301952Y344586D01*
X302049Y344611D01*
X302149Y344625D01*
X302218Y344653D01*
X302290Y344671D01*
X302379Y344717D01*
X302473Y344754D01*
X302534Y344796D01*
X302600Y344830D01*
X302676Y344896D01*
X302759Y344953D01*
X302809Y345008D01*
X302865Y345056D01*
X302925Y345137D01*
X302992Y345212D01*
X303028Y345277D01*
X303072Y345337D01*
X303112Y345429D01*
X303161Y345517D01*
X303181Y345588D01*
X303210Y345656D01*
X303228Y345755D01*
X303256Y345852D01*
X303264Y345952D01*
X303272Y345999D01*
X303270Y346035D01*
X303275Y346096D01*
X303275Y354267D01*
X303272Y354293D01*
X303274Y354319D01*
X303252Y354465D01*
X303235Y354613D01*
X303227Y354637D01*
X303223Y354663D01*
X303168Y354801D01*
X303118Y354941D01*
X303104Y354963D01*
X303094Y354987D01*
X303009Y355109D01*
X302929Y355234D01*
X302910Y355252D01*
X302895Y355273D01*
X302785Y355372D01*
X302678Y355476D01*
X302656Y355489D01*
X302636Y355507D01*
X302506Y355579D01*
X302379Y355655D01*
X302354Y355663D01*
X302331Y355675D01*
X302188Y355716D01*
X302047Y355761D01*
X302021Y355763D01*
X301996Y355770D01*
X301752Y355790D01*
X289733Y355790D01*
X287118Y356873D01*
X284483Y359508D01*
X283400Y362123D01*
X283400Y364952D01*
X284483Y367567D01*
X286483Y369567D01*
X289098Y370650D01*
X291927Y370650D01*
X293180Y370131D01*
X293182Y370131D01*
X293184Y370130D01*
X293351Y370082D01*
X293516Y370036D01*
X293518Y370035D01*
X293520Y370035D01*
X293763Y370015D01*
X302652Y370015D01*
X302778Y370030D01*
X302904Y370036D01*
X302950Y370050D01*
X302998Y370055D01*
X303117Y370098D01*
X303239Y370133D01*
X303281Y370156D01*
X303327Y370173D01*
X303433Y370241D01*
X303543Y370303D01*
X303589Y370342D01*
X303619Y370362D01*
X303653Y370396D01*
X303729Y370461D01*
X305061Y371793D01*
X319320Y371793D01*
X319420Y371805D01*
X319521Y371806D01*
X319593Y371825D01*
X319667Y371833D01*
X319761Y371867D01*
X319859Y371891D01*
X319925Y371926D01*
X319995Y371951D01*
X320079Y372005D01*
X320168Y372051D01*
X320225Y372099D01*
X320288Y372140D01*
X320357Y372212D01*
X320434Y372277D01*
X320478Y372337D01*
X320530Y372390D01*
X320581Y372476D01*
X320641Y372557D01*
X320670Y372626D01*
X320709Y372689D01*
X320739Y372785D01*
X320779Y372877D01*
X320792Y372950D01*
X320815Y373021D01*
X320823Y373121D01*
X320841Y373220D01*
X320837Y373295D01*
X320843Y373369D01*
X320828Y373468D01*
X320823Y373568D01*
X320802Y373640D01*
X320791Y373713D01*
X320754Y373807D01*
X320726Y373903D01*
X320690Y373968D01*
X320662Y374037D01*
X320605Y374120D01*
X320556Y374207D01*
X320491Y374284D01*
X320463Y374323D01*
X320437Y374347D01*
X320398Y374394D01*
X295595Y399196D01*
X294512Y401810D01*
X294512Y404640D01*
X295595Y407254D01*
X297596Y409255D01*
X300210Y410338D01*
X303040Y410338D01*
X305654Y409255D01*
X332488Y382420D01*
X332567Y382358D01*
X332639Y382288D01*
X332703Y382250D01*
X332761Y382204D01*
X332852Y382161D01*
X332938Y382109D01*
X333009Y382087D01*
X333077Y382055D01*
X333175Y382034D01*
X333270Y382003D01*
X333345Y381997D01*
X333417Y381982D01*
X333518Y381983D01*
X333618Y381975D01*
X333691Y381986D01*
X333766Y381988D01*
X333863Y382012D01*
X333962Y382027D01*
X334031Y382054D01*
X334104Y382073D01*
X334193Y382119D01*
X334286Y382156D01*
X334347Y382198D01*
X334413Y382232D01*
X334490Y382297D01*
X334572Y382355D01*
X334622Y382410D01*
X334679Y382458D01*
X334739Y382539D01*
X334806Y382613D01*
X334842Y382678D01*
X334886Y382738D01*
X334926Y382830D01*
X334974Y382918D01*
X334995Y382990D01*
X335024Y383058D01*
X335042Y383157D01*
X335069Y383254D01*
X335077Y383354D01*
X335086Y383401D01*
X335084Y383437D01*
X335089Y383498D01*
X335089Y384457D01*
X336520Y387912D01*
X339163Y390555D01*
X342618Y391986D01*
X366951Y391986D01*
X367077Y392001D01*
X367203Y392007D01*
X367249Y392021D01*
X367297Y392026D01*
X367416Y392069D01*
X367538Y392104D01*
X367580Y392127D01*
X367625Y392144D01*
X367732Y392212D01*
X367842Y392274D01*
X367888Y392313D01*
X367918Y392333D01*
X367952Y392367D01*
X368028Y392432D01*
X382026Y406430D01*
X385481Y407861D01*
X536857Y407861D01*
X540312Y406430D01*
X542955Y403787D01*
X544386Y400332D01*
X544386Y396593D01*
X542955Y393138D01*
X540312Y390495D01*
X536857Y389064D01*
X507093Y389064D01*
X507091Y389064D01*
X507089Y389064D01*
X506915Y389043D01*
X506747Y389024D01*
X506745Y389023D01*
X506743Y389023D01*
X506660Y388996D01*
X502835Y388996D01*
X502670Y389043D01*
X502668Y389044D01*
X502666Y389044D01*
X502422Y389064D01*
X391874Y389064D01*
X391748Y389049D01*
X391622Y389043D01*
X391576Y389029D01*
X391528Y389024D01*
X391409Y388981D01*
X391287Y388946D01*
X391245Y388923D01*
X391200Y388906D01*
X391093Y388838D01*
X390983Y388776D01*
X390937Y388737D01*
X390907Y388717D01*
X390873Y388683D01*
X390797Y388618D01*
X376799Y374620D01*
X373344Y373189D01*
X345398Y373189D01*
X345298Y373177D01*
X345197Y373176D01*
X345125Y373157D01*
X345051Y373149D01*
X344957Y373115D01*
X344859Y373091D01*
X344793Y373056D01*
X344723Y373031D01*
X344639Y372977D01*
X344550Y372931D01*
X344493Y372883D01*
X344430Y372842D01*
X344361Y372770D01*
X344284Y372705D01*
X344240Y372645D01*
X344188Y372592D01*
X344137Y372506D01*
X344077Y372425D01*
X344048Y372356D01*
X344009Y372293D01*
X343979Y372197D01*
X343939Y372105D01*
X343926Y372032D01*
X343903Y371961D01*
X343895Y371861D01*
X343877Y371762D01*
X343881Y371687D01*
X343875Y371613D01*
X343890Y371514D01*
X343895Y371414D01*
X343916Y371342D01*
X343927Y371269D01*
X343964Y371175D01*
X343992Y371079D01*
X344028Y371014D01*
X344056Y370945D01*
X344113Y370862D01*
X344162Y370775D01*
X344227Y370698D01*
X344255Y370659D01*
X344281Y370635D01*
X344320Y370588D01*
X346988Y367921D01*
X347087Y367843D01*
X347180Y367758D01*
X347223Y367735D01*
X347261Y367705D01*
X347375Y367651D01*
X347485Y367590D01*
X347532Y367576D01*
X347576Y367556D01*
X347699Y367529D01*
X347821Y367495D01*
X347882Y367490D01*
X347916Y367482D01*
X347964Y367483D01*
X348065Y367475D01*
X518940Y367475D01*
X521554Y366392D01*
X548600Y339346D01*
X548699Y339268D01*
X548793Y339183D01*
X548835Y339160D01*
X548873Y339130D01*
X548987Y339076D01*
X549098Y339015D01*
X549144Y339001D01*
X549188Y338981D01*
X549312Y338954D01*
X549433Y338920D01*
X549494Y338915D01*
X549529Y338907D01*
X549577Y338908D01*
X549677Y338900D01*
X669752Y338900D01*
X671890Y338015D01*
X671987Y337987D01*
X672080Y337950D01*
X672154Y337939D01*
X672225Y337919D01*
X672326Y337914D01*
X672425Y337899D01*
X672499Y337906D01*
X672573Y337902D01*
X672672Y337920D01*
X672772Y337928D01*
X672843Y337951D01*
X672916Y337965D01*
X673008Y338005D01*
X673104Y338035D01*
X673168Y338074D01*
X673236Y338103D01*
X673316Y338163D01*
X673402Y338215D01*
X673456Y338267D01*
X673516Y338311D01*
X673580Y338388D01*
X673652Y338458D01*
X673693Y338521D01*
X673741Y338577D01*
X673786Y338667D01*
X673841Y338751D01*
X673866Y338821D01*
X673899Y338888D01*
X673924Y338985D01*
X673957Y339080D01*
X673966Y339154D01*
X673984Y339226D01*
X673985Y339326D01*
X673996Y339426D01*
X673988Y339500D01*
X673989Y339574D01*
X673967Y339673D01*
X673955Y339772D01*
X673925Y339867D01*
X673925Y363135D01*
X673910Y363261D01*
X673904Y363387D01*
X673890Y363434D01*
X673885Y363482D01*
X673842Y363601D01*
X673807Y363722D01*
X673784Y363764D01*
X673767Y363810D01*
X673699Y363916D01*
X673637Y364026D01*
X673598Y364072D01*
X673578Y364102D01*
X673544Y364136D01*
X673479Y364212D01*
X584875Y452816D01*
X584776Y452895D01*
X584682Y452979D01*
X584640Y453003D01*
X584602Y453033D01*
X584488Y453087D01*
X584377Y453148D01*
X584331Y453161D01*
X584287Y453182D01*
X584163Y453208D01*
X584042Y453243D01*
X583981Y453248D01*
X583946Y453255D01*
X583898Y453254D01*
X583798Y453262D01*
X524048Y453262D01*
X521433Y454345D01*
X440412Y535366D01*
X440313Y535445D01*
X440220Y535529D01*
X440177Y535553D01*
X440139Y535583D01*
X440025Y535637D01*
X439915Y535698D01*
X439868Y535711D01*
X439824Y535732D01*
X439701Y535758D01*
X439579Y535793D01*
X439518Y535798D01*
X439484Y535805D01*
X439436Y535804D01*
X439335Y535812D01*
X322435Y535812D01*
X319821Y536895D01*
X317606Y539110D01*
X299398Y557318D01*
X297183Y559533D01*
X296100Y562148D01*
X296100Y568676D01*
X296085Y568802D01*
X296079Y568928D01*
X296065Y568974D01*
X296060Y569022D01*
X296017Y569141D01*
X295982Y569263D01*
X295959Y569305D01*
X295942Y569350D01*
X295874Y569457D01*
X295812Y569567D01*
X295773Y569613D01*
X295753Y569643D01*
X295719Y569677D01*
X295654Y569753D01*
X291230Y574177D01*
X291210Y574193D01*
X291193Y574213D01*
X291073Y574301D01*
X290957Y574393D01*
X290934Y574404D01*
X290913Y574420D01*
X290776Y574479D01*
X290642Y574542D01*
X290617Y574548D01*
X290593Y574558D01*
X290446Y574584D01*
X290302Y574615D01*
X290275Y574615D01*
X290250Y574620D01*
X290101Y574612D01*
X289953Y574609D01*
X289928Y574603D01*
X289901Y574602D01*
X289759Y574561D01*
X289615Y574524D01*
X289592Y574512D01*
X289567Y574505D01*
X289437Y574433D01*
X289305Y574365D01*
X289285Y574348D01*
X289262Y574335D01*
X289076Y574177D01*
X282652Y567753D01*
X280352Y567753D01*
X280352Y578421D01*
X280349Y578447D01*
X280351Y578474D01*
X280329Y578620D01*
X280312Y578768D01*
X280303Y578792D01*
X280299Y578818D01*
X280244Y578956D01*
X280194Y579096D01*
X280180Y579118D01*
X280170Y579142D01*
X280086Y579264D01*
X280005Y579388D01*
X279986Y579407D01*
X279972Y579428D01*
X279862Y579527D01*
X279755Y579631D01*
X279732Y579644D01*
X279713Y579662D01*
X279583Y579733D01*
X279456Y579809D01*
X279431Y579817D01*
X279408Y579830D01*
X279265Y579871D01*
X279124Y579916D01*
X279098Y579918D01*
X279072Y579925D01*
X278829Y579945D01*
X278320Y579945D01*
X278320Y580454D01*
X278317Y580480D01*
X278319Y580506D01*
X278297Y580652D01*
X278280Y580800D01*
X278271Y580824D01*
X278267Y580850D01*
X278212Y580988D01*
X278162Y581128D01*
X278148Y581150D01*
X278138Y581174D01*
X278054Y581296D01*
X277973Y581421D01*
X277954Y581439D01*
X277939Y581460D01*
X277829Y581559D01*
X277723Y581663D01*
X277700Y581676D01*
X277681Y581694D01*
X277551Y581766D01*
X277423Y581842D01*
X277398Y581850D01*
X277375Y581862D01*
X277233Y581903D01*
X277091Y581948D01*
X277065Y581950D01*
X277040Y581957D01*
X276796Y581977D01*
X253429Y581977D01*
X253403Y581974D01*
X253376Y581976D01*
X253230Y581954D01*
X253082Y581937D01*
X253058Y581928D01*
X253032Y581924D01*
X252894Y581869D01*
X252754Y581819D01*
X252732Y581805D01*
X252708Y581795D01*
X252586Y581711D01*
X252462Y581630D01*
X252443Y581611D01*
X252422Y581597D01*
X252408Y581581D01*
X252323Y581663D01*
X252300Y581676D01*
X252281Y581694D01*
X252151Y581766D01*
X252023Y581842D01*
X251998Y581850D01*
X251975Y581862D01*
X251833Y581903D01*
X251691Y581948D01*
X251665Y581950D01*
X251640Y581957D01*
X251396Y581977D01*
X240728Y581977D01*
X240728Y588916D01*
X240780Y589109D01*
X240787Y589160D01*
X240803Y589208D01*
X240813Y589332D01*
X240831Y589454D01*
X240826Y589505D01*
X240831Y589556D01*
X240812Y589678D01*
X240802Y589801D01*
X240786Y589850D01*
X240779Y589900D01*
X240733Y590015D01*
X240695Y590133D01*
X240669Y590177D01*
X240650Y590224D01*
X240580Y590326D01*
X240516Y590432D01*
X240480Y590469D01*
X240451Y590510D01*
X240360Y590593D01*
X240273Y590682D01*
X240230Y590710D01*
X240192Y590744D01*
X240084Y590804D01*
X239980Y590871D01*
X239932Y590888D01*
X239887Y590912D01*
X239768Y590946D01*
X239652Y590987D01*
X239601Y590993D01*
X239552Y591007D01*
X239308Y591027D01*
X234950Y591027D01*
X234924Y591024D01*
X234898Y591026D01*
X234751Y591004D01*
X234604Y590987D01*
X234579Y590978D01*
X234553Y590974D01*
X234415Y590919D01*
X234276Y590869D01*
X234254Y590855D01*
X234229Y590845D01*
X234108Y590761D01*
X233983Y590680D01*
X233965Y590661D01*
X233943Y590647D01*
X233844Y590537D01*
X233741Y590430D01*
X233727Y590407D01*
X233710Y590388D01*
X233638Y590258D01*
X233562Y590131D01*
X233554Y590106D01*
X233541Y590083D01*
X233501Y589940D01*
X233456Y589799D01*
X233454Y589773D01*
X233446Y589747D01*
X233427Y589504D01*
X233427Y482600D01*
X233430Y482574D01*
X233428Y482548D01*
X233450Y482401D01*
X233467Y482254D01*
X233475Y482229D01*
X233479Y482203D01*
X233534Y482065D01*
X233584Y481926D01*
X233598Y481904D01*
X233608Y481879D01*
X233693Y481758D01*
X233773Y481633D01*
X233792Y481615D01*
X233807Y481593D01*
X233917Y481494D01*
X234024Y481391D01*
X234046Y481377D01*
X234066Y481360D01*
X234196Y481288D01*
X234323Y481212D01*
X234348Y481204D01*
X234371Y481191D01*
X234514Y481151D01*
X234655Y481106D01*
X234681Y481104D01*
X234706Y481096D01*
X234950Y481077D01*
X288989Y481077D01*
X288989Y446023D01*
X234074Y446023D01*
X234048Y446020D01*
X234022Y446022D01*
X233875Y446000D01*
X233728Y445983D01*
X233703Y445975D01*
X233677Y445971D01*
X233539Y445916D01*
X233400Y445866D01*
X233377Y445852D01*
X233353Y445842D01*
X233232Y445757D01*
X233107Y445677D01*
X233088Y445658D01*
X233067Y445643D01*
X232968Y445533D01*
X232865Y445426D01*
X232851Y445404D01*
X232833Y445384D01*
X232762Y445254D01*
X232686Y445127D01*
X232678Y445102D01*
X232665Y445079D01*
X232625Y444936D01*
X232579Y444795D01*
X232577Y444769D01*
X232570Y444744D01*
X232551Y444500D01*
X232551Y20171D01*
X232554Y20145D01*
X232551Y20119D01*
X232573Y19973D01*
X232590Y19825D01*
X232599Y19801D01*
X232603Y19775D01*
X232658Y19637D01*
X232708Y19497D01*
X232722Y19475D01*
X232732Y19451D01*
X232816Y19329D01*
X232897Y19204D01*
X232916Y19186D01*
X232931Y19165D01*
X233041Y19066D01*
X233148Y18962D01*
X233170Y18949D01*
X233190Y18931D01*
X233320Y18859D01*
X233447Y18783D01*
X233472Y18775D01*
X233495Y18763D01*
X233638Y18722D01*
X233779Y18677D01*
X233805Y18675D01*
X233830Y18668D01*
X234074Y18648D01*
X641469Y18648D01*
X641569Y18660D01*
G37*
G36*
X753490Y365413D02*
X753490Y365413D01*
X753564Y365414D01*
X753661Y365439D01*
X753761Y365453D01*
X753830Y365481D01*
X753902Y365499D01*
X753992Y365545D01*
X754085Y365582D01*
X754146Y365625D01*
X754212Y365659D01*
X754289Y365724D01*
X754371Y365781D01*
X754421Y365836D01*
X754477Y365885D01*
X754537Y365965D01*
X754604Y366040D01*
X754640Y366105D01*
X754685Y366165D01*
X754724Y366257D01*
X754773Y366345D01*
X754793Y366417D01*
X754823Y366485D01*
X754840Y366584D01*
X754868Y366680D01*
X754876Y366780D01*
X754884Y366828D01*
X754882Y366864D01*
X754887Y366924D01*
X754887Y415523D01*
X754873Y415648D01*
X754866Y415775D01*
X754853Y415821D01*
X754847Y415869D01*
X754805Y415988D01*
X754770Y416110D01*
X754746Y416152D01*
X754730Y416197D01*
X754661Y416303D01*
X754600Y416414D01*
X754560Y416460D01*
X754541Y416490D01*
X754506Y416524D01*
X754441Y416600D01*
X612688Y558353D01*
X612589Y558432D01*
X612495Y558516D01*
X612453Y558540D01*
X612415Y558570D01*
X612301Y558624D01*
X612190Y558685D01*
X612144Y558698D01*
X612100Y558719D01*
X611976Y558745D01*
X611855Y558780D01*
X611794Y558785D01*
X611759Y558792D01*
X611711Y558791D01*
X611611Y558799D01*
X610249Y558799D01*
X605581Y560733D01*
X602008Y564306D01*
X601482Y565574D01*
X601434Y565662D01*
X601394Y565754D01*
X601349Y565814D01*
X601313Y565879D01*
X601245Y565954D01*
X601186Y566034D01*
X601129Y566082D01*
X601079Y566137D01*
X600996Y566194D01*
X600920Y566259D01*
X600853Y566293D01*
X600792Y566335D01*
X600699Y566372D01*
X600609Y566418D01*
X600537Y566436D01*
X600468Y566463D01*
X600369Y566478D01*
X600271Y566502D01*
X600197Y566503D01*
X600123Y566514D01*
X600023Y566506D01*
X599923Y566507D01*
X599850Y566491D01*
X599776Y566485D01*
X599680Y566454D01*
X599582Y566433D01*
X599515Y566401D01*
X599444Y566378D01*
X599358Y566326D01*
X599267Y566283D01*
X599209Y566237D01*
X599146Y566198D01*
X599074Y566128D01*
X598995Y566066D01*
X598949Y566007D01*
X598896Y565955D01*
X598841Y565871D01*
X598779Y565792D01*
X598733Y565703D01*
X598707Y565662D01*
X598695Y565629D01*
X598668Y565574D01*
X598142Y564306D01*
X594569Y560733D01*
X589901Y558799D01*
X584849Y558799D01*
X580181Y560733D01*
X576608Y564306D01*
X575803Y566248D01*
X575783Y566284D01*
X575770Y566322D01*
X575699Y566436D01*
X575634Y566553D01*
X575606Y566583D01*
X575585Y566617D01*
X575490Y566712D01*
X575400Y566811D01*
X575366Y566834D01*
X575337Y566863D01*
X575223Y566933D01*
X575113Y567009D01*
X575075Y567024D01*
X575041Y567045D01*
X574913Y567088D01*
X574789Y567137D01*
X574749Y567143D01*
X574710Y567156D01*
X574576Y567168D01*
X574444Y567188D01*
X574403Y567184D01*
X574363Y567188D01*
X574230Y567170D01*
X574097Y567159D01*
X574058Y567146D01*
X574018Y567141D01*
X573893Y567093D01*
X573765Y567052D01*
X573730Y567031D01*
X573692Y567016D01*
X573581Y566941D01*
X573466Y566872D01*
X573437Y566844D01*
X573404Y566821D01*
X573313Y566723D01*
X573216Y566629D01*
X573195Y566595D01*
X573167Y566565D01*
X573039Y566357D01*
X572403Y565110D01*
X571275Y563557D01*
X569918Y562200D01*
X568365Y561072D01*
X566655Y560201D01*
X564830Y559607D01*
X564474Y559551D01*
X564474Y570524D01*
X564471Y570550D01*
X564473Y570576D01*
X564451Y570723D01*
X564434Y570870D01*
X564426Y570895D01*
X564422Y570921D01*
X564367Y571058D01*
X564317Y571198D01*
X564303Y571220D01*
X564293Y571245D01*
X564208Y571366D01*
X564128Y571491D01*
X564115Y571503D01*
X564160Y571550D01*
X564174Y571573D01*
X564191Y571592D01*
X564263Y571722D01*
X564339Y571849D01*
X564347Y571874D01*
X564360Y571897D01*
X564400Y572040D01*
X564445Y572181D01*
X564447Y572207D01*
X564455Y572232D01*
X564474Y572476D01*
X564474Y583449D01*
X564830Y583393D01*
X566655Y582799D01*
X568365Y581928D01*
X569918Y580800D01*
X571275Y579443D01*
X572403Y577890D01*
X573039Y576643D01*
X573061Y576609D01*
X573077Y576572D01*
X573157Y576464D01*
X573231Y576353D01*
X573261Y576325D01*
X573285Y576292D01*
X573387Y576206D01*
X573485Y576114D01*
X573520Y576093D01*
X573551Y576067D01*
X573670Y576006D01*
X573786Y575939D01*
X573825Y575927D01*
X573862Y575908D01*
X573991Y575876D01*
X574120Y575837D01*
X574160Y575834D01*
X574200Y575824D01*
X574334Y575822D01*
X574467Y575813D01*
X574507Y575820D01*
X574548Y575819D01*
X574679Y575848D01*
X574811Y575869D01*
X574849Y575885D01*
X574889Y575893D01*
X575010Y575951D01*
X575134Y576002D01*
X575167Y576026D01*
X575203Y576043D01*
X575308Y576127D01*
X575417Y576204D01*
X575444Y576235D01*
X575476Y576260D01*
X575559Y576366D01*
X575647Y576466D01*
X575667Y576502D01*
X575692Y576534D01*
X575803Y576752D01*
X576608Y578694D01*
X580181Y582267D01*
X584849Y584201D01*
X589901Y584201D01*
X594569Y582267D01*
X598142Y578694D01*
X598668Y577426D01*
X598717Y577338D01*
X598757Y577246D01*
X598801Y577186D01*
X598837Y577121D01*
X598905Y577047D01*
X598964Y576966D01*
X599021Y576918D01*
X599071Y576863D01*
X599154Y576806D01*
X599230Y576741D01*
X599297Y576707D01*
X599358Y576665D01*
X599451Y576628D01*
X599541Y576582D01*
X599613Y576564D01*
X599682Y576537D01*
X599781Y576522D01*
X599879Y576498D01*
X599953Y576497D01*
X600027Y576486D01*
X600127Y576494D01*
X600227Y576493D01*
X600300Y576509D01*
X600374Y576515D01*
X600470Y576546D01*
X600568Y576567D01*
X600635Y576599D01*
X600706Y576622D01*
X600792Y576674D01*
X600883Y576717D01*
X600941Y576763D01*
X601004Y576802D01*
X601076Y576872D01*
X601155Y576934D01*
X601201Y576993D01*
X601254Y577045D01*
X601309Y577129D01*
X601371Y577208D01*
X601417Y577297D01*
X601443Y577338D01*
X601455Y577372D01*
X601482Y577426D01*
X602008Y578694D01*
X605581Y582267D01*
X610249Y584201D01*
X615301Y584201D01*
X619969Y582267D01*
X623542Y578694D01*
X624068Y577426D01*
X624117Y577338D01*
X624157Y577246D01*
X624201Y577186D01*
X624237Y577121D01*
X624305Y577047D01*
X624364Y576966D01*
X624421Y576918D01*
X624471Y576863D01*
X624554Y576806D01*
X624630Y576741D01*
X624697Y576707D01*
X624758Y576665D01*
X624851Y576628D01*
X624941Y576582D01*
X625013Y576564D01*
X625082Y576537D01*
X625181Y576522D01*
X625279Y576498D01*
X625353Y576497D01*
X625427Y576486D01*
X625527Y576494D01*
X625627Y576493D01*
X625700Y576509D01*
X625774Y576515D01*
X625870Y576546D01*
X625968Y576567D01*
X626035Y576599D01*
X626106Y576622D01*
X626192Y576674D01*
X626283Y576717D01*
X626341Y576763D01*
X626404Y576802D01*
X626476Y576872D01*
X626555Y576934D01*
X626601Y576993D01*
X626654Y577045D01*
X626709Y577129D01*
X626771Y577208D01*
X626817Y577297D01*
X626843Y577338D01*
X626855Y577372D01*
X626882Y577426D01*
X627408Y578694D01*
X630981Y582267D01*
X635649Y584201D01*
X640701Y584201D01*
X645369Y582267D01*
X648942Y578694D01*
X649468Y577426D01*
X649516Y577338D01*
X649556Y577246D01*
X649601Y577186D01*
X649637Y577121D01*
X649705Y577046D01*
X649764Y576966D01*
X649821Y576918D01*
X649871Y576863D01*
X649954Y576806D01*
X650030Y576741D01*
X650097Y576707D01*
X650158Y576665D01*
X650251Y576628D01*
X650341Y576582D01*
X650413Y576564D01*
X650482Y576537D01*
X650581Y576522D01*
X650679Y576498D01*
X650753Y576497D01*
X650827Y576486D01*
X650927Y576494D01*
X651027Y576493D01*
X651100Y576509D01*
X651174Y576515D01*
X651270Y576546D01*
X651368Y576567D01*
X651435Y576599D01*
X651506Y576622D01*
X651592Y576674D01*
X651683Y576717D01*
X651741Y576763D01*
X651804Y576802D01*
X651876Y576872D01*
X651955Y576934D01*
X652001Y576993D01*
X652054Y577045D01*
X652109Y577129D01*
X652171Y577208D01*
X652217Y577297D01*
X652243Y577338D01*
X652255Y577371D01*
X652282Y577426D01*
X652808Y578694D01*
X656381Y582267D01*
X661049Y584201D01*
X666101Y584201D01*
X670769Y582267D01*
X674182Y578855D01*
X674260Y578792D01*
X674333Y578722D01*
X674397Y578684D01*
X674455Y578638D01*
X674546Y578595D01*
X674632Y578544D01*
X674703Y578521D01*
X674770Y578489D01*
X674868Y578468D01*
X674964Y578437D01*
X675038Y578431D01*
X675111Y578416D01*
X675211Y578417D01*
X675311Y578409D01*
X675385Y578420D01*
X675459Y578422D01*
X675556Y578446D01*
X675656Y578461D01*
X675725Y578489D01*
X675797Y578507D01*
X675886Y578553D01*
X675980Y578590D01*
X676041Y578632D01*
X676107Y578666D01*
X676183Y578731D01*
X676266Y578789D01*
X676316Y578844D01*
X676372Y578892D01*
X676432Y578973D01*
X676499Y579047D01*
X676535Y579113D01*
X676580Y579172D01*
X676619Y579265D01*
X676668Y579353D01*
X676688Y579424D01*
X676718Y579492D01*
X676735Y579591D01*
X676763Y579688D01*
X676771Y579788D01*
X676779Y579835D01*
X676777Y579871D01*
X676782Y579932D01*
X676782Y581487D01*
X676955Y582133D01*
X677290Y582712D01*
X677763Y583185D01*
X678342Y583520D01*
X678988Y583693D01*
X686476Y583693D01*
X686476Y572476D01*
X686479Y572450D01*
X686477Y572424D01*
X686499Y572277D01*
X686516Y572130D01*
X686524Y572105D01*
X686528Y572079D01*
X686583Y571942D01*
X686633Y571802D01*
X686647Y571780D01*
X686657Y571755D01*
X686742Y571634D01*
X686822Y571509D01*
X686835Y571497D01*
X686790Y571450D01*
X686776Y571427D01*
X686759Y571408D01*
X686687Y571278D01*
X686611Y571151D01*
X686603Y571126D01*
X686590Y571103D01*
X686550Y570960D01*
X686505Y570819D01*
X686502Y570793D01*
X686495Y570768D01*
X686476Y570524D01*
X686476Y559307D01*
X678988Y559307D01*
X678342Y559480D01*
X677763Y559815D01*
X677290Y560288D01*
X676955Y560867D01*
X676782Y561513D01*
X676782Y563068D01*
X676771Y563168D01*
X676769Y563268D01*
X676751Y563341D01*
X676742Y563415D01*
X676709Y563509D01*
X676684Y563606D01*
X676650Y563673D01*
X676625Y563743D01*
X676570Y563827D01*
X676524Y563916D01*
X676476Y563973D01*
X676436Y564035D01*
X676364Y564105D01*
X676299Y564182D01*
X676239Y564226D01*
X676185Y564278D01*
X676099Y564329D01*
X676018Y564389D01*
X675950Y564418D01*
X675886Y564456D01*
X675790Y564487D01*
X675698Y564527D01*
X675625Y564540D01*
X675554Y564563D01*
X675454Y564571D01*
X675355Y564589D01*
X675281Y564585D01*
X675207Y564591D01*
X675107Y564576D01*
X675007Y564571D01*
X674936Y564550D01*
X674862Y564539D01*
X674769Y564502D01*
X674672Y564474D01*
X674607Y564438D01*
X674538Y564410D01*
X674456Y564353D01*
X674368Y564304D01*
X674292Y564239D01*
X674252Y564211D01*
X674228Y564185D01*
X674182Y564145D01*
X672312Y562276D01*
X672296Y562255D01*
X672276Y562238D01*
X672188Y562119D01*
X672096Y562003D01*
X672085Y561979D01*
X672069Y561958D01*
X672010Y561821D01*
X671947Y561688D01*
X671941Y561662D01*
X671931Y561638D01*
X671905Y561492D01*
X671873Y561347D01*
X671874Y561321D01*
X671869Y561295D01*
X671877Y561146D01*
X671879Y560998D01*
X671886Y560973D01*
X671887Y560947D01*
X671928Y560805D01*
X671964Y560661D01*
X671976Y560637D01*
X671984Y560612D01*
X672056Y560483D01*
X672124Y560351D01*
X672141Y560331D01*
X672154Y560308D01*
X672312Y560122D01*
X794390Y438044D01*
X796605Y435829D01*
X797688Y433215D01*
X797688Y385974D01*
X797699Y385874D01*
X797701Y385774D01*
X797719Y385702D01*
X797728Y385628D01*
X797761Y385533D01*
X797786Y385436D01*
X797820Y385370D01*
X797845Y385300D01*
X797900Y385215D01*
X797946Y385126D01*
X797994Y385069D01*
X798034Y385007D01*
X798106Y384937D01*
X798171Y384861D01*
X798231Y384816D01*
X798285Y384765D01*
X798371Y384713D01*
X798452Y384654D01*
X798520Y384624D01*
X798584Y384586D01*
X798680Y384555D01*
X798772Y384516D01*
X798845Y384502D01*
X798916Y384480D01*
X799016Y384472D01*
X799115Y384454D01*
X799189Y384458D01*
X799263Y384452D01*
X799363Y384467D01*
X799463Y384472D01*
X799534Y384492D01*
X799608Y384503D01*
X799701Y384541D01*
X799798Y384568D01*
X799863Y384605D01*
X799932Y384632D01*
X800014Y384689D01*
X800102Y384738D01*
X800178Y384804D01*
X800218Y384831D01*
X800242Y384858D01*
X800288Y384897D01*
X850390Y434999D01*
X850461Y435088D01*
X850465Y435093D01*
X850467Y435096D01*
X850468Y435098D01*
X850553Y435191D01*
X850576Y435234D01*
X850606Y435272D01*
X850660Y435386D01*
X850721Y435496D01*
X850735Y435543D01*
X850755Y435587D01*
X850782Y435710D01*
X850816Y435832D01*
X850821Y435893D01*
X850829Y435927D01*
X850828Y435975D01*
X850836Y436076D01*
X850836Y511490D01*
X850826Y511571D01*
X850827Y511654D01*
X850806Y511744D01*
X850796Y511836D01*
X850768Y511913D01*
X850750Y511994D01*
X850710Y512077D01*
X850678Y512164D01*
X850634Y512233D01*
X850598Y512307D01*
X850539Y512379D01*
X850489Y512457D01*
X850430Y512514D01*
X850378Y512578D01*
X850274Y512664D01*
X850239Y512699D01*
X850218Y512711D01*
X850190Y512735D01*
X847342Y514742D01*
X834667Y527417D01*
X824339Y542069D01*
X816663Y558268D01*
X811863Y575540D01*
X811160Y582564D01*
X811149Y582613D01*
X811147Y582664D01*
X811112Y582783D01*
X811086Y582904D01*
X811064Y582950D01*
X811050Y582999D01*
X810990Y583107D01*
X810936Y583219D01*
X810905Y583259D01*
X810880Y583303D01*
X810722Y583489D01*
X810719Y583491D01*
X810719Y583492D01*
X803630Y590581D01*
X803531Y590659D01*
X803437Y590744D01*
X803395Y590767D01*
X803357Y590797D01*
X803243Y590851D01*
X803132Y590912D01*
X803086Y590926D01*
X803042Y590946D01*
X802919Y590973D01*
X802797Y591007D01*
X802736Y591012D01*
X802701Y591020D01*
X802653Y591019D01*
X802553Y591027D01*
X388744Y591027D01*
X388644Y591015D01*
X388544Y591014D01*
X388471Y590995D01*
X388398Y590987D01*
X388303Y590953D01*
X388206Y590929D01*
X388139Y590894D01*
X388069Y590869D01*
X387985Y590815D01*
X387896Y590769D01*
X387839Y590721D01*
X387777Y590680D01*
X387707Y590608D01*
X387630Y590543D01*
X387586Y590483D01*
X387534Y590430D01*
X387483Y590344D01*
X387423Y590263D01*
X387394Y590194D01*
X387356Y590131D01*
X387325Y590035D01*
X387285Y589943D01*
X387272Y589870D01*
X387249Y589799D01*
X387241Y589699D01*
X387224Y589600D01*
X387227Y589525D01*
X387221Y589451D01*
X387236Y589352D01*
X387241Y589252D01*
X387262Y589180D01*
X387273Y589107D01*
X387310Y589013D01*
X387338Y588917D01*
X387374Y588852D01*
X387402Y588783D01*
X387459Y588700D01*
X387508Y588613D01*
X387573Y588536D01*
X387601Y588497D01*
X387627Y588473D01*
X387667Y588426D01*
X391605Y584488D01*
X391605Y574387D01*
X384463Y567245D01*
X374362Y567245D01*
X367790Y573817D01*
X367769Y573834D01*
X367752Y573854D01*
X367633Y573942D01*
X367517Y574034D01*
X367493Y574045D01*
X367472Y574061D01*
X367336Y574119D01*
X367201Y574183D01*
X367176Y574188D01*
X367152Y574199D01*
X367005Y574225D01*
X366861Y574256D01*
X366835Y574256D01*
X366809Y574260D01*
X366660Y574253D01*
X366512Y574250D01*
X366487Y574244D01*
X366461Y574242D01*
X366318Y574201D01*
X366174Y574165D01*
X366151Y574153D01*
X366126Y574146D01*
X365996Y574074D01*
X365865Y574006D01*
X365845Y573989D01*
X365822Y573976D01*
X365635Y573817D01*
X359063Y567245D01*
X348962Y567245D01*
X342390Y573817D01*
X342369Y573834D01*
X342352Y573854D01*
X342233Y573942D01*
X342117Y574034D01*
X342093Y574045D01*
X342072Y574061D01*
X341936Y574119D01*
X341801Y574183D01*
X341776Y574188D01*
X341752Y574199D01*
X341605Y574225D01*
X341461Y574256D01*
X341435Y574256D01*
X341409Y574260D01*
X341260Y574253D01*
X341112Y574250D01*
X341087Y574244D01*
X341061Y574242D01*
X340918Y574201D01*
X340774Y574165D01*
X340751Y574153D01*
X340726Y574146D01*
X340596Y574074D01*
X340465Y574006D01*
X340445Y573989D01*
X340422Y573976D01*
X340235Y573817D01*
X337784Y571366D01*
X337768Y571346D01*
X337748Y571329D01*
X337660Y571209D01*
X337568Y571093D01*
X337557Y571070D01*
X337541Y571048D01*
X337482Y570912D01*
X337419Y570778D01*
X337413Y570752D01*
X337403Y570728D01*
X337377Y570582D01*
X337345Y570437D01*
X337346Y570411D01*
X337341Y570385D01*
X337349Y570237D01*
X337351Y570089D01*
X337358Y570064D01*
X337359Y570037D01*
X337400Y569895D01*
X337436Y569751D01*
X337448Y569728D01*
X337456Y569702D01*
X337528Y569573D01*
X337596Y569441D01*
X337613Y569421D01*
X337626Y569398D01*
X337784Y569212D01*
X343813Y563184D01*
X343912Y563105D01*
X344005Y563021D01*
X344048Y562997D01*
X344086Y562967D01*
X344200Y562913D01*
X344310Y562852D01*
X344357Y562839D01*
X344401Y562818D01*
X344524Y562792D01*
X344646Y562757D01*
X344707Y562752D01*
X344741Y562745D01*
X344789Y562746D01*
X344890Y562738D01*
X449090Y562738D01*
X451704Y561655D01*
X532725Y480634D01*
X532824Y480555D01*
X532918Y480471D01*
X532960Y480447D01*
X532998Y480417D01*
X533112Y480363D01*
X533223Y480302D01*
X533269Y480289D01*
X533313Y480268D01*
X533437Y480242D01*
X533558Y480207D01*
X533619Y480202D01*
X533654Y480195D01*
X533702Y480196D01*
X533802Y480188D01*
X552238Y480188D01*
X552338Y480199D01*
X552439Y480201D01*
X552511Y480219D01*
X552585Y480228D01*
X552679Y480261D01*
X552777Y480286D01*
X552843Y480320D01*
X552913Y480345D01*
X552997Y480400D01*
X553086Y480446D01*
X553143Y480494D01*
X553206Y480534D01*
X553275Y480606D01*
X553352Y480671D01*
X553396Y480731D01*
X553448Y480785D01*
X553499Y480871D01*
X553559Y480952D01*
X553588Y481020D01*
X553627Y481084D01*
X553657Y481180D01*
X553697Y481272D01*
X553710Y481345D01*
X553733Y481416D01*
X553741Y481516D01*
X553759Y481615D01*
X553755Y481689D01*
X553761Y481763D01*
X553746Y481863D01*
X553741Y481963D01*
X553720Y482034D01*
X553709Y482108D01*
X553672Y482201D01*
X553644Y482298D01*
X553608Y482363D01*
X553580Y482432D01*
X553523Y482514D01*
X553474Y482602D01*
X553409Y482678D01*
X553381Y482718D01*
X553377Y482722D01*
X553376Y482723D01*
X553353Y482744D01*
X553316Y482788D01*
X534348Y501756D01*
X532133Y503971D01*
X531050Y506585D01*
X531050Y559024D01*
X531041Y559100D01*
X531042Y559176D01*
X531021Y559272D01*
X531010Y559370D01*
X530984Y559442D01*
X530968Y559517D01*
X530926Y559605D01*
X530892Y559698D01*
X530851Y559762D01*
X530818Y559831D01*
X530757Y559908D01*
X530703Y559991D01*
X530648Y560044D01*
X530601Y560104D01*
X530523Y560165D01*
X530453Y560233D01*
X530387Y560272D01*
X530327Y560320D01*
X530194Y560388D01*
X530154Y560412D01*
X530136Y560418D01*
X530109Y560431D01*
X529381Y560733D01*
X525808Y564306D01*
X523874Y568974D01*
X523874Y574026D01*
X525808Y578694D01*
X529381Y582267D01*
X534049Y584201D01*
X539101Y584201D01*
X543769Y582267D01*
X547342Y578694D01*
X548147Y576752D01*
X548167Y576716D01*
X548180Y576678D01*
X548251Y576564D01*
X548316Y576447D01*
X548344Y576417D01*
X548365Y576383D01*
X548460Y576288D01*
X548550Y576189D01*
X548584Y576166D01*
X548613Y576137D01*
X548727Y576067D01*
X548837Y575991D01*
X548875Y575976D01*
X548909Y575955D01*
X549037Y575912D01*
X549161Y575863D01*
X549201Y575857D01*
X549240Y575844D01*
X549374Y575832D01*
X549506Y575812D01*
X549547Y575816D01*
X549587Y575812D01*
X549720Y575830D01*
X549853Y575841D01*
X549892Y575854D01*
X549932Y575859D01*
X550057Y575907D01*
X550185Y575948D01*
X550220Y575969D01*
X550258Y575984D01*
X550369Y576059D01*
X550484Y576128D01*
X550513Y576156D01*
X550546Y576179D01*
X550637Y576277D01*
X550734Y576371D01*
X550755Y576405D01*
X550783Y576435D01*
X550911Y576643D01*
X551547Y577890D01*
X552675Y579443D01*
X554032Y580800D01*
X555585Y581928D01*
X557295Y582799D01*
X559120Y583393D01*
X559476Y583449D01*
X559476Y572476D01*
X559479Y572450D01*
X559477Y572424D01*
X559499Y572277D01*
X559516Y572130D01*
X559524Y572105D01*
X559528Y572079D01*
X559583Y571942D01*
X559633Y571802D01*
X559647Y571780D01*
X559657Y571755D01*
X559742Y571634D01*
X559822Y571509D01*
X559835Y571497D01*
X559790Y571450D01*
X559776Y571427D01*
X559759Y571408D01*
X559687Y571278D01*
X559611Y571151D01*
X559603Y571126D01*
X559590Y571103D01*
X559550Y570960D01*
X559505Y570819D01*
X559502Y570793D01*
X559495Y570768D01*
X559476Y570524D01*
X559476Y559551D01*
X559120Y559607D01*
X557295Y560201D01*
X555585Y561072D01*
X554032Y562200D01*
X552675Y563557D01*
X551547Y565110D01*
X550911Y566357D01*
X550889Y566391D01*
X550873Y566428D01*
X550793Y566536D01*
X550719Y566647D01*
X550689Y566675D01*
X550665Y566708D01*
X550563Y566794D01*
X550465Y566886D01*
X550430Y566907D01*
X550399Y566933D01*
X550280Y566994D01*
X550164Y567061D01*
X550125Y567073D01*
X550088Y567092D01*
X549959Y567124D01*
X549830Y567163D01*
X549790Y567166D01*
X549750Y567176D01*
X549616Y567178D01*
X549483Y567187D01*
X549443Y567180D01*
X549402Y567181D01*
X549271Y567152D01*
X549139Y567131D01*
X549101Y567115D01*
X549061Y567107D01*
X548940Y567049D01*
X548816Y566998D01*
X548783Y566974D01*
X548747Y566957D01*
X548642Y566873D01*
X548533Y566796D01*
X548506Y566765D01*
X548474Y566740D01*
X548391Y566634D01*
X548303Y566534D01*
X548283Y566498D01*
X548258Y566466D01*
X548147Y566248D01*
X547342Y564306D01*
X545721Y562685D01*
X545643Y562586D01*
X545558Y562492D01*
X545535Y562450D01*
X545505Y562412D01*
X545451Y562298D01*
X545390Y562187D01*
X545376Y562140D01*
X545356Y562097D01*
X545329Y561973D01*
X545295Y561852D01*
X545290Y561791D01*
X545282Y561756D01*
X545283Y561708D01*
X545275Y561608D01*
X545275Y511577D01*
X545290Y511452D01*
X545296Y511325D01*
X545310Y511279D01*
X545315Y511231D01*
X545358Y511112D01*
X545393Y510990D01*
X545416Y510948D01*
X545433Y510903D01*
X545501Y510797D01*
X545563Y510686D01*
X545602Y510640D01*
X545622Y510610D01*
X545656Y510576D01*
X545721Y510500D01*
X561300Y494921D01*
X561399Y494843D01*
X561493Y494758D01*
X561535Y494735D01*
X561573Y494705D01*
X561687Y494651D01*
X561798Y494590D01*
X561844Y494576D01*
X561888Y494556D01*
X562012Y494529D01*
X562133Y494495D01*
X562194Y494490D01*
X562229Y494482D01*
X562277Y494483D01*
X562377Y494475D01*
X599863Y494475D01*
X599963Y494487D01*
X600064Y494488D01*
X600136Y494507D01*
X600210Y494515D01*
X600304Y494549D01*
X600402Y494573D01*
X600468Y494608D01*
X600538Y494633D01*
X600622Y494687D01*
X600711Y494733D01*
X600768Y494781D01*
X600831Y494822D01*
X600900Y494894D01*
X600977Y494959D01*
X601021Y495019D01*
X601073Y495072D01*
X601124Y495158D01*
X601184Y495239D01*
X601213Y495308D01*
X601252Y495371D01*
X601282Y495467D01*
X601322Y495559D01*
X601335Y495632D01*
X601358Y495703D01*
X601366Y495803D01*
X601384Y495902D01*
X601380Y495977D01*
X601386Y496051D01*
X601371Y496150D01*
X601366Y496250D01*
X601345Y496322D01*
X601334Y496395D01*
X601297Y496489D01*
X601269Y496585D01*
X601233Y496650D01*
X601205Y496719D01*
X601148Y496802D01*
X601099Y496889D01*
X601034Y496966D01*
X601006Y497005D01*
X600980Y497029D01*
X600941Y497076D01*
X597575Y500441D01*
X597476Y500520D01*
X597382Y500604D01*
X597340Y500628D01*
X597302Y500658D01*
X597188Y500712D01*
X597077Y500773D01*
X597031Y500786D01*
X596987Y500807D01*
X596864Y500833D01*
X596742Y500868D01*
X596681Y500873D01*
X596646Y500880D01*
X596598Y500879D01*
X596498Y500887D01*
X563735Y500887D01*
X561121Y501970D01*
X559120Y503971D01*
X558037Y506585D01*
X558037Y509415D01*
X559120Y512029D01*
X561121Y514030D01*
X563735Y515113D01*
X601490Y515113D01*
X604104Y514030D01*
X606319Y511815D01*
X752287Y365847D01*
X752365Y365785D01*
X752438Y365715D01*
X752502Y365677D01*
X752560Y365630D01*
X752651Y365587D01*
X752737Y365536D01*
X752808Y365513D01*
X752875Y365481D01*
X752973Y365460D01*
X753069Y365430D01*
X753143Y365424D01*
X753216Y365408D01*
X753316Y365410D01*
X753416Y365402D01*
X753490Y365413D01*
G37*
G36*
X801115Y113000D02*
X801115Y113000D01*
X801189Y113002D01*
X801286Y113026D01*
X801386Y113041D01*
X801455Y113068D01*
X801527Y113087D01*
X801617Y113133D01*
X801710Y113170D01*
X801771Y113212D01*
X801837Y113246D01*
X801914Y113311D01*
X801996Y113369D01*
X802046Y113424D01*
X802102Y113472D01*
X802162Y113553D01*
X802229Y113627D01*
X802265Y113692D01*
X802310Y113752D01*
X802349Y113845D01*
X802398Y113932D01*
X802418Y114004D01*
X802448Y114072D01*
X802465Y114171D01*
X802493Y114268D01*
X802501Y114368D01*
X802509Y114415D01*
X802507Y114451D01*
X802512Y114512D01*
X802512Y128185D01*
X802498Y128311D01*
X802491Y128437D01*
X802478Y128484D01*
X802472Y128532D01*
X802430Y128651D01*
X802395Y128772D01*
X802371Y128814D01*
X802355Y128860D01*
X802286Y128966D01*
X802225Y129076D01*
X802185Y129122D01*
X802166Y129152D01*
X802131Y129186D01*
X802066Y129262D01*
X792483Y138846D01*
X791400Y141460D01*
X791400Y182390D01*
X792483Y185004D01*
X799246Y191767D01*
X801860Y192850D01*
X804690Y192850D01*
X806756Y191994D01*
X806901Y191953D01*
X807044Y191907D01*
X807068Y191905D01*
X807091Y191899D01*
X807242Y191891D01*
X807391Y191879D01*
X807415Y191883D01*
X807439Y191882D01*
X807587Y191909D01*
X807736Y191931D01*
X807758Y191940D01*
X807782Y191944D01*
X807920Y192004D01*
X808060Y192060D01*
X808080Y192074D01*
X808102Y192083D01*
X808223Y192173D01*
X808346Y192259D01*
X808362Y192277D01*
X808382Y192291D01*
X808479Y192406D01*
X808579Y192517D01*
X808591Y192539D01*
X808607Y192557D01*
X808675Y192691D01*
X808748Y192822D01*
X808754Y192846D01*
X808765Y192867D01*
X808802Y193013D01*
X808843Y193158D01*
X808845Y193187D01*
X808850Y193205D01*
X808850Y193253D01*
X808862Y193402D01*
X808862Y276013D01*
X808851Y276113D01*
X808849Y276214D01*
X808831Y276286D01*
X808822Y276360D01*
X808789Y276454D01*
X808764Y276552D01*
X808730Y276618D01*
X808705Y276688D01*
X808650Y276772D01*
X808604Y276861D01*
X808556Y276918D01*
X808516Y276981D01*
X808444Y277050D01*
X808379Y277127D01*
X808319Y277171D01*
X808265Y277223D01*
X808179Y277274D01*
X808098Y277334D01*
X808030Y277363D01*
X807966Y277402D01*
X807870Y277432D01*
X807778Y277472D01*
X807705Y277485D01*
X807634Y277508D01*
X807534Y277516D01*
X807435Y277534D01*
X807361Y277530D01*
X807287Y277536D01*
X807187Y277521D01*
X807087Y277516D01*
X807016Y277495D01*
X806942Y277484D01*
X806849Y277447D01*
X806752Y277419D01*
X806687Y277383D01*
X806618Y277355D01*
X806536Y277298D01*
X806448Y277249D01*
X806372Y277184D01*
X806332Y277156D01*
X806308Y277130D01*
X806262Y277091D01*
X794604Y265433D01*
X791990Y264350D01*
X789160Y264350D01*
X786546Y265433D01*
X784545Y267433D01*
X783462Y270048D01*
X783462Y271251D01*
X783451Y271351D01*
X783449Y271451D01*
X783431Y271523D01*
X783422Y271597D01*
X783389Y271692D01*
X783364Y271789D01*
X783330Y271855D01*
X783305Y271925D01*
X783250Y272010D01*
X783204Y272099D01*
X783156Y272156D01*
X783116Y272218D01*
X783044Y272288D01*
X782979Y272364D01*
X782919Y272409D01*
X782865Y272460D01*
X782779Y272512D01*
X782698Y272571D01*
X782630Y272601D01*
X782566Y272639D01*
X782470Y272670D01*
X782378Y272709D01*
X782305Y272723D01*
X782234Y272745D01*
X782134Y272753D01*
X782035Y272771D01*
X781961Y272767D01*
X781887Y272773D01*
X781787Y272758D01*
X781687Y272753D01*
X781616Y272733D01*
X781542Y272722D01*
X781449Y272684D01*
X781352Y272657D01*
X781287Y272620D01*
X781218Y272593D01*
X781136Y272536D01*
X781048Y272487D01*
X780972Y272421D01*
X780932Y272394D01*
X780908Y272367D01*
X780862Y272328D01*
X756859Y248325D01*
X756780Y248226D01*
X756696Y248132D01*
X756672Y248090D01*
X756642Y248052D01*
X756588Y247938D01*
X756527Y247827D01*
X756514Y247781D01*
X756493Y247737D01*
X756467Y247613D01*
X756432Y247492D01*
X756427Y247431D01*
X756420Y247396D01*
X756421Y247348D01*
X756413Y247248D01*
X756413Y187498D01*
X755330Y184883D01*
X753329Y182883D01*
X750715Y181800D01*
X747885Y181800D01*
X745271Y182883D01*
X743270Y184883D01*
X742187Y187498D01*
X742187Y250613D01*
X742176Y250713D01*
X742174Y250814D01*
X742156Y250886D01*
X742147Y250960D01*
X742114Y251054D01*
X742089Y251152D01*
X742055Y251218D01*
X742030Y251288D01*
X741975Y251372D01*
X741929Y251461D01*
X741881Y251518D01*
X741841Y251581D01*
X741769Y251650D01*
X741704Y251727D01*
X741644Y251771D01*
X741590Y251823D01*
X741504Y251874D01*
X741423Y251934D01*
X741355Y251963D01*
X741291Y252002D01*
X741195Y252032D01*
X741103Y252072D01*
X741030Y252085D01*
X740959Y252108D01*
X740859Y252116D01*
X740760Y252134D01*
X740686Y252130D01*
X740612Y252136D01*
X740512Y252121D01*
X740412Y252116D01*
X740341Y252095D01*
X740267Y252084D01*
X740174Y252047D01*
X740077Y252019D01*
X740012Y251983D01*
X739943Y251955D01*
X739861Y251898D01*
X739773Y251849D01*
X739697Y251784D01*
X739657Y251756D01*
X739633Y251730D01*
X739587Y251691D01*
X723521Y235625D01*
X723443Y235526D01*
X723358Y235432D01*
X723335Y235390D01*
X723305Y235352D01*
X723251Y235238D01*
X723190Y235127D01*
X723176Y235081D01*
X723156Y235037D01*
X723129Y234913D01*
X723095Y234792D01*
X723090Y234731D01*
X723082Y234696D01*
X723083Y234648D01*
X723075Y234548D01*
X723075Y174798D01*
X721992Y172183D01*
X721423Y171614D01*
X721330Y171496D01*
X721233Y171382D01*
X721222Y171360D01*
X721207Y171341D01*
X721142Y171205D01*
X721074Y171072D01*
X721068Y171048D01*
X721058Y171026D01*
X721026Y170879D01*
X720990Y170733D01*
X720989Y170709D01*
X720984Y170685D01*
X720987Y170536D01*
X720985Y170385D01*
X720990Y170361D01*
X720990Y170337D01*
X721027Y170192D01*
X721059Y170044D01*
X721069Y170023D01*
X721075Y169999D01*
X721144Y169865D01*
X721209Y169730D01*
X721224Y169711D01*
X721235Y169689D01*
X721333Y169574D01*
X721426Y169457D01*
X721445Y169442D01*
X721461Y169424D01*
X721582Y169334D01*
X721700Y169241D01*
X721726Y169228D01*
X721741Y169217D01*
X721784Y169198D01*
X721917Y169130D01*
X724754Y167955D01*
X726755Y165954D01*
X727838Y163340D01*
X727838Y160478D01*
X727818Y160427D01*
X727807Y160354D01*
X727787Y160282D01*
X727782Y160182D01*
X727767Y160083D01*
X727773Y160008D01*
X727770Y159934D01*
X727788Y159836D01*
X727796Y159735D01*
X727819Y159665D01*
X727832Y159591D01*
X727872Y159499D01*
X727903Y159404D01*
X727941Y159340D01*
X727971Y159272D01*
X728031Y159191D01*
X728083Y159105D01*
X728134Y159052D01*
X728179Y158992D01*
X728255Y158927D01*
X728325Y158855D01*
X728388Y158815D01*
X728445Y158767D01*
X728534Y158721D01*
X728619Y158667D01*
X728689Y158642D01*
X728755Y158608D01*
X728852Y158584D01*
X728947Y158550D01*
X729021Y158542D01*
X729093Y158524D01*
X729194Y158522D01*
X729294Y158511D01*
X729367Y158520D01*
X729442Y158519D01*
X729540Y158540D01*
X729640Y158552D01*
X729735Y158583D01*
X729782Y158593D01*
X729814Y158609D01*
X729872Y158627D01*
X732010Y159513D01*
X734840Y159513D01*
X737454Y158430D01*
X738698Y157186D01*
X738718Y157170D01*
X738735Y157150D01*
X738855Y157062D01*
X738971Y156969D01*
X738995Y156958D01*
X739016Y156943D01*
X739152Y156884D01*
X739286Y156820D01*
X739312Y156815D01*
X739336Y156805D01*
X739482Y156778D01*
X739627Y156747D01*
X739653Y156748D01*
X739679Y156743D01*
X739827Y156751D01*
X739975Y156753D01*
X740001Y156759D01*
X740027Y156761D01*
X740169Y156802D01*
X740313Y156838D01*
X740336Y156850D01*
X740362Y156857D01*
X740491Y156930D01*
X740623Y156998D01*
X740643Y157015D01*
X740666Y157028D01*
X740852Y157186D01*
X742096Y158430D01*
X744710Y159513D01*
X747540Y159513D01*
X750154Y158430D01*
X752155Y156429D01*
X753238Y153815D01*
X753238Y143048D01*
X752155Y140433D01*
X735734Y124013D01*
X735672Y123935D01*
X735602Y123862D01*
X735564Y123798D01*
X735518Y123740D01*
X735475Y123649D01*
X735423Y123563D01*
X735401Y123492D01*
X735369Y123425D01*
X735348Y123327D01*
X735317Y123231D01*
X735311Y123157D01*
X735296Y123084D01*
X735297Y122984D01*
X735289Y122884D01*
X735300Y122810D01*
X735302Y122736D01*
X735326Y122639D01*
X735341Y122539D01*
X735368Y122470D01*
X735387Y122398D01*
X735433Y122308D01*
X735470Y122215D01*
X735512Y122154D01*
X735546Y122088D01*
X735611Y122011D01*
X735669Y121929D01*
X735724Y121879D01*
X735772Y121823D01*
X735853Y121763D01*
X735927Y121696D01*
X735992Y121660D01*
X736052Y121615D01*
X736144Y121576D01*
X736232Y121527D01*
X736304Y121507D01*
X736372Y121477D01*
X736471Y121460D01*
X736568Y121432D01*
X736668Y121424D01*
X736715Y121416D01*
X736751Y121418D01*
X736812Y121413D01*
X790402Y121413D01*
X793017Y120330D01*
X795232Y118115D01*
X799912Y113434D01*
X799990Y113372D01*
X800063Y113302D01*
X800127Y113264D01*
X800185Y113218D01*
X800276Y113175D01*
X800362Y113123D01*
X800433Y113101D01*
X800500Y113069D01*
X800598Y113048D01*
X800694Y113017D01*
X800768Y113011D01*
X800841Y112996D01*
X800941Y112997D01*
X801041Y112989D01*
X801115Y113000D01*
G37*
G36*
X525351Y300812D02*
X525351Y300812D01*
X525451Y300813D01*
X525523Y300832D01*
X525597Y300840D01*
X525692Y300874D01*
X525789Y300898D01*
X525855Y300933D01*
X525925Y300958D01*
X526010Y301012D01*
X526099Y301058D01*
X526156Y301106D01*
X526218Y301147D01*
X526288Y301219D01*
X526364Y301284D01*
X526409Y301344D01*
X526460Y301397D01*
X526512Y301483D01*
X526571Y301564D01*
X526601Y301633D01*
X526639Y301696D01*
X526670Y301792D01*
X526709Y301884D01*
X526723Y301957D01*
X526745Y302028D01*
X526753Y302128D01*
X526771Y302227D01*
X526767Y302302D01*
X526773Y302376D01*
X526758Y302475D01*
X526753Y302575D01*
X526733Y302647D01*
X526722Y302720D01*
X526685Y302814D01*
X526657Y302910D01*
X526620Y302975D01*
X526593Y303044D01*
X526536Y303127D01*
X526487Y303214D01*
X526421Y303291D01*
X526394Y303330D01*
X526367Y303354D01*
X526328Y303401D01*
X519433Y310296D01*
X518350Y312910D01*
X518350Y315740D01*
X519433Y318354D01*
X521433Y320355D01*
X524270Y321530D01*
X524402Y321603D01*
X524535Y321672D01*
X524554Y321687D01*
X524575Y321699D01*
X524686Y321800D01*
X524801Y321898D01*
X524815Y321917D01*
X524833Y321933D01*
X524918Y322057D01*
X525008Y322178D01*
X525017Y322200D01*
X525031Y322220D01*
X525086Y322360D01*
X525146Y322498D01*
X525150Y322522D01*
X525159Y322544D01*
X525181Y322693D01*
X525207Y322841D01*
X525206Y322865D01*
X525210Y322889D01*
X525197Y323039D01*
X525189Y323189D01*
X525183Y323212D01*
X525181Y323236D01*
X525135Y323380D01*
X525093Y323524D01*
X525081Y323545D01*
X525074Y323568D01*
X524996Y323697D01*
X524923Y323828D01*
X524904Y323850D01*
X524894Y323867D01*
X524861Y323900D01*
X524764Y324014D01*
X508675Y340104D01*
X508576Y340182D01*
X508482Y340267D01*
X508440Y340290D01*
X508402Y340320D01*
X508288Y340374D01*
X508177Y340435D01*
X508131Y340449D01*
X508087Y340469D01*
X507963Y340496D01*
X507842Y340530D01*
X507781Y340535D01*
X507746Y340543D01*
X507698Y340542D01*
X507598Y340550D01*
X326898Y340550D01*
X326872Y340547D01*
X326846Y340549D01*
X326699Y340527D01*
X326552Y340510D01*
X326527Y340501D01*
X326501Y340497D01*
X326363Y340442D01*
X326224Y340392D01*
X326202Y340378D01*
X326177Y340368D01*
X326056Y340284D01*
X325931Y340203D01*
X325913Y340184D01*
X325891Y340170D01*
X325792Y340060D01*
X325689Y339953D01*
X325675Y339930D01*
X325658Y339911D01*
X325586Y339781D01*
X325510Y339654D01*
X325502Y339629D01*
X325489Y339606D01*
X325449Y339463D01*
X325404Y339322D01*
X325402Y339296D01*
X325394Y339270D01*
X325375Y339027D01*
X325375Y325318D01*
X323589Y323532D01*
X305061Y323532D01*
X303729Y324864D01*
X303630Y324942D01*
X303536Y325027D01*
X303494Y325050D01*
X303456Y325080D01*
X303342Y325134D01*
X303231Y325195D01*
X303185Y325209D01*
X303141Y325229D01*
X303018Y325256D01*
X302896Y325290D01*
X302835Y325295D01*
X302801Y325303D01*
X302753Y325302D01*
X302652Y325310D01*
X301798Y325310D01*
X301577Y325401D01*
X301529Y325415D01*
X301483Y325436D01*
X301362Y325463D01*
X301242Y325497D01*
X301192Y325499D01*
X301143Y325510D01*
X301018Y325508D01*
X300894Y325514D01*
X300845Y325505D01*
X300794Y325504D01*
X300673Y325473D01*
X300551Y325451D01*
X300505Y325431D01*
X300456Y325419D01*
X300345Y325362D01*
X300232Y325312D01*
X300191Y325282D01*
X300146Y325259D01*
X300052Y325179D01*
X299952Y325104D01*
X299919Y325066D01*
X299881Y325033D01*
X299807Y324933D01*
X299727Y324838D01*
X299704Y324794D01*
X299674Y324753D01*
X299625Y324639D01*
X299568Y324528D01*
X299556Y324479D01*
X299536Y324433D01*
X299514Y324311D01*
X299484Y324190D01*
X299483Y324140D01*
X299474Y324090D01*
X299481Y323966D01*
X299479Y323842D01*
X299489Y323792D01*
X299492Y323742D01*
X299526Y323623D01*
X299553Y323501D01*
X299575Y323456D01*
X299589Y323407D01*
X299649Y323299D01*
X299703Y323186D01*
X299734Y323147D01*
X299759Y323103D01*
X299917Y322917D01*
X321588Y301246D01*
X321687Y301168D01*
X321780Y301083D01*
X321823Y301060D01*
X321861Y301030D01*
X321975Y300976D01*
X322085Y300915D01*
X322132Y300901D01*
X322176Y300881D01*
X322299Y300854D01*
X322421Y300820D01*
X322482Y300815D01*
X322516Y300807D01*
X322564Y300808D01*
X322665Y300800D01*
X525251Y300800D01*
X525351Y300812D01*
G37*
G36*
X796648Y59515D02*
X796648Y59515D01*
X796775Y59521D01*
X796821Y59535D01*
X796869Y59540D01*
X796988Y59583D01*
X797110Y59618D01*
X797152Y59641D01*
X797197Y59658D01*
X797303Y59726D01*
X797414Y59788D01*
X797460Y59827D01*
X797490Y59847D01*
X797524Y59881D01*
X797600Y59946D01*
X835404Y97750D01*
X835482Y97849D01*
X835567Y97943D01*
X835590Y97985D01*
X835620Y98023D01*
X835674Y98137D01*
X835735Y98248D01*
X835749Y98294D01*
X835769Y98338D01*
X835796Y98462D01*
X835830Y98583D01*
X835835Y98644D01*
X835843Y98679D01*
X835842Y98727D01*
X835850Y98827D01*
X835850Y164888D01*
X835847Y164911D01*
X835849Y164932D01*
X835838Y165005D01*
X835837Y165089D01*
X835818Y165161D01*
X835810Y165235D01*
X835799Y165265D01*
X835797Y165277D01*
X835775Y165332D01*
X835752Y165427D01*
X835717Y165493D01*
X835692Y165563D01*
X835670Y165598D01*
X835668Y165601D01*
X835658Y165616D01*
X835638Y165647D01*
X835592Y165736D01*
X835544Y165793D01*
X835503Y165856D01*
X835431Y165925D01*
X835366Y166002D01*
X835306Y166046D01*
X835253Y166098D01*
X835167Y166149D01*
X835086Y166209D01*
X835017Y166238D01*
X834954Y166277D01*
X834858Y166307D01*
X834766Y166347D01*
X834693Y166360D01*
X834622Y166383D01*
X834522Y166391D01*
X834423Y166409D01*
X834348Y166405D01*
X834274Y166411D01*
X834175Y166396D01*
X834075Y166391D01*
X834003Y166370D01*
X833930Y166359D01*
X833836Y166322D01*
X833740Y166294D01*
X833675Y166258D01*
X833658Y166251D01*
X833644Y166246D01*
X833642Y166245D01*
X833606Y166230D01*
X833523Y166173D01*
X833436Y166124D01*
X833375Y166073D01*
X833351Y166057D01*
X833340Y166046D01*
X833320Y166031D01*
X833296Y166005D01*
X833249Y165966D01*
X824767Y157483D01*
X822152Y156400D01*
X819323Y156400D01*
X816708Y157483D01*
X814708Y159483D01*
X813625Y162098D01*
X813625Y164927D01*
X813823Y165406D01*
X813864Y165551D01*
X813910Y165694D01*
X813912Y165718D01*
X813919Y165741D01*
X813926Y165892D01*
X813938Y166041D01*
X813935Y166065D01*
X813936Y166089D01*
X813909Y166237D01*
X813886Y166386D01*
X813878Y166408D01*
X813873Y166432D01*
X813813Y166570D01*
X813758Y166710D01*
X813744Y166730D01*
X813734Y166752D01*
X813644Y166873D01*
X813559Y166996D01*
X813541Y167012D01*
X813526Y167032D01*
X813412Y167129D01*
X813300Y167229D01*
X813279Y167241D01*
X813260Y167257D01*
X813127Y167325D01*
X812995Y167398D01*
X812972Y167404D01*
X812950Y167415D01*
X812804Y167452D01*
X812660Y167493D01*
X812630Y167495D01*
X812612Y167500D01*
X812565Y167500D01*
X812416Y167512D01*
X811385Y167512D01*
X808771Y168595D01*
X808226Y169141D01*
X808147Y169203D01*
X808075Y169273D01*
X808011Y169311D01*
X807953Y169357D01*
X807862Y169400D01*
X807776Y169452D01*
X807705Y169474D01*
X807638Y169506D01*
X807539Y169527D01*
X807444Y169558D01*
X807369Y169564D01*
X807297Y169579D01*
X807196Y169578D01*
X807096Y169586D01*
X807023Y169575D01*
X806948Y169573D01*
X806851Y169549D01*
X806752Y169534D01*
X806682Y169507D01*
X806610Y169488D01*
X806521Y169442D01*
X806428Y169405D01*
X806367Y169363D01*
X806301Y169329D01*
X806224Y169264D01*
X806142Y169206D01*
X806092Y169151D01*
X806035Y169103D01*
X805975Y169022D01*
X805908Y168948D01*
X805872Y168883D01*
X805828Y168823D01*
X805788Y168731D01*
X805740Y168643D01*
X805719Y168571D01*
X805690Y168503D01*
X805672Y168404D01*
X805645Y168307D01*
X805637Y168207D01*
X805628Y168160D01*
X805630Y168124D01*
X805625Y168063D01*
X805625Y146452D01*
X805640Y146327D01*
X805646Y146200D01*
X805660Y146154D01*
X805665Y146106D01*
X805708Y145987D01*
X805743Y145865D01*
X805766Y145823D01*
X805783Y145778D01*
X805851Y145672D01*
X805913Y145561D01*
X805952Y145515D01*
X805972Y145485D01*
X806006Y145451D01*
X806071Y145375D01*
X815655Y135792D01*
X816738Y133177D01*
X816738Y128314D01*
X816740Y128291D01*
X816739Y128270D01*
X816756Y128157D01*
X816767Y128015D01*
X816775Y127992D01*
X816778Y127968D01*
X816789Y127937D01*
X816790Y127925D01*
X816816Y127861D01*
X816828Y127827D01*
X816874Y127683D01*
X816887Y127663D01*
X816895Y127640D01*
X816918Y127605D01*
X816919Y127601D01*
X816930Y127585D01*
X816977Y127513D01*
X817054Y127385D01*
X817071Y127367D01*
X817084Y127347D01*
X817192Y127242D01*
X817297Y127135D01*
X817317Y127122D01*
X817335Y127105D01*
X817464Y127028D01*
X817590Y126946D01*
X817613Y126938D01*
X817634Y126926D01*
X817777Y126880D01*
X817919Y126830D01*
X817943Y126827D01*
X817966Y126820D01*
X818115Y126808D01*
X818265Y126791D01*
X818289Y126794D01*
X818313Y126792D01*
X818462Y126814D01*
X818611Y126832D01*
X818639Y126841D01*
X818658Y126843D01*
X818702Y126861D01*
X818844Y126907D01*
X820910Y127763D01*
X823740Y127763D01*
X826354Y126680D01*
X828355Y124679D01*
X829438Y122065D01*
X829438Y108123D01*
X828355Y105508D01*
X816829Y93983D01*
X814215Y92900D01*
X810973Y92900D01*
X810927Y92895D01*
X810882Y92897D01*
X810755Y92875D01*
X810626Y92860D01*
X810583Y92845D01*
X810539Y92837D01*
X810420Y92786D01*
X810298Y92742D01*
X810260Y92718D01*
X810218Y92700D01*
X810114Y92623D01*
X810005Y92553D01*
X809974Y92521D01*
X809937Y92494D01*
X809853Y92396D01*
X809763Y92303D01*
X809740Y92264D01*
X809710Y92229D01*
X809651Y92115D01*
X809584Y92004D01*
X809571Y91960D01*
X809550Y91920D01*
X809518Y91795D01*
X809478Y91672D01*
X809475Y91626D01*
X809463Y91582D01*
X809461Y91453D01*
X809450Y91324D01*
X809457Y91279D01*
X809456Y91234D01*
X809483Y91108D01*
X809502Y90980D01*
X809519Y90937D01*
X809528Y90893D01*
X809583Y90776D01*
X809631Y90656D01*
X809657Y90618D01*
X809676Y90577D01*
X809756Y90476D01*
X809830Y90370D01*
X809863Y90339D01*
X809892Y90303D01*
X810077Y90144D01*
X812397Y88459D01*
X813801Y84138D01*
X812397Y79816D01*
X808722Y77146D01*
X804178Y77146D01*
X800503Y79816D01*
X799099Y84138D01*
X800503Y88459D01*
X802823Y90144D01*
X802856Y90175D01*
X802895Y90200D01*
X802984Y90293D01*
X803079Y90380D01*
X803105Y90418D01*
X803137Y90450D01*
X803203Y90561D01*
X803276Y90668D01*
X803292Y90710D01*
X803316Y90749D01*
X803355Y90872D01*
X803402Y90993D01*
X803408Y91038D01*
X803422Y91081D01*
X803432Y91210D01*
X803450Y91338D01*
X803446Y91383D01*
X803450Y91429D01*
X803431Y91557D01*
X803419Y91685D01*
X803405Y91728D01*
X803398Y91773D01*
X803350Y91894D01*
X803310Y92016D01*
X803286Y92055D01*
X803269Y92097D01*
X803196Y92203D01*
X803128Y92314D01*
X803096Y92346D01*
X803070Y92383D01*
X802974Y92470D01*
X802884Y92562D01*
X802846Y92586D01*
X802812Y92617D01*
X802699Y92679D01*
X802589Y92748D01*
X802546Y92763D01*
X802507Y92785D01*
X802382Y92820D01*
X802260Y92863D01*
X802215Y92868D01*
X802171Y92880D01*
X801927Y92900D01*
X801860Y92900D01*
X799246Y93983D01*
X786487Y106741D01*
X786388Y106820D01*
X786295Y106904D01*
X786252Y106928D01*
X786214Y106958D01*
X786100Y107012D01*
X785990Y107073D01*
X785943Y107086D01*
X785899Y107107D01*
X785776Y107133D01*
X785654Y107168D01*
X785593Y107173D01*
X785559Y107180D01*
X785511Y107179D01*
X785410Y107187D01*
X693432Y107187D01*
X693342Y107177D01*
X693251Y107176D01*
X693170Y107157D01*
X693086Y107147D01*
X693001Y107117D01*
X692912Y107096D01*
X692837Y107058D01*
X692758Y107030D01*
X692682Y106981D01*
X692601Y106940D01*
X692536Y106886D01*
X692465Y106841D01*
X692402Y106776D01*
X692332Y106718D01*
X692282Y106651D01*
X692223Y106590D01*
X692176Y106512D01*
X692122Y106440D01*
X692087Y106363D01*
X692044Y106291D01*
X692017Y106205D01*
X691980Y106122D01*
X691964Y106039D01*
X691938Y105959D01*
X691931Y105869D01*
X691914Y105779D01*
X691917Y105695D01*
X691910Y105612D01*
X691924Y105522D01*
X691927Y105431D01*
X691954Y105317D01*
X691962Y105267D01*
X691973Y105240D01*
X691984Y105193D01*
X693151Y101600D01*
X692500Y99594D01*
X692482Y99505D01*
X692454Y99419D01*
X692447Y99335D01*
X692431Y99253D01*
X692433Y99162D01*
X692426Y99071D01*
X692438Y98988D01*
X692441Y98904D01*
X692464Y98817D01*
X692478Y98727D01*
X692509Y98648D01*
X692530Y98567D01*
X692573Y98487D01*
X692606Y98403D01*
X692654Y98334D01*
X692694Y98260D01*
X692754Y98191D01*
X692805Y98117D01*
X692868Y98060D01*
X692923Y97997D01*
X692997Y97944D01*
X693064Y97883D01*
X693138Y97843D01*
X693206Y97793D01*
X693290Y97759D01*
X693369Y97715D01*
X693450Y97692D01*
X693528Y97660D01*
X693617Y97645D01*
X693705Y97620D01*
X693822Y97610D01*
X693871Y97602D01*
X693901Y97604D01*
X693948Y97600D01*
X713973Y97600D01*
X714098Y97615D01*
X714225Y97621D01*
X714271Y97635D01*
X714319Y97640D01*
X714438Y97683D01*
X714560Y97718D01*
X714602Y97741D01*
X714647Y97758D01*
X714753Y97826D01*
X714864Y97888D01*
X714910Y97927D01*
X714940Y97947D01*
X714974Y97981D01*
X715050Y98046D01*
X715108Y98105D01*
X717723Y99188D01*
X720552Y99188D01*
X723167Y98105D01*
X725167Y96104D01*
X725412Y95512D01*
X725485Y95381D01*
X725554Y95247D01*
X725570Y95229D01*
X725582Y95208D01*
X725683Y95096D01*
X725780Y94982D01*
X725800Y94968D01*
X725816Y94950D01*
X725940Y94864D01*
X726061Y94775D01*
X726083Y94765D01*
X726103Y94751D01*
X726242Y94696D01*
X726381Y94637D01*
X726404Y94632D01*
X726427Y94624D01*
X726576Y94602D01*
X726724Y94575D01*
X726748Y94576D01*
X726772Y94573D01*
X726922Y94585D01*
X727072Y94593D01*
X727095Y94600D01*
X727119Y94602D01*
X727262Y94648D01*
X727407Y94690D01*
X727428Y94701D01*
X727451Y94709D01*
X727580Y94786D01*
X727711Y94860D01*
X727733Y94879D01*
X727749Y94888D01*
X727779Y94918D01*
X730423Y96013D01*
X733252Y96013D01*
X735867Y94930D01*
X737867Y92929D01*
X738950Y90315D01*
X738950Y87485D01*
X737867Y84871D01*
X727797Y74801D01*
X727735Y74722D01*
X727665Y74650D01*
X727627Y74586D01*
X727580Y74528D01*
X727537Y74437D01*
X727486Y74351D01*
X727463Y74280D01*
X727431Y74212D01*
X727410Y74114D01*
X727380Y74019D01*
X727374Y73944D01*
X727358Y73872D01*
X727360Y73771D01*
X727352Y73671D01*
X727363Y73598D01*
X727364Y73523D01*
X727389Y73426D01*
X727403Y73327D01*
X727431Y73258D01*
X727449Y73185D01*
X727495Y73096D01*
X727532Y73003D01*
X727575Y72942D01*
X727609Y72876D01*
X727674Y72799D01*
X727731Y72717D01*
X727786Y72667D01*
X727835Y72610D01*
X727915Y72550D01*
X727990Y72483D01*
X728055Y72447D01*
X728115Y72403D01*
X728207Y72363D01*
X728295Y72315D01*
X728367Y72294D01*
X728435Y72265D01*
X728534Y72247D01*
X728630Y72220D01*
X728730Y72212D01*
X728778Y72203D01*
X728814Y72205D01*
X728874Y72200D01*
X742548Y72200D01*
X742673Y72215D01*
X742800Y72221D01*
X742846Y72235D01*
X742894Y72240D01*
X743013Y72283D01*
X743135Y72318D01*
X743177Y72341D01*
X743222Y72358D01*
X743328Y72426D01*
X743439Y72488D01*
X743485Y72527D01*
X743515Y72547D01*
X743549Y72581D01*
X743625Y72646D01*
X754796Y83817D01*
X757410Y84900D01*
X760240Y84900D01*
X762854Y83817D01*
X764855Y81817D01*
X765938Y79202D01*
X765938Y76373D01*
X764855Y73758D01*
X753197Y62101D01*
X753135Y62022D01*
X753065Y61950D01*
X753027Y61886D01*
X752980Y61828D01*
X752937Y61737D01*
X752886Y61651D01*
X752863Y61580D01*
X752831Y61512D01*
X752810Y61414D01*
X752780Y61319D01*
X752774Y61244D01*
X752758Y61172D01*
X752760Y61071D01*
X752752Y60971D01*
X752763Y60898D01*
X752764Y60823D01*
X752789Y60726D01*
X752803Y60627D01*
X752831Y60558D01*
X752849Y60485D01*
X752895Y60396D01*
X752932Y60303D01*
X752975Y60242D01*
X753009Y60176D01*
X753074Y60099D01*
X753131Y60017D01*
X753186Y59967D01*
X753235Y59910D01*
X753315Y59850D01*
X753390Y59783D01*
X753455Y59747D01*
X753515Y59703D01*
X753607Y59663D01*
X753695Y59615D01*
X753767Y59594D01*
X753835Y59565D01*
X753934Y59547D01*
X754030Y59520D01*
X754130Y59512D01*
X754178Y59503D01*
X754214Y59505D01*
X754274Y59500D01*
X796523Y59500D01*
X796648Y59515D01*
G37*
G36*
X812063Y352717D02*
X812063Y352717D01*
X812163Y352722D01*
X812234Y352742D01*
X812308Y352753D01*
X812401Y352791D01*
X812498Y352818D01*
X812563Y352855D01*
X812632Y352882D01*
X812714Y352939D01*
X812802Y352988D01*
X812878Y353054D01*
X812918Y353081D01*
X812942Y353108D01*
X812988Y353147D01*
X850390Y390549D01*
X850468Y390648D01*
X850553Y390741D01*
X850576Y390784D01*
X850606Y390822D01*
X850660Y390936D01*
X850721Y391046D01*
X850735Y391093D01*
X850755Y391137D01*
X850782Y391260D01*
X850816Y391382D01*
X850821Y391443D01*
X850829Y391477D01*
X850828Y391525D01*
X850836Y391626D01*
X850836Y411649D01*
X850833Y411674D01*
X850835Y411699D01*
X850824Y411772D01*
X850823Y411850D01*
X850804Y411922D01*
X850796Y411996D01*
X850786Y412022D01*
X850783Y412044D01*
X850758Y412108D01*
X850738Y412188D01*
X850703Y412254D01*
X850678Y412324D01*
X850661Y412350D01*
X850654Y412367D01*
X850617Y412421D01*
X850578Y412497D01*
X850530Y412554D01*
X850489Y412617D01*
X850465Y412640D01*
X850456Y412654D01*
X850410Y412695D01*
X850352Y412763D01*
X850292Y412807D01*
X850239Y412859D01*
X850207Y412877D01*
X850197Y412887D01*
X850146Y412915D01*
X850072Y412970D01*
X850003Y412999D01*
X849940Y413038D01*
X849903Y413049D01*
X849892Y413056D01*
X849838Y413071D01*
X849752Y413108D01*
X849679Y413121D01*
X849608Y413144D01*
X849568Y413147D01*
X849556Y413150D01*
X849483Y413156D01*
X849409Y413170D01*
X849353Y413167D01*
X849313Y413170D01*
X849310Y413170D01*
X849298Y413169D01*
X849260Y413172D01*
X849161Y413157D01*
X849061Y413152D01*
X849001Y413134D01*
X848964Y413130D01*
X848950Y413125D01*
X848916Y413120D01*
X848822Y413083D01*
X848726Y413055D01*
X848675Y413027D01*
X848636Y413013D01*
X848620Y413003D01*
X848592Y412991D01*
X848509Y412934D01*
X848422Y412885D01*
X848371Y412842D01*
X848343Y412824D01*
X848327Y412807D01*
X848306Y412792D01*
X848282Y412766D01*
X848235Y412726D01*
X810834Y375325D01*
X810755Y375226D01*
X810671Y375132D01*
X810647Y375090D01*
X810617Y375052D01*
X810563Y374938D01*
X810502Y374827D01*
X810489Y374781D01*
X810468Y374737D01*
X810442Y374613D01*
X810407Y374492D01*
X810402Y374431D01*
X810395Y374396D01*
X810396Y374348D01*
X810388Y374248D01*
X810388Y354224D01*
X810399Y354124D01*
X810401Y354024D01*
X810419Y353952D01*
X810428Y353878D01*
X810461Y353783D01*
X810486Y353686D01*
X810520Y353620D01*
X810545Y353550D01*
X810600Y353465D01*
X810646Y353376D01*
X810694Y353319D01*
X810734Y353257D01*
X810806Y353187D01*
X810871Y353111D01*
X810931Y353066D01*
X810985Y353015D01*
X811071Y352963D01*
X811152Y352904D01*
X811220Y352874D01*
X811284Y352836D01*
X811380Y352805D01*
X811472Y352766D01*
X811545Y352752D01*
X811616Y352730D01*
X811716Y352722D01*
X811815Y352704D01*
X811889Y352708D01*
X811963Y352702D01*
X812063Y352717D01*
G37*
G36*
X714263Y326212D02*
X714263Y326212D01*
X714364Y326213D01*
X714436Y326232D01*
X714510Y326240D01*
X714604Y326274D01*
X714702Y326298D01*
X714768Y326333D01*
X714838Y326358D01*
X714922Y326412D01*
X715011Y326458D01*
X715068Y326506D01*
X715131Y326547D01*
X715200Y326619D01*
X715277Y326684D01*
X715321Y326744D01*
X715373Y326797D01*
X715424Y326884D01*
X715484Y326964D01*
X715513Y327033D01*
X715552Y327096D01*
X715582Y327192D01*
X715622Y327284D01*
X715635Y327358D01*
X715658Y327428D01*
X715666Y327528D01*
X715684Y327627D01*
X715680Y327702D01*
X715686Y327776D01*
X715671Y327875D01*
X715666Y327975D01*
X715645Y328047D01*
X715634Y328120D01*
X715597Y328214D01*
X715569Y328310D01*
X715533Y328375D01*
X715505Y328444D01*
X715448Y328527D01*
X715399Y328614D01*
X715334Y328691D01*
X715306Y328730D01*
X715280Y328754D01*
X715241Y328801D01*
X714695Y329346D01*
X713612Y331960D01*
X713612Y334790D01*
X714695Y337404D01*
X716733Y339442D01*
X716749Y339462D01*
X716769Y339479D01*
X716857Y339599D01*
X716949Y339715D01*
X716961Y339738D01*
X716976Y339759D01*
X717035Y339896D01*
X717098Y340030D01*
X717104Y340055D01*
X717114Y340080D01*
X717140Y340226D01*
X717172Y340370D01*
X717171Y340397D01*
X717176Y340423D01*
X717168Y340571D01*
X717166Y340719D01*
X717159Y340744D01*
X717158Y340771D01*
X717117Y340913D01*
X717081Y341057D01*
X717069Y341080D01*
X717061Y341105D01*
X716989Y341235D01*
X716921Y341367D01*
X716904Y341387D01*
X716891Y341410D01*
X716733Y341596D01*
X690751Y367578D01*
X690672Y367640D01*
X690600Y367710D01*
X690536Y367748D01*
X690478Y367795D01*
X690387Y367838D01*
X690301Y367889D01*
X690230Y367912D01*
X690162Y367944D01*
X690064Y367965D01*
X689969Y367995D01*
X689894Y368001D01*
X689822Y368017D01*
X689721Y368015D01*
X689621Y368023D01*
X689548Y368012D01*
X689473Y368011D01*
X689376Y367986D01*
X689277Y367972D01*
X689208Y367944D01*
X689135Y367926D01*
X689046Y367880D01*
X688953Y367843D01*
X688892Y367800D01*
X688826Y367766D01*
X688749Y367701D01*
X688667Y367644D01*
X688617Y367589D01*
X688560Y367540D01*
X688500Y367460D01*
X688433Y367385D01*
X688397Y367320D01*
X688353Y367260D01*
X688313Y367168D01*
X688265Y367080D01*
X688244Y367008D01*
X688215Y366940D01*
X688197Y366841D01*
X688170Y366745D01*
X688162Y366645D01*
X688153Y366597D01*
X688155Y366561D01*
X688150Y366501D01*
X688150Y339898D01*
X687067Y337283D01*
X685067Y335283D01*
X682452Y334200D01*
X679623Y334200D01*
X677485Y335085D01*
X677388Y335113D01*
X677295Y335150D01*
X677221Y335161D01*
X677150Y335181D01*
X677049Y335186D01*
X676950Y335200D01*
X676876Y335194D01*
X676802Y335198D01*
X676703Y335180D01*
X676603Y335172D01*
X676532Y335149D01*
X676459Y335135D01*
X676367Y335095D01*
X676271Y335064D01*
X676207Y335026D01*
X676139Y334996D01*
X676058Y334937D01*
X675972Y334885D01*
X675919Y334833D01*
X675859Y334789D01*
X675795Y334712D01*
X675722Y334642D01*
X675682Y334579D01*
X675634Y334523D01*
X675589Y334433D01*
X675534Y334349D01*
X675509Y334279D01*
X675476Y334212D01*
X675451Y334115D01*
X675418Y334020D01*
X675409Y333946D01*
X675391Y333874D01*
X675390Y333774D01*
X675379Y333674D01*
X675387Y333600D01*
X675386Y333526D01*
X675408Y333428D01*
X675420Y333328D01*
X675450Y333233D01*
X675450Y330373D01*
X674594Y328306D01*
X674553Y328162D01*
X674507Y328019D01*
X674505Y327995D01*
X674499Y327971D01*
X674491Y327821D01*
X674479Y327671D01*
X674483Y327647D01*
X674482Y327623D01*
X674509Y327475D01*
X674531Y327327D01*
X674540Y327304D01*
X674544Y327280D01*
X674604Y327142D01*
X674660Y327003D01*
X674674Y326983D01*
X674683Y326961D01*
X674773Y326840D01*
X674859Y326717D01*
X674877Y326700D01*
X674891Y326681D01*
X675006Y326584D01*
X675117Y326483D01*
X675139Y326471D01*
X675157Y326456D01*
X675291Y326387D01*
X675422Y326315D01*
X675446Y326308D01*
X675467Y326297D01*
X675613Y326261D01*
X675758Y326220D01*
X675787Y326218D01*
X675805Y326213D01*
X675853Y326212D01*
X676002Y326200D01*
X714163Y326200D01*
X714263Y326212D01*
G37*
%LPC*%
G36*
X601660Y364075D02*
X601660Y364075D01*
X599046Y365158D01*
X597045Y367158D01*
X595962Y369773D01*
X595962Y372602D01*
X597045Y375217D01*
X597279Y375450D01*
X597357Y375549D01*
X597442Y375643D01*
X597465Y375685D01*
X597495Y375723D01*
X597549Y375837D01*
X597610Y375948D01*
X597624Y375994D01*
X597644Y376038D01*
X597671Y376162D01*
X597705Y376283D01*
X597710Y376344D01*
X597718Y376379D01*
X597717Y376427D01*
X597725Y376527D01*
X597725Y417340D01*
X598808Y419954D01*
X600808Y421955D01*
X603423Y423038D01*
X606252Y423038D01*
X608867Y421955D01*
X610867Y419954D01*
X611950Y417340D01*
X611950Y374860D01*
X611950Y374858D01*
X611950Y374856D01*
X611971Y374682D01*
X611990Y374514D01*
X611991Y374512D01*
X611991Y374510D01*
X612006Y374462D01*
X612006Y371591D01*
X610924Y368977D01*
X607104Y365158D01*
X604490Y364075D01*
X601660Y364075D01*
G37*
%LPD*%
G36*
X802679Y18663D02*
X802679Y18663D01*
X802805Y18669D01*
X802851Y18683D01*
X802899Y18688D01*
X803018Y18731D01*
X803140Y18766D01*
X803182Y18789D01*
X803227Y18806D01*
X803334Y18874D01*
X803444Y18936D01*
X803490Y18975D01*
X803520Y18995D01*
X803554Y19029D01*
X803630Y19094D01*
X810722Y26186D01*
X810753Y26225D01*
X810791Y26260D01*
X810861Y26362D01*
X810938Y26459D01*
X810960Y26505D01*
X810989Y26546D01*
X811034Y26662D01*
X811087Y26774D01*
X811098Y26823D01*
X811116Y26871D01*
X811160Y27111D01*
X811863Y34135D01*
X816663Y51407D01*
X819637Y57683D01*
X819666Y57766D01*
X819703Y57846D01*
X819722Y57931D01*
X819749Y58013D01*
X819758Y58101D01*
X819777Y58187D01*
X819775Y58273D01*
X819784Y58360D01*
X819772Y58447D01*
X819771Y58535D01*
X819750Y58619D01*
X819738Y58705D01*
X819707Y58788D01*
X819686Y58873D01*
X819646Y58950D01*
X819616Y59031D01*
X819567Y59104D01*
X819526Y59183D01*
X819470Y59249D01*
X819422Y59321D01*
X819357Y59381D01*
X819300Y59448D01*
X819231Y59500D01*
X819167Y59559D01*
X819091Y59603D01*
X819020Y59656D01*
X818940Y59690D01*
X818865Y59733D01*
X818781Y59759D01*
X818700Y59794D01*
X818615Y59809D01*
X818532Y59834D01*
X818444Y59840D01*
X818357Y59855D01*
X818270Y59851D01*
X818184Y59856D01*
X818097Y59842D01*
X818009Y59837D01*
X817926Y59813D01*
X817840Y59799D01*
X817759Y59765D01*
X817674Y59741D01*
X817599Y59699D01*
X817519Y59665D01*
X817447Y59614D01*
X817370Y59571D01*
X817276Y59491D01*
X817236Y59462D01*
X817217Y59441D01*
X817184Y59412D01*
X806344Y48573D01*
X804129Y46358D01*
X801515Y45275D01*
X788321Y45275D01*
X788222Y45263D01*
X788121Y45262D01*
X788049Y45243D01*
X787975Y45235D01*
X787881Y45201D01*
X787783Y45177D01*
X787717Y45142D01*
X787647Y45117D01*
X787563Y45063D01*
X787473Y45017D01*
X787417Y44969D01*
X787354Y44928D01*
X787284Y44856D01*
X787208Y44791D01*
X787164Y44731D01*
X787112Y44678D01*
X787060Y44592D01*
X787001Y44511D01*
X786971Y44442D01*
X786933Y44379D01*
X786903Y44283D01*
X786863Y44191D01*
X786850Y44117D01*
X786827Y44047D01*
X786819Y43947D01*
X786801Y43848D01*
X786805Y43773D01*
X786799Y43699D01*
X786814Y43600D01*
X786819Y43500D01*
X786840Y43428D01*
X786851Y43355D01*
X786888Y43261D01*
X786916Y43165D01*
X786952Y43100D01*
X786979Y43031D01*
X787037Y42948D01*
X787086Y42861D01*
X787151Y42784D01*
X787178Y42745D01*
X787205Y42721D01*
X787244Y42674D01*
X787465Y42454D01*
X787799Y41875D01*
X787972Y41229D01*
X787972Y34289D01*
X777304Y34289D01*
X777278Y34286D01*
X777251Y34288D01*
X777105Y34266D01*
X776957Y34249D01*
X776933Y34241D01*
X776907Y34237D01*
X776769Y34182D01*
X776629Y34132D01*
X776607Y34118D01*
X776583Y34108D01*
X776461Y34023D01*
X776337Y33943D01*
X776318Y33924D01*
X776297Y33909D01*
X776198Y33799D01*
X776094Y33692D01*
X776081Y33670D01*
X776063Y33650D01*
X775991Y33520D01*
X775916Y33393D01*
X775908Y33368D01*
X775895Y33345D01*
X775854Y33202D01*
X775809Y33061D01*
X775807Y33035D01*
X775800Y33010D01*
X775780Y32766D01*
X775780Y30734D01*
X775783Y30708D01*
X775781Y30682D01*
X775803Y30535D01*
X775820Y30388D01*
X775829Y30363D01*
X775833Y30337D01*
X775888Y30199D01*
X775938Y30060D01*
X775952Y30038D01*
X775962Y30013D01*
X776046Y29892D01*
X776127Y29767D01*
X776146Y29749D01*
X776161Y29727D01*
X776271Y29628D01*
X776377Y29525D01*
X776400Y29511D01*
X776419Y29494D01*
X776549Y29422D01*
X776677Y29346D01*
X776702Y29338D01*
X776725Y29325D01*
X776867Y29285D01*
X777009Y29240D01*
X777035Y29237D01*
X777060Y29230D01*
X777304Y29211D01*
X787972Y29211D01*
X787972Y22271D01*
X787799Y21625D01*
X787399Y20933D01*
X787369Y20864D01*
X787330Y20799D01*
X787300Y20704D01*
X787261Y20613D01*
X787247Y20539D01*
X787224Y20467D01*
X787216Y20368D01*
X787199Y20270D01*
X787202Y20195D01*
X787196Y20119D01*
X787211Y20021D01*
X787216Y19922D01*
X787237Y19850D01*
X787248Y19775D01*
X787285Y19683D01*
X787312Y19587D01*
X787349Y19521D01*
X787377Y19451D01*
X787433Y19369D01*
X787481Y19283D01*
X787532Y19227D01*
X787576Y19165D01*
X787649Y19098D01*
X787716Y19025D01*
X787778Y18982D01*
X787834Y18931D01*
X787921Y18883D01*
X788003Y18827D01*
X788073Y18799D01*
X788139Y18763D01*
X788235Y18736D01*
X788327Y18699D01*
X788402Y18688D01*
X788475Y18668D01*
X788625Y18656D01*
X788672Y18649D01*
X788690Y18651D01*
X788719Y18648D01*
X802553Y18648D01*
X802679Y18663D01*
G37*
%LPC*%
G36*
X458050Y27639D02*
X458050Y27639D01*
X456264Y29425D01*
X456264Y34125D01*
X456245Y34289D01*
X456228Y34453D01*
X456225Y34462D01*
X456224Y34472D01*
X456168Y34628D01*
X456115Y34782D01*
X456110Y34791D01*
X456106Y34800D01*
X456017Y34938D01*
X455929Y35078D01*
X455923Y35084D01*
X455917Y35093D01*
X455798Y35207D01*
X455682Y35323D01*
X455674Y35328D01*
X455667Y35335D01*
X455525Y35419D01*
X455385Y35506D01*
X455376Y35509D01*
X455368Y35514D01*
X455212Y35563D01*
X455055Y35616D01*
X455045Y35617D01*
X455036Y35620D01*
X454873Y35633D01*
X454708Y35648D01*
X454698Y35647D01*
X454688Y35648D01*
X454526Y35623D01*
X454362Y35601D01*
X454353Y35598D01*
X454344Y35596D01*
X454190Y35535D01*
X454037Y35476D01*
X454029Y35471D01*
X454020Y35467D01*
X453885Y35374D01*
X453748Y35281D01*
X453742Y35274D01*
X453734Y35268D01*
X453623Y35146D01*
X453511Y35025D01*
X453505Y35016D01*
X453500Y35010D01*
X453485Y34983D01*
X453383Y34817D01*
X452783Y33639D01*
X451715Y32169D01*
X450431Y30885D01*
X448961Y29817D01*
X447343Y28992D01*
X445615Y28431D01*
X445412Y28399D01*
X445412Y38711D01*
X445409Y38737D01*
X445411Y38764D01*
X445389Y38910D01*
X445372Y39058D01*
X445363Y39082D01*
X445359Y39108D01*
X445304Y39246D01*
X445254Y39386D01*
X445240Y39408D01*
X445230Y39432D01*
X445146Y39554D01*
X445065Y39678D01*
X445053Y39691D01*
X445098Y39737D01*
X445111Y39760D01*
X445129Y39779D01*
X445201Y39909D01*
X445277Y40037D01*
X445285Y40062D01*
X445297Y40085D01*
X445338Y40227D01*
X445383Y40369D01*
X445385Y40395D01*
X445392Y40420D01*
X445412Y40664D01*
X445412Y50976D01*
X445615Y50944D01*
X447343Y50383D01*
X448961Y49558D01*
X450431Y48490D01*
X451715Y47206D01*
X452783Y45736D01*
X453383Y44558D01*
X453474Y44421D01*
X453564Y44282D01*
X453571Y44276D01*
X453576Y44268D01*
X453696Y44155D01*
X453814Y44040D01*
X453823Y44035D01*
X453830Y44029D01*
X453972Y43946D01*
X454113Y43861D01*
X454123Y43858D01*
X454131Y43854D01*
X454288Y43806D01*
X454445Y43755D01*
X454455Y43754D01*
X454464Y43752D01*
X454628Y43740D01*
X454793Y43727D01*
X454802Y43729D01*
X454812Y43728D01*
X454974Y43754D01*
X455137Y43779D01*
X455146Y43782D01*
X455156Y43784D01*
X455309Y43847D01*
X455461Y43908D01*
X455469Y43913D01*
X455478Y43917D01*
X455614Y44013D01*
X455747Y44107D01*
X455754Y44114D01*
X455762Y44119D01*
X455872Y44244D01*
X455981Y44365D01*
X455986Y44374D01*
X455992Y44381D01*
X456070Y44526D01*
X456149Y44670D01*
X456152Y44680D01*
X456157Y44688D01*
X456199Y44846D01*
X456244Y45006D01*
X456245Y45017D01*
X456247Y45025D01*
X456248Y45055D01*
X456264Y45250D01*
X456264Y49950D01*
X458050Y51736D01*
X478575Y51736D01*
X480361Y49950D01*
X480361Y29425D01*
X478575Y27639D01*
X458050Y27639D01*
G37*
%LPD*%
%LPC*%
G36*
X254952Y567753D02*
X254952Y567753D01*
X254952Y576898D01*
X275273Y576898D01*
X275273Y567753D01*
X272973Y567753D01*
X266698Y574028D01*
X266619Y574090D01*
X266547Y574160D01*
X266483Y574198D01*
X266425Y574244D01*
X266334Y574287D01*
X266248Y574339D01*
X266177Y574361D01*
X266109Y574393D01*
X266011Y574414D01*
X265916Y574445D01*
X265841Y574451D01*
X265769Y574467D01*
X265668Y574465D01*
X265568Y574473D01*
X265495Y574462D01*
X265420Y574461D01*
X265323Y574436D01*
X265224Y574421D01*
X265155Y574394D01*
X265082Y574376D01*
X264993Y574330D01*
X264900Y574293D01*
X264839Y574250D01*
X264773Y574216D01*
X264696Y574151D01*
X264614Y574094D01*
X264564Y574038D01*
X264507Y573990D01*
X264447Y573909D01*
X264380Y573835D01*
X264344Y573770D01*
X264300Y573710D01*
X264260Y573618D01*
X264212Y573530D01*
X264191Y573458D01*
X264162Y573390D01*
X264144Y573291D01*
X264117Y573194D01*
X264109Y573094D01*
X264100Y573047D01*
X264102Y573011D01*
X264097Y572951D01*
X264097Y569959D01*
X263924Y569313D01*
X263590Y568733D01*
X263117Y568260D01*
X262537Y567926D01*
X261891Y567753D01*
X254952Y567753D01*
G37*
%LPD*%
%LPC*%
G36*
X367664Y166052D02*
X367664Y166052D01*
X367664Y175197D01*
X375189Y175197D01*
X377005Y174910D01*
X378754Y174341D01*
X380393Y173506D01*
X381881Y172425D01*
X383182Y171125D01*
X384263Y169637D01*
X385098Y167998D01*
X385666Y166249D01*
X385697Y166052D01*
X367664Y166052D01*
G37*
%LPD*%
%LPC*%
G36*
X344553Y166052D02*
X344553Y166052D01*
X344584Y166249D01*
X345152Y167998D01*
X345987Y169637D01*
X347068Y171125D01*
X348369Y172425D01*
X349857Y173506D01*
X351496Y174341D01*
X353245Y174910D01*
X355061Y175197D01*
X362586Y175197D01*
X362586Y166052D01*
X344553Y166052D01*
G37*
%LPD*%
%LPC*%
G36*
X691474Y573999D02*
X691474Y573999D01*
X691474Y583693D01*
X698962Y583693D01*
X699608Y583520D01*
X700187Y583185D01*
X700660Y582712D01*
X700995Y582133D01*
X701168Y581487D01*
X701168Y573999D01*
X691474Y573999D01*
G37*
%LPD*%
%LPC*%
G36*
X691474Y559307D02*
X691474Y559307D01*
X691474Y569001D01*
X701168Y569001D01*
X701168Y561513D01*
X700995Y560867D01*
X700660Y560288D01*
X700187Y559815D01*
X699608Y559480D01*
X698962Y559307D01*
X691474Y559307D01*
G37*
%LPD*%
%LPC*%
G36*
X242934Y567753D02*
X242934Y567753D01*
X242288Y567926D01*
X241708Y568260D01*
X241235Y568733D01*
X240901Y569313D01*
X240728Y569959D01*
X240728Y576898D01*
X249873Y576898D01*
X249873Y567753D01*
X242934Y567753D01*
G37*
%LPD*%
D10*
X355981Y163513D02*
X374269Y163513D01*
X374269Y138113D02*
X355981Y138113D01*
X355981Y112713D02*
X374269Y112713D01*
D11*
X468313Y39688D03*
D12*
X442913Y39688D03*
X417513Y39688D03*
X392113Y39688D03*
D13*
X314325Y362903D03*
X314325Y347663D03*
X314325Y332423D03*
D14*
X252413Y579438D03*
D15*
X277813Y579438D03*
X303213Y579438D03*
X328613Y579438D03*
X354013Y579438D03*
X379413Y579438D03*
D14*
X900113Y473075D03*
D16*
X900113Y447675D03*
X900113Y422275D03*
X900113Y396875D03*
X900113Y371475D03*
X900113Y346075D03*
D14*
X776288Y31750D03*
D17*
X750888Y31750D03*
X725488Y31750D03*
X700088Y31750D03*
X674688Y31750D03*
X649288Y31750D03*
D18*
X688975Y571500D03*
D19*
X638175Y571500D03*
X612775Y571500D03*
X587375Y571500D03*
X561975Y571500D03*
X663575Y571500D03*
X536575Y571500D03*
D20*
X782638Y536575D03*
D21*
X688975Y571500D01*
D20*
X785813Y455613D03*
X828675Y425450D03*
X842963Y404813D03*
X815975Y428625D03*
X704850Y255588D03*
X735013Y288925D03*
X754063Y163513D03*
X787400Y68263D03*
X584200Y28575D03*
X625475Y28575D03*
X663575Y344488D03*
X693738Y344488D03*
X750888Y398463D03*
X519113Y28575D03*
X363538Y26988D03*
X311150Y26988D03*
X241300Y26988D03*
X239713Y79375D03*
X241300Y133350D03*
X241300Y188913D03*
X241300Y242888D03*
X241300Y295275D03*
X238125Y376238D03*
X238125Y434975D03*
X238125Y490538D03*
X311150Y488950D03*
X428625Y487363D03*
X412750Y528638D03*
X312738Y527050D03*
X457200Y425450D03*
X347663Y409575D03*
X292100Y295275D03*
X398463Y279400D03*
X454025Y282575D03*
X447675Y307975D03*
X368300Y322263D03*
X501650Y379413D03*
X522288Y422275D03*
X585788Y420688D03*
X560388Y447675D03*
X550863Y279400D03*
X625475Y280988D03*
X549275Y201613D03*
X549275Y165100D03*
X598488Y165100D03*
X669925Y166688D03*
X677863Y280988D03*
X781050Y185738D03*
X830263Y155575D03*
X823913Y93663D03*
X717550Y103188D03*
X741363Y125413D03*
X795338Y254000D03*
X796925Y206375D03*
X449263Y581025D03*
X506413Y581025D03*
X457200Y136525D03*
X488950Y53975D03*
X569913Y554038D03*
X606425Y552450D03*
X657225Y503238D03*
X715963Y446088D03*
X760413Y488950D03*
X508000Y547688D03*
X573088Y520700D03*
X615950Y506413D03*
D22*
X892175Y422275D02*
X900113Y422275D01*
X892175Y422275D02*
X815975Y346075D01*
D20*
X812800Y174625D03*
D22*
X815975Y177800D02*
X815975Y346075D01*
X815975Y177800D02*
X812800Y174625D01*
X419100Y77788D02*
X392113Y50800D01*
X392113Y39688D01*
D20*
X731838Y88900D03*
D22*
X720725Y77788D01*
X419100Y77788D01*
X890588Y396875D02*
X900113Y396875D01*
X890588Y396875D02*
X828675Y334963D01*
X828675Y171450D01*
X820738Y163513D01*
D20*
X820738Y163513D03*
X758825Y77788D03*
D22*
X433388Y65088D02*
X417513Y49213D01*
X417513Y39688D01*
X746125Y65088D02*
X758825Y77788D01*
X746125Y65088D02*
X433388Y65088D01*
D20*
X809625Y114300D03*
D22*
X809625Y131763D01*
X798513Y142875D01*
X798513Y180975D01*
X803275Y185738D01*
D20*
X803275Y185738D03*
X290513Y363538D03*
D22*
X291148Y362903D01*
X314325Y362903D01*
D20*
X474663Y128588D03*
D22*
X746125Y144463D02*
X746125Y152400D01*
X746125Y144463D02*
X728663Y127000D01*
X476250Y127000D02*
X474663Y128588D01*
X476250Y127000D02*
X728663Y127000D01*
D20*
X746125Y152400D03*
X487363Y114300D03*
X822325Y120650D03*
D22*
X822325Y109538D01*
X812800Y100013D01*
X803275Y100013D01*
X788988Y114300D01*
X487363Y114300D01*
D20*
X512763Y152400D03*
D22*
X711200Y152400D01*
X720725Y161925D01*
D20*
X720725Y161925D03*
X525463Y314325D03*
X693738Y306388D03*
D22*
X533400Y306388D02*
X525463Y314325D01*
X533400Y306388D02*
X693738Y306388D01*
D20*
X501650Y139700D03*
D22*
X720725Y139700D01*
X733425Y152400D01*
D20*
X733425Y152400D03*
X719138Y92075D03*
D22*
X717550Y90488D01*
X447675Y90488D01*
X400050Y138113D02*
X365125Y138113D01*
X400050Y138113D02*
X447675Y90488D01*
X862013Y346075D02*
X900113Y346075D01*
X842963Y327025D02*
X842963Y95250D01*
X800100Y52388D01*
X746125Y52388D01*
X725488Y31750D01*
X842963Y327025D02*
X862013Y346075D01*
X704850Y52388D02*
X725488Y31750D01*
D20*
X617538Y52388D03*
D22*
X704850Y52388D01*
D20*
X371475Y382588D03*
D21*
X344488Y382588D01*
D20*
X504758Y398395D03*
D21*
X504825Y398463D01*
X534988Y398463D01*
X387350Y398463D02*
X371475Y382588D01*
X387350Y398463D02*
X504825Y398463D01*
D20*
X363538Y382588D03*
X355600Y382588D03*
X347663Y382588D03*
X512695Y398395D03*
X520633Y398395D03*
X528570Y398395D03*
X536508Y398395D03*
X857250Y431800D03*
X790575Y271463D03*
D22*
X803275Y284163D01*
X803275Y377825D02*
X857250Y431800D01*
X803275Y377825D02*
X803275Y284163D01*
D20*
X668338Y331788D03*
D22*
X546100Y331788D01*
X344488Y360363D02*
X301625Y403225D01*
D20*
X301625Y403225D03*
D22*
X517525Y360363D02*
X546100Y331788D01*
X517525Y360363D02*
X344488Y360363D01*
X538163Y569913D02*
X536575Y571500D01*
D20*
X720725Y333375D03*
D22*
X725488Y333375D01*
X733425Y341313D01*
X733425Y354013D01*
X600075Y487363D01*
X558800Y487363D01*
X538163Y508000D01*
X538163Y569913D01*
X663575Y571500D02*
X663575Y558800D01*
X790575Y431800D01*
D20*
X749300Y188913D03*
D22*
X790575Y292100D02*
X790575Y431800D01*
X749300Y250825D02*
X749300Y188913D01*
X749300Y250825D02*
X790575Y292100D01*
X638175Y565150D02*
X638175Y571500D01*
X638175Y565150D02*
X776288Y427038D01*
D20*
X715963Y176213D03*
D22*
X776288Y298450D02*
X776288Y427038D01*
X715963Y238125D02*
X715963Y176213D01*
X715963Y238125D02*
X776288Y298450D01*
X612775Y568325D02*
X612775Y571500D01*
X612775Y568325D02*
X762000Y419100D01*
D20*
X685800Y265113D03*
D22*
X693738Y273050D01*
X731838Y273050D01*
X762000Y303213D01*
X762000Y419100D01*
D20*
X565150Y508000D03*
D22*
X600075Y508000D01*
D20*
X750888Y357188D03*
D22*
X600075Y508000D01*
X328613Y568325D02*
X328613Y579438D01*
X328613Y568325D02*
X341313Y555625D01*
X530225Y473075D02*
X595313Y473075D01*
X720725Y347663D01*
D20*
X720725Y347663D03*
D22*
X447675Y555625D02*
X341313Y555625D01*
X447675Y555625D02*
X530225Y473075D01*
X323850Y542925D02*
X303213Y563563D01*
X303213Y579438D01*
D20*
X681038Y341313D03*
D22*
X681038Y366713D01*
X587375Y460375D02*
X525463Y460375D01*
X442913Y542925D01*
X323850Y542925D01*
X587375Y460375D02*
X681038Y366713D01*
D20*
X731838Y304800D03*
D22*
X720725Y293688D01*
X319088Y293688D02*
X290513Y322263D01*
D20*
X290513Y322263D03*
D22*
X319088Y293688D02*
X720725Y293688D01*
D20*
X293688Y342900D03*
D22*
X293688Y341948D01*
X303213Y332423D01*
X314325Y332423D01*
X314325Y347663D02*
X511175Y347663D01*
X738188Y319088D02*
X746125Y311150D01*
X746125Y307975D01*
D20*
X746125Y307975D03*
D22*
X539750Y319088D02*
X511175Y347663D01*
X539750Y319088D02*
X738188Y319088D01*
D20*
X604838Y415925D03*
D22*
X604838Y373063D01*
X604894Y373006D02*
X603075Y371188D01*
X604894Y373006D02*
X604838Y373063D01*
D20*
X603075Y371188D03*
M02*
