M48
;GenerationSoftware,Autodesk,EAGLE,9.6.2*%
;CreationDate,2026-04-11T13:23:09Z*%
FMAT,2
ICI,OFF
METRIC,TZ,000.000
T4C0.350
T3C1.000
T2C1.016
%
G90
M71
T2
X77629Y3175
X25241Y57944
X27781Y57944
X30321Y57944
X32861Y57944
X35401Y57944
X37941Y57944
X90011Y47307
X90011Y44767
X90011Y42228
X90011Y39688
X90011Y37148
X90011Y34608
X75089Y3175
X72549Y3175
X70009Y3175
X67469Y3175
X64929Y3175
X36513Y11271
X36513Y13811
X36513Y16351
T3
X53657Y57150
X39211Y3969
X41751Y3969
X44291Y3969
X46831Y3969
X63817Y57150
X61277Y57150
X58737Y57150
X56197Y57150
X66358Y57150
X68898Y57150
T4
X52063Y39840
X51269Y39840
X34766Y38259
X35560Y38259
X36354Y38259
X50476Y39840
X37148Y38259
X61754Y5239
X71914Y9208
X73343Y15240
X50165Y13970
X69374Y30639
X52546Y31432
X72073Y16192
X51276Y15240
X82233Y12065
X48736Y11430
X74613Y15240
X47466Y12859
X80328Y18574
X29051Y36354
X56515Y50800
X60307Y37119
X60484Y41593
X74613Y30797
X29369Y34290
X29051Y32226
X73184Y30480
X68104Y34131
X72073Y34766
X75089Y35719
X52857Y39840
X68580Y26511
X71596Y17621
X74930Y18891
X72073Y33338
X30162Y40323
X66834Y33179
X79058Y27146
X85725Y43180
X53651Y39840
X42863Y48736
X24130Y13335
X24130Y18891
X24130Y24289
X24130Y29527
X23812Y37624
X23812Y43498
X23812Y49054
X31115Y48895
X23971Y7937
X41275Y52864
X31274Y52705
X45720Y42545
X34766Y40958
X29210Y29527
X39846Y27940
X45402Y28257
X44767Y30797
X58420Y2857
X78581Y45561
X82868Y42545
X84296Y40481
X81598Y42863
X70485Y25559
X73501Y28892
X75406Y16351
X78740Y6826
X36830Y32226
X62547Y2857
X66358Y34449
X69374Y34449
X75089Y39846
X51911Y2857
X36354Y2699
X31115Y2699
X24130Y2699
X76041Y48895
X44926Y58102
X50641Y58102
X45720Y13652
X48895Y5398
X56991Y55404
X60642Y55245
X65723Y50324
X71596Y44609
X79693Y20638
X50800Y54769
X57309Y52070
X61595Y50641
X81280Y17463
X73184Y8890
X82074Y16351
X75883Y7779
X80963Y11430
X59849Y16510
X50165Y37941
X52229Y42228
X58579Y42069
X56039Y44767
X55086Y27940
X62547Y28099
X54927Y20161
X54927Y16510
X78264Y53657
X66993Y16669
X67786Y28099
X78105Y18574
X83026Y15557
X82391Y9366
X71755Y10319
X74136Y12541
X79534Y25400
M30