G04 This is an RS-274x file exported by *
G04 gerbv version 2.7.0 *
G04 More information is available about gerbv at *
G04 http://gerbv.geda-project.org/ *
G04 --End of header info--*
%MOIN*%
%FSLAX36Y36*%
%IPPOS*%
%INSilkscreen Bottom*%
G04 --Define apertures--*
%ADD10C,0.0030*%
%ADD11C,0.0040*%
%ADD12C,0.0060*%
%ADD13C,0.0050*%
%ADD14R,0.0600X0.0400*%
G04 --Start main section--*
G54D10*
G01X1618472Y0634610D02*
G01X1613638Y0634610D01*
G01X1613638Y0634610D02*
G01X1613638Y0618500D01*
G01X1613638Y0618500D02*
G01X1623307Y0618500D01*
G01X1623307Y0618500D02*
G01X1623614Y0618508D01*
G01X1623614Y0618508D02*
G01X1623921Y0618528D01*
G01X1623921Y0618528D02*
G01X1624224Y0618567D01*
G01X1624224Y0618567D02*
G01X1624528Y0618618D01*
G01X1624528Y0618618D02*
G01X1624827Y0618681D01*
G01X1624827Y0618681D02*
G01X1625122Y0618760D01*
G01X1625122Y0618760D02*
G01X1625413Y0618854D01*
G01X1625413Y0618854D02*
G01X1625701Y0618961D01*
G01X1625701Y0618961D02*
G01X1625984Y0619083D01*
G01X1625984Y0619083D02*
G01X1626260Y0619217D01*
G01X1626260Y0619217D02*
G01X1626531Y0619362D01*
G01X1626531Y0619362D02*
G01X1626791Y0619524D01*
G01X1626791Y0619524D02*
G01X1627047Y0619697D01*
G01X1627047Y0619697D02*
G01X1627291Y0619878D01*
G01X1627291Y0619878D02*
G01X1627528Y0620075D01*
G01X1627528Y0620075D02*
G01X1627756Y0620280D01*
G01X1627756Y0620280D02*
G01X1627972Y0620496D01*
G01X1627972Y0620496D02*
G01X1628177Y0620724D01*
G01X1628177Y0620724D02*
G01X1628374Y0620961D01*
G01X1628374Y0620961D02*
G01X1628555Y0621205D01*
G01X1628555Y0621205D02*
G01X1628728Y0621461D01*
G01X1628728Y0621461D02*
G01X1628890Y0621724D01*
G01X1628890Y0621724D02*
G01X1629035Y0621992D01*
G01X1629035Y0621992D02*
G01X1629169Y0622268D01*
G01X1629169Y0622268D02*
G01X1629291Y0622551D01*
G01X1629291Y0622551D02*
G01X1629398Y0622839D01*
G01X1629398Y0622839D02*
G01X1629492Y0623130D01*
G01X1629492Y0623130D02*
G01X1629571Y0623425D01*
G01X1629571Y0623425D02*
G01X1629634Y0623724D01*
G01X1629634Y0623724D02*
G01X1629685Y0624028D01*
G01X1629685Y0624028D02*
G01X1629724Y0624331D01*
G01X1629724Y0624331D02*
G01X1629744Y0624638D01*
G01X1629744Y0624638D02*
G01X1629752Y0624945D01*
G01X1629752Y0624945D02*
G01X1629752Y0641055D01*
G01X1629752Y0641055D02*
G01X1629744Y0641362D01*
G01X1629744Y0641362D02*
G01X1629724Y0641669D01*
G01X1629724Y0641669D02*
G01X1629685Y0641972D01*
G01X1629685Y0641972D02*
G01X1629634Y0642276D01*
G01X1629634Y0642276D02*
G01X1629571Y0642575D01*
G01X1629571Y0642575D02*
G01X1629492Y0642870D01*
G01X1629492Y0642870D02*
G01X1629398Y0643161D01*
G01X1629398Y0643161D02*
G01X1629291Y0643449D01*
G01X1629291Y0643449D02*
G01X1629169Y0643732D01*
G01X1629169Y0643732D02*
G01X1629035Y0644008D01*
G01X1629035Y0644008D02*
G01X1628890Y0644280D01*
G01X1628890Y0644280D02*
G01X1628728Y0644539D01*
G01X1628728Y0644539D02*
G01X1628555Y0644795D01*
G01X1628555Y0644795D02*
G01X1628374Y0645039D01*
G01X1628374Y0645039D02*
G01X1628177Y0645276D01*
G01X1628177Y0645276D02*
G01X1627972Y0645504D01*
G01X1627972Y0645504D02*
G01X1627756Y0645720D01*
G01X1627756Y0645720D02*
G01X1627528Y0645925D01*
G01X1627528Y0645925D02*
G01X1627291Y0646122D01*
G01X1627291Y0646122D02*
G01X1627047Y0646303D01*
G01X1627047Y0646303D02*
G01X1626791Y0646476D01*
G01X1626791Y0646476D02*
G01X1626531Y0646638D01*
G01X1626531Y0646638D02*
G01X1626260Y0646783D01*
G01X1626260Y0646783D02*
G01X1625984Y0646917D01*
G01X1625984Y0646917D02*
G01X1625701Y0647039D01*
G01X1625701Y0647039D02*
G01X1625413Y0647146D01*
G01X1625413Y0647146D02*
G01X1625122Y0647240D01*
G01X1625122Y0647240D02*
G01X1624827Y0647319D01*
G01X1624827Y0647319D02*
G01X1624528Y0647382D01*
G01X1624528Y0647382D02*
G01X1624224Y0647433D01*
G01X1624224Y0647433D02*
G01X1623921Y0647472D01*
G01X1623921Y0647472D02*
G01X1623614Y0647492D01*
G01X1623614Y0647492D02*
G01X1623307Y0647500D01*
G01X1623307Y0647500D02*
G01X1613638Y0647500D01*
G01X1599031Y0647500D02*
G01X1599031Y0618500D01*
G01X1582917Y0618500D02*
G01X1599031Y0647500D01*
G01X1582917Y0647500D02*
G01X1582917Y0618500D01*
G01X1568311Y0618500D02*
G01X1568311Y0647500D01*
G01X1568311Y0647500D02*
G01X1560256Y0647500D01*
G01X1560256Y0647500D02*
G01X1559906Y0647492D01*
G01X1559906Y0647492D02*
G01X1559555Y0647469D01*
G01X1559555Y0647469D02*
G01X1559205Y0647429D01*
G01X1559205Y0647429D02*
G01X1558858Y0647378D01*
G01X1558858Y0647378D02*
G01X1558512Y0647311D01*
G01X1558512Y0647311D02*
G01X1558169Y0647224D01*
G01X1558169Y0647224D02*
G01X1557835Y0647126D01*
G01X1557835Y0647126D02*
G01X1557500Y0647016D01*
G01X1557500Y0647016D02*
G01X1557173Y0646886D01*
G01X1557173Y0646886D02*
G01X1556850Y0646744D01*
G01X1556850Y0646744D02*
G01X1556535Y0646591D01*
G01X1556535Y0646591D02*
G01X1556228Y0646421D01*
G01X1556228Y0646421D02*
G01X1555929Y0646240D01*
G01X1555929Y0646240D02*
G01X1555634Y0646043D01*
G01X1555634Y0646043D02*
G01X1555350Y0645835D01*
G01X1555350Y0645835D02*
G01X1555079Y0645614D01*
G01X1555079Y0645614D02*
G01X1554815Y0645382D01*
G01X1554815Y0645382D02*
G01X1554559Y0645142D01*
G01X1554559Y0645142D02*
G01X1554319Y0644886D01*
G01X1554319Y0644886D02*
G01X1554087Y0644622D01*
G01X1554087Y0644622D02*
G01X1553866Y0644350D01*
G01X1553866Y0644350D02*
G01X1553657Y0644067D01*
G01X1553657Y0644067D02*
G01X1553461Y0643772D01*
G01X1553461Y0643772D02*
G01X1553280Y0643472D01*
G01X1553280Y0643472D02*
G01X1553110Y0643165D01*
G01X1553110Y0643165D02*
G01X1552957Y0642850D01*
G01X1552957Y0642850D02*
G01X1552815Y0642528D01*
G01X1552815Y0642528D02*
G01X1552685Y0642201D01*
G01X1552685Y0642201D02*
G01X1552575Y0641866D01*
G01X1552575Y0641866D02*
G01X1552476Y0641531D01*
G01X1552476Y0641531D02*
G01X1552390Y0641189D01*
G01X1552390Y0641189D02*
G01X1552323Y0640843D01*
G01X1552323Y0640843D02*
G01X1552272Y0640496D01*
G01X1552272Y0640496D02*
G01X1552232Y0640146D01*
G01X1552232Y0640146D02*
G01X1552209Y0639795D01*
G01X1552209Y0639795D02*
G01X1552201Y0639445D01*
G01X1552201Y0639445D02*
G01X1552201Y0626555D01*
G01X1552201Y0626555D02*
G01X1552209Y0626205D01*
G01X1552209Y0626205D02*
G01X1552232Y0625854D01*
G01X1552232Y0625854D02*
G01X1552272Y0625504D01*
G01X1552272Y0625504D02*
G01X1552323Y0625157D01*
G01X1552323Y0625157D02*
G01X1552390Y0624811D01*
G01X1552390Y0624811D02*
G01X1552476Y0624469D01*
G01X1552476Y0624469D02*
G01X1552575Y0624134D01*
G01X1552575Y0624134D02*
G01X1552685Y0623799D01*
G01X1552685Y0623799D02*
G01X1552815Y0623472D01*
G01X1552815Y0623472D02*
G01X1552957Y0623150D01*
G01X1552957Y0623150D02*
G01X1553110Y0622835D01*
G01X1553110Y0622835D02*
G01X1553280Y0622528D01*
G01X1553280Y0622528D02*
G01X1553461Y0622228D01*
G01X1553461Y0622228D02*
G01X1553657Y0621933D01*
G01X1553657Y0621933D02*
G01X1553866Y0621650D01*
G01X1553866Y0621650D02*
G01X1554087Y0621378D01*
G01X1554087Y0621378D02*
G01X1554319Y0621114D01*
G01X1554319Y0621114D02*
G01X1554559Y0620858D01*
G01X1554559Y0620858D02*
G01X1554815Y0620618D01*
G01X1554815Y0620618D02*
G01X1555079Y0620386D01*
G01X1555079Y0620386D02*
G01X1555350Y0620165D01*
G01X1555350Y0620165D02*
G01X1555634Y0619957D01*
G01X1555634Y0619957D02*
G01X1555929Y0619760D01*
G01X1555929Y0619760D02*
G01X1556228Y0619579D01*
G01X1556228Y0619579D02*
G01X1556535Y0619409D01*
G01X1556535Y0619409D02*
G01X1556850Y0619256D01*
G01X1556850Y0619256D02*
G01X1557173Y0619114D01*
G01X1557173Y0619114D02*
G01X1557500Y0618984D01*
G01X1557500Y0618984D02*
G01X1557835Y0618874D01*
G01X1557835Y0618874D02*
G01X1558169Y0618776D01*
G01X1558169Y0618776D02*
G01X1558512Y0618689D01*
G01X1558512Y0618689D02*
G01X1558858Y0618622D01*
G01X1558858Y0618622D02*
G01X1559205Y0618571D01*
G01X1559205Y0618571D02*
G01X1559555Y0618531D01*
G01X1559555Y0618531D02*
G01X1559906Y0618508D01*
G01X1559906Y0618508D02*
G01X1560256Y0618500D01*
G01X1560256Y0618500D02*
G01X1568311Y0618500D01*
G01X1629752Y0551500D02*
G01X1629752Y0522500D01*
G01X1629752Y0551500D02*
G01X1621693Y0551500D01*
G01X1621693Y0551500D02*
G01X1621343Y0551492D01*
G01X1621343Y0551492D02*
G01X1620992Y0551469D01*
G01X1620992Y0551469D02*
G01X1620642Y0551429D01*
G01X1620642Y0551429D02*
G01X1620295Y0551378D01*
G01X1620295Y0551378D02*
G01X1619949Y0551311D01*
G01X1619949Y0551311D02*
G01X1619606Y0551224D01*
G01X1619606Y0551224D02*
G01X1619272Y0551126D01*
G01X1619272Y0551126D02*
G01X1618937Y0551016D01*
G01X1618937Y0551016D02*
G01X1618610Y0550886D01*
G01X1618610Y0550886D02*
G01X1618287Y0550744D01*
G01X1618287Y0550744D02*
G01X1617972Y0550591D01*
G01X1617972Y0550591D02*
G01X1617665Y0550421D01*
G01X1617665Y0550421D02*
G01X1617366Y0550240D01*
G01X1617366Y0550240D02*
G01X1617071Y0550043D01*
G01X1617071Y0550043D02*
G01X1616787Y0549835D01*
G01X1616787Y0549835D02*
G01X1616516Y0549614D01*
G01X1616516Y0549614D02*
G01X1616252Y0549382D01*
G01X1616252Y0549382D02*
G01X1615996Y0549142D01*
G01X1615996Y0549142D02*
G01X1615756Y0548886D01*
G01X1615756Y0548886D02*
G01X1615524Y0548622D01*
G01X1615524Y0548622D02*
G01X1615303Y0548350D01*
G01X1615303Y0548350D02*
G01X1615094Y0548067D01*
G01X1615094Y0548067D02*
G01X1614898Y0547772D01*
G01X1614898Y0547772D02*
G01X1614717Y0547472D01*
G01X1614717Y0547472D02*
G01X1614547Y0547165D01*
G01X1614547Y0547165D02*
G01X1614394Y0546850D01*
G01X1614394Y0546850D02*
G01X1614252Y0546528D01*
G01X1614252Y0546528D02*
G01X1614122Y0546201D01*
G01X1614122Y0546201D02*
G01X1614012Y0545866D01*
G01X1614012Y0545866D02*
G01X1613913Y0545531D01*
G01X1613913Y0545531D02*
G01X1613827Y0545189D01*
G01X1613827Y0545189D02*
G01X1613760Y0544843D01*
G01X1613760Y0544843D02*
G01X1613709Y0544496D01*
G01X1613709Y0544496D02*
G01X1613669Y0544146D01*
G01X1613669Y0544146D02*
G01X1613646Y0543795D01*
G01X1613646Y0543795D02*
G01X1613638Y0543445D01*
G01X1613638Y0543445D02*
G01X1613638Y0530555D01*
G01X1613638Y0530555D02*
G01X1613646Y0530205D01*
G01X1613646Y0530205D02*
G01X1613669Y0529854D01*
G01X1613669Y0529854D02*
G01X1613709Y0529504D01*
G01X1613709Y0529504D02*
G01X1613760Y0529157D01*
G01X1613760Y0529157D02*
G01X1613827Y0528811D01*
G01X1613827Y0528811D02*
G01X1613913Y0528469D01*
G01X1613913Y0528469D02*
G01X1614012Y0528134D01*
G01X1614012Y0528134D02*
G01X1614122Y0527799D01*
G01X1614122Y0527799D02*
G01X1614252Y0527472D01*
G01X1614252Y0527472D02*
G01X1614394Y0527150D01*
G01X1614394Y0527150D02*
G01X1614547Y0526835D01*
G01X1614547Y0526835D02*
G01X1614717Y0526528D01*
G01X1614717Y0526528D02*
G01X1614898Y0526228D01*
G01X1614898Y0526228D02*
G01X1615094Y0525933D01*
G01X1615094Y0525933D02*
G01X1615303Y0525650D01*
G01X1615303Y0525650D02*
G01X1615524Y0525378D01*
G01X1615524Y0525378D02*
G01X1615756Y0525114D01*
G01X1615756Y0525114D02*
G01X1615996Y0524858D01*
G01X1615996Y0524858D02*
G01X1616252Y0524618D01*
G01X1616252Y0524618D02*
G01X1616516Y0524386D01*
G01X1616516Y0524386D02*
G01X1616787Y0524165D01*
G01X1616787Y0524165D02*
G01X1617071Y0523957D01*
G01X1617071Y0523957D02*
G01X1617366Y0523760D01*
G01X1617366Y0523760D02*
G01X1617665Y0523579D01*
G01X1617665Y0523579D02*
G01X1617972Y0523409D01*
G01X1617972Y0523409D02*
G01X1618287Y0523256D01*
G01X1618287Y0523256D02*
G01X1618610Y0523114D01*
G01X1618610Y0523114D02*
G01X1618937Y0522984D01*
G01X1618937Y0522984D02*
G01X1619272Y0522874D01*
G01X1619272Y0522874D02*
G01X1619606Y0522776D01*
G01X1619606Y0522776D02*
G01X1619949Y0522689D01*
G01X1619949Y0522689D02*
G01X1620295Y0522622D01*
G01X1620295Y0522622D02*
G01X1620642Y0522571D01*
G01X1620642Y0522571D02*
G01X1620992Y0522531D01*
G01X1620992Y0522531D02*
G01X1621343Y0522508D01*
G01X1621343Y0522508D02*
G01X1621693Y0522500D01*
G01X1621693Y0522500D02*
G01X1629752Y0522500D01*
G01X1599031Y0522500D02*
G01X1599031Y0551500D01*
G01X1599031Y0538610D02*
G01X1582917Y0538610D01*
G01X1582917Y0551500D02*
G01X1582917Y0522500D01*
G01X1563134Y0522500D02*
G01X1563134Y0551500D01*
G01X1571189Y0551500D02*
G01X1555079Y0551500D01*
G01X1629752Y0455500D02*
G01X1620083Y0426500D01*
G01X1620083Y0426500D02*
G01X1610417Y0455500D01*
G01X1599031Y0437780D02*
G01X1579697Y0437780D01*
G01X1589362Y0447445D02*
G01X1589362Y0428110D01*
G54D11*
G01X1454252Y1408252D02*
G01X1454252Y1454252D01*
G01X1454252Y1454252D02*
G01X1441472Y1454252D01*
G01X1441472Y1454252D02*
G01X1441028Y1454244D01*
G01X1441028Y1454244D02*
G01X1440583Y1454220D01*
G01X1440583Y1454220D02*
G01X1440138Y1454181D01*
G01X1440138Y1454181D02*
G01X1439693Y1454126D01*
G01X1439693Y1454126D02*
G01X1439252Y1454059D01*
G01X1439252Y1454059D02*
G01X1438815Y1453972D01*
G01X1438815Y1453972D02*
G01X1438382Y1453874D01*
G01X1438382Y1453874D02*
G01X1437949Y1453756D01*
G01X1437949Y1453756D02*
G01X1437524Y1453626D01*
G01X1437524Y1453626D02*
G01X1437102Y1453480D01*
G01X1437102Y1453480D02*
G01X1436685Y1453323D01*
G01X1436685Y1453323D02*
G01X1436276Y1453146D01*
G01X1436276Y1453146D02*
G01X1435870Y1452957D01*
G01X1435870Y1452957D02*
G01X1435472Y1452756D01*
G01X1435472Y1452756D02*
G01X1435083Y1452539D01*
G01X1435083Y1452539D02*
G01X1434701Y1452311D01*
G01X1434701Y1452311D02*
G01X1434327Y1452067D01*
G01X1434327Y1452067D02*
G01X1433961Y1451811D01*
G01X1433961Y1451811D02*
G01X1433606Y1451543D01*
G01X1433606Y1451543D02*
G01X1433260Y1451264D01*
G01X1433260Y1451264D02*
G01X1432921Y1450969D01*
G01X1432921Y1450969D02*
G01X1432594Y1450665D01*
G01X1432594Y1450665D02*
G01X1432280Y1450350D01*
G01X1432280Y1450350D02*
G01X1431976Y1450024D01*
G01X1431976Y1450024D02*
G01X1431681Y1449685D01*
G01X1431681Y1449685D02*
G01X1431402Y1449339D01*
G01X1431402Y1449339D02*
G01X1431134Y1448984D01*
G01X1431134Y1448984D02*
G01X1430878Y1448618D01*
G01X1430878Y1448618D02*
G01X1430634Y1448244D01*
G01X1430634Y1448244D02*
G01X1430406Y1447862D01*
G01X1430406Y1447862D02*
G01X1430189Y1447472D01*
G01X1430189Y1447472D02*
G01X1429988Y1447075D01*
G01X1429988Y1447075D02*
G01X1429799Y1446669D01*
G01X1429799Y1446669D02*
G01X1429622Y1446260D01*
G01X1429622Y1446260D02*
G01X1429465Y1445843D01*
G01X1429465Y1445843D02*
G01X1429319Y1445421D01*
G01X1429319Y1445421D02*
G01X1429189Y1444996D01*
G01X1429189Y1444996D02*
G01X1429071Y1444563D01*
G01X1429071Y1444563D02*
G01X1428972Y1444130D01*
G01X1428972Y1444130D02*
G01X1428886Y1443693D01*
G01X1428886Y1443693D02*
G01X1428819Y1443252D01*
G01X1428819Y1443252D02*
G01X1428764Y1442807D01*
G01X1428764Y1442807D02*
G01X1428724Y1442362D01*
G01X1428724Y1442362D02*
G01X1428701Y1441917D01*
G01X1428701Y1441917D02*
G01X1428693Y1441472D01*
G01X1428693Y1441472D02*
G01X1428693Y1421028D01*
G01X1428693Y1421028D02*
G01X1428701Y1420583D01*
G01X1428701Y1420583D02*
G01X1428724Y1420138D01*
G01X1428724Y1420138D02*
G01X1428764Y1419693D01*
G01X1428764Y1419693D02*
G01X1428819Y1419248D01*
G01X1428819Y1419248D02*
G01X1428886Y1418807D01*
G01X1428886Y1418807D02*
G01X1428972Y1418370D01*
G01X1428972Y1418370D02*
G01X1429071Y1417937D01*
G01X1429071Y1417937D02*
G01X1429189Y1417504D01*
G01X1429189Y1417504D02*
G01X1429319Y1417079D01*
G01X1429319Y1417079D02*
G01X1429465Y1416657D01*
G01X1429465Y1416657D02*
G01X1429622Y1416240D01*
G01X1429622Y1416240D02*
G01X1429799Y1415831D01*
G01X1429799Y1415831D02*
G01X1429988Y1415425D01*
G01X1429988Y1415425D02*
G01X1430189Y1415028D01*
G01X1430189Y1415028D02*
G01X1430406Y1414638D01*
G01X1430406Y1414638D02*
G01X1430634Y1414256D01*
G01X1430634Y1414256D02*
G01X1430878Y1413882D01*
G01X1430878Y1413882D02*
G01X1431134Y1413516D01*
G01X1431134Y1413516D02*
G01X1431402Y1413161D01*
G01X1431402Y1413161D02*
G01X1431681Y1412815D01*
G01X1431681Y1412815D02*
G01X1431976Y1412476D01*
G01X1431976Y1412476D02*
G01X1432280Y1412150D01*
G01X1432280Y1412150D02*
G01X1432594Y1411835D01*
G01X1432594Y1411835D02*
G01X1432921Y1411531D01*
G01X1432921Y1411531D02*
G01X1433260Y1411236D01*
G01X1433260Y1411236D02*
G01X1433606Y1410957D01*
G01X1433606Y1410957D02*
G01X1433961Y1410689D01*
G01X1433961Y1410689D02*
G01X1434327Y1410433D01*
G01X1434327Y1410433D02*
G01X1434701Y1410189D01*
G01X1434701Y1410189D02*
G01X1435083Y1409961D01*
G01X1435083Y1409961D02*
G01X1435472Y1409744D01*
G01X1435472Y1409744D02*
G01X1435870Y1409543D01*
G01X1435870Y1409543D02*
G01X1436276Y1409354D01*
G01X1436276Y1409354D02*
G01X1436685Y1409177D01*
G01X1436685Y1409177D02*
G01X1437102Y1409020D01*
G01X1437102Y1409020D02*
G01X1437524Y1408874D01*
G01X1437524Y1408874D02*
G01X1437949Y1408744D01*
G01X1437949Y1408744D02*
G01X1438382Y1408626D01*
G01X1438382Y1408626D02*
G01X1438815Y1408528D01*
G01X1438815Y1408528D02*
G01X1439252Y1408441D01*
G01X1439252Y1408441D02*
G01X1439693Y1408374D01*
G01X1439693Y1408374D02*
G01X1440138Y1408319D01*
G01X1440138Y1408319D02*
G01X1440583Y1408280D01*
G01X1440583Y1408280D02*
G01X1441028Y1408256D01*
G01X1441028Y1408256D02*
G01X1441472Y1408248D01*
G01X1441472Y1408252D02*
G01X1454252Y1408252D01*
G01X1403972Y1408252D02*
G01X1403972Y1454252D01*
G01X1409083Y1408252D02*
G01X1398862Y1408252D01*
G01X1398862Y1454252D02*
G01X1409083Y1454252D01*
G01X1380752Y1441472D02*
G01X1380752Y1421028D01*
G01X1380752Y1441472D02*
G01X1380744Y1441917D01*
G01X1380744Y1441917D02*
G01X1380720Y1442362D01*
G01X1380720Y1442362D02*
G01X1380681Y1442807D01*
G01X1380681Y1442807D02*
G01X1380626Y1443252D01*
G01X1380626Y1443252D02*
G01X1380559Y1443693D01*
G01X1380559Y1443693D02*
G01X1380472Y1444130D01*
G01X1380472Y1444130D02*
G01X1380374Y1444563D01*
G01X1380374Y1444563D02*
G01X1380256Y1444996D01*
G01X1380256Y1444996D02*
G01X1380126Y1445421D01*
G01X1380126Y1445421D02*
G01X1379980Y1445843D01*
G01X1379980Y1445843D02*
G01X1379823Y1446260D01*
G01X1379823Y1446260D02*
G01X1379646Y1446669D01*
G01X1379646Y1446669D02*
G01X1379457Y1447075D01*
G01X1379457Y1447075D02*
G01X1379256Y1447472D01*
G01X1379256Y1447472D02*
G01X1379039Y1447862D01*
G01X1379039Y1447862D02*
G01X1378811Y1448244D01*
G01X1378811Y1448244D02*
G01X1378567Y1448618D01*
G01X1378567Y1448618D02*
G01X1378311Y1448984D01*
G01X1378311Y1448984D02*
G01X1378043Y1449339D01*
G01X1378043Y1449339D02*
G01X1377764Y1449685D01*
G01X1377764Y1449685D02*
G01X1377469Y1450024D01*
G01X1377469Y1450024D02*
G01X1377165Y1450350D01*
G01X1377165Y1450350D02*
G01X1376850Y1450665D01*
G01X1376850Y1450665D02*
G01X1376524Y1450969D01*
G01X1376524Y1450969D02*
G01X1376185Y1451264D01*
G01X1376185Y1451264D02*
G01X1375839Y1451543D01*
G01X1375839Y1451543D02*
G01X1375484Y1451811D01*
G01X1375484Y1451811D02*
G01X1375118Y1452067D01*
G01X1375118Y1452067D02*
G01X1374744Y1452311D01*
G01X1374744Y1452311D02*
G01X1374362Y1452539D01*
G01X1374362Y1452539D02*
G01X1373972Y1452756D01*
G01X1373972Y1452756D02*
G01X1373575Y1452957D01*
G01X1373575Y1452957D02*
G01X1373169Y1453146D01*
G01X1373169Y1453146D02*
G01X1372760Y1453323D01*
G01X1372760Y1453323D02*
G01X1372343Y1453480D01*
G01X1372343Y1453480D02*
G01X1371921Y1453626D01*
G01X1371921Y1453626D02*
G01X1371496Y1453756D01*
G01X1371496Y1453756D02*
G01X1371063Y1453874D01*
G01X1371063Y1453874D02*
G01X1370630Y1453972D01*
G01X1370630Y1453972D02*
G01X1370193Y1454059D01*
G01X1370193Y1454059D02*
G01X1369752Y1454126D01*
G01X1369752Y1454126D02*
G01X1369307Y1454181D01*
G01X1369307Y1454181D02*
G01X1368862Y1454220D01*
G01X1368862Y1454220D02*
G01X1368417Y1454244D01*
G01X1368417Y1454244D02*
G01X1367972Y1454252D01*
G01X1367972Y1454252D02*
G01X1367528Y1454244D01*
G01X1367528Y1454244D02*
G01X1367083Y1454220D01*
G01X1367083Y1454220D02*
G01X1366638Y1454181D01*
G01X1366638Y1454181D02*
G01X1366193Y1454126D01*
G01X1366193Y1454126D02*
G01X1365752Y1454059D01*
G01X1365752Y1454059D02*
G01X1365315Y1453972D01*
G01X1365315Y1453972D02*
G01X1364882Y1453874D01*
G01X1364882Y1453874D02*
G01X1364449Y1453756D01*
G01X1364449Y1453756D02*
G01X1364024Y1453626D01*
G01X1364024Y1453626D02*
G01X1363602Y1453480D01*
G01X1363602Y1453480D02*
G01X1363185Y1453323D01*
G01X1363185Y1453323D02*
G01X1362776Y1453146D01*
G01X1362776Y1453146D02*
G01X1362370Y1452957D01*
G01X1362370Y1452957D02*
G01X1361972Y1452756D01*
G01X1361972Y1452756D02*
G01X1361583Y1452539D01*
G01X1361583Y1452539D02*
G01X1361201Y1452311D01*
G01X1361201Y1452311D02*
G01X1360827Y1452067D01*
G01X1360827Y1452067D02*
G01X1360461Y1451811D01*
G01X1360461Y1451811D02*
G01X1360106Y1451543D01*
G01X1360106Y1451543D02*
G01X1359760Y1451264D01*
G01X1359760Y1451264D02*
G01X1359421Y1450969D01*
G01X1359421Y1450969D02*
G01X1359094Y1450665D01*
G01X1359094Y1450665D02*
G01X1358780Y1450350D01*
G01X1358780Y1450350D02*
G01X1358476Y1450024D01*
G01X1358476Y1450024D02*
G01X1358181Y1449685D01*
G01X1358181Y1449685D02*
G01X1357902Y1449339D01*
G01X1357902Y1449339D02*
G01X1357634Y1448984D01*
G01X1357634Y1448984D02*
G01X1357378Y1448618D01*
G01X1357378Y1448618D02*
G01X1357134Y1448244D01*
G01X1357134Y1448244D02*
G01X1356906Y1447862D01*
G01X1356906Y1447862D02*
G01X1356689Y1447472D01*
G01X1356689Y1447472D02*
G01X1356488Y1447075D01*
G01X1356488Y1447075D02*
G01X1356299Y1446669D01*
G01X1356299Y1446669D02*
G01X1356122Y1446260D01*
G01X1356122Y1446260D02*
G01X1355965Y1445843D01*
G01X1355965Y1445843D02*
G01X1355819Y1445421D01*
G01X1355819Y1445421D02*
G01X1355689Y1444996D01*
G01X1355689Y1444996D02*
G01X1355571Y1444563D01*
G01X1355571Y1444563D02*
G01X1355472Y1444130D01*
G01X1355472Y1444130D02*
G01X1355386Y1443693D01*
G01X1355386Y1443693D02*
G01X1355319Y1443252D01*
G01X1355319Y1443252D02*
G01X1355264Y1442807D01*
G01X1355264Y1442807D02*
G01X1355224Y1442362D01*
G01X1355224Y1442362D02*
G01X1355201Y1441917D01*
G01X1355201Y1441917D02*
G01X1355193Y1441472D01*
G01X1355193Y1441472D02*
G01X1355193Y1421028D01*
G01X1355193Y1421028D02*
G01X1355201Y1420583D01*
G01X1355201Y1420583D02*
G01X1355224Y1420138D01*
G01X1355224Y1420138D02*
G01X1355264Y1419693D01*
G01X1355264Y1419693D02*
G01X1355319Y1419248D01*
G01X1355319Y1419248D02*
G01X1355386Y1418807D01*
G01X1355386Y1418807D02*
G01X1355472Y1418370D01*
G01X1355472Y1418370D02*
G01X1355571Y1417937D01*
G01X1355571Y1417937D02*
G01X1355689Y1417504D01*
G01X1355689Y1417504D02*
G01X1355819Y1417079D01*
G01X1355819Y1417079D02*
G01X1355965Y1416657D01*
G01X1355965Y1416657D02*
G01X1356122Y1416240D01*
G01X1356122Y1416240D02*
G01X1356299Y1415831D01*
G01X1356299Y1415831D02*
G01X1356488Y1415425D01*
G01X1356488Y1415425D02*
G01X1356689Y1415028D01*
G01X1356689Y1415028D02*
G01X1356906Y1414638D01*
G01X1356906Y1414638D02*
G01X1357134Y1414256D01*
G01X1357134Y1414256D02*
G01X1357378Y1413882D01*
G01X1357378Y1413882D02*
G01X1357634Y1413516D01*
G01X1357634Y1413516D02*
G01X1357902Y1413161D01*
G01X1357902Y1413161D02*
G01X1358181Y1412815D01*
G01X1358181Y1412815D02*
G01X1358476Y1412476D01*
G01X1358476Y1412476D02*
G01X1358780Y1412150D01*
G01X1358780Y1412150D02*
G01X1359094Y1411835D01*
G01X1359094Y1411835D02*
G01X1359421Y1411531D01*
G01X1359421Y1411531D02*
G01X1359760Y1411236D01*
G01X1359760Y1411236D02*
G01X1360106Y1410957D01*
G01X1360106Y1410957D02*
G01X1360461Y1410689D01*
G01X1360461Y1410689D02*
G01X1360827Y1410433D01*
G01X1360827Y1410433D02*
G01X1361201Y1410189D01*
G01X1361201Y1410189D02*
G01X1361583Y1409961D01*
G01X1361583Y1409961D02*
G01X1361972Y1409744D01*
G01X1361972Y1409744D02*
G01X1362370Y1409543D01*
G01X1362370Y1409543D02*
G01X1362776Y1409354D01*
G01X1362776Y1409354D02*
G01X1363185Y1409177D01*
G01X1363185Y1409177D02*
G01X1363602Y1409020D01*
G01X1363602Y1409020D02*
G01X1364024Y1408874D01*
G01X1364024Y1408874D02*
G01X1364449Y1408744D01*
G01X1364449Y1408744D02*
G01X1364882Y1408626D01*
G01X1364882Y1408626D02*
G01X1365315Y1408528D01*
G01X1365315Y1408528D02*
G01X1365752Y1408441D01*
G01X1365752Y1408441D02*
G01X1366193Y1408374D01*
G01X1366193Y1408374D02*
G01X1366638Y1408319D01*
G01X1366638Y1408319D02*
G01X1367083Y1408280D01*
G01X1367083Y1408280D02*
G01X1367528Y1408256D01*
G01X1367528Y1408256D02*
G01X1367972Y1408248D01*
G01X1367972Y1408248D02*
G01X1368417Y1408256D01*
G01X1368417Y1408256D02*
G01X1368862Y1408280D01*
G01X1368862Y1408280D02*
G01X1369307Y1408319D01*
G01X1369307Y1408319D02*
G01X1369752Y1408374D01*
G01X1369752Y1408374D02*
G01X1370193Y1408441D01*
G01X1370193Y1408441D02*
G01X1370630Y1408528D01*
G01X1370630Y1408528D02*
G01X1371063Y1408626D01*
G01X1371063Y1408626D02*
G01X1371496Y1408744D01*
G01X1371496Y1408744D02*
G01X1371921Y1408874D01*
G01X1371921Y1408874D02*
G01X1372343Y1409020D01*
G01X1372343Y1409020D02*
G01X1372760Y1409177D01*
G01X1372760Y1409177D02*
G01X1373169Y1409354D01*
G01X1373169Y1409354D02*
G01X1373575Y1409543D01*
G01X1373575Y1409543D02*
G01X1373972Y1409744D01*
G01X1373972Y1409744D02*
G01X1374362Y1409961D01*
G01X1374362Y1409961D02*
G01X1374744Y1410189D01*
G01X1374744Y1410189D02*
G01X1375118Y1410433D01*
G01X1375118Y1410433D02*
G01X1375484Y1410689D01*
G01X1375484Y1410689D02*
G01X1375839Y1410957D01*
G01X1375839Y1410957D02*
G01X1376185Y1411236D01*
G01X1376185Y1411236D02*
G01X1376524Y1411531D01*
G01X1376524Y1411531D02*
G01X1376850Y1411835D01*
G01X1376850Y1411835D02*
G01X1377165Y1412150D01*
G01X1377165Y1412150D02*
G01X1377469Y1412476D01*
G01X1377469Y1412476D02*
G01X1377764Y1412815D01*
G01X1377764Y1412815D02*
G01X1378043Y1413161D01*
G01X1378043Y1413161D02*
G01X1378311Y1413516D01*
G01X1378311Y1413516D02*
G01X1378567Y1413882D01*
G01X1378567Y1413882D02*
G01X1378811Y1414256D01*
G01X1378811Y1414256D02*
G01X1379039Y1414638D01*
G01X1379039Y1414638D02*
G01X1379256Y1415028D01*
G01X1379256Y1415028D02*
G01X1379457Y1415425D01*
G01X1379457Y1415425D02*
G01X1379646Y1415831D01*
G01X1379646Y1415831D02*
G01X1379823Y1416240D01*
G01X1379823Y1416240D02*
G01X1379980Y1416657D01*
G01X1379980Y1416657D02*
G01X1380126Y1417079D01*
G01X1380126Y1417079D02*
G01X1380256Y1417504D01*
G01X1380256Y1417504D02*
G01X1380374Y1417937D01*
G01X1380374Y1417937D02*
G01X1380472Y1418370D01*
G01X1380472Y1418370D02*
G01X1380559Y1418807D01*
G01X1380559Y1418807D02*
G01X1380626Y1419248D01*
G01X1380626Y1419248D02*
G01X1380681Y1419693D01*
G01X1380681Y1419693D02*
G01X1380720Y1420138D01*
G01X1380720Y1420138D02*
G01X1380744Y1420583D01*
G01X1380744Y1420583D02*
G01X1380752Y1421028D01*
G01X1335752Y1431252D02*
G01X1335740Y1432157D01*
G01X1335740Y1432157D02*
G01X1335709Y1433063D01*
G01X1335709Y1433063D02*
G01X1335654Y1433965D01*
G01X1335654Y1433965D02*
G01X1335579Y1434866D01*
G01X1335579Y1434866D02*
G01X1335480Y1435768D01*
G01X1335480Y1435768D02*
G01X1335362Y1436665D01*
G01X1335362Y1436665D02*
G01X1335224Y1437559D01*
G01X1335224Y1437559D02*
G01X1335063Y1438449D01*
G01X1335063Y1438449D02*
G01X1334882Y1439335D01*
G01X1334882Y1439335D02*
G01X1334677Y1440217D01*
G01X1334677Y1440217D02*
G01X1334453Y1441094D01*
G01X1334453Y1441094D02*
G01X1334209Y1441965D01*
G01X1334209Y1441965D02*
G01X1333941Y1442831D01*
G01X1333941Y1442831D02*
G01X1333654Y1443689D01*
G01X1333654Y1443689D02*
G01X1333346Y1444539D01*
G01X1333346Y1444539D02*
G01X1333020Y1445382D01*
G01X1333020Y1445382D02*
G01X1332673Y1446220D01*
G01X1332673Y1446220D02*
G01X1332307Y1447047D01*
G01X1332307Y1447047D02*
G01X1331917Y1447862D01*
G01X1331917Y1447862D02*
G01X1331787Y1448217D01*
G01X1331787Y1448217D02*
G01X1331646Y1448567D01*
G01X1331646Y1448567D02*
G01X1331488Y1448913D01*
G01X1331488Y1448913D02*
G01X1331315Y1449248D01*
G01X1331315Y1449248D02*
G01X1331130Y1449579D01*
G01X1331130Y1449579D02*
G01X1330933Y1449902D01*
G01X1330933Y1449902D02*
G01X1330720Y1450217D01*
G01X1330720Y1450217D02*
G01X1330500Y1450520D01*
G01X1330500Y1450520D02*
G01X1330264Y1450819D01*
G01X1330264Y1450819D02*
G01X1330016Y1451106D01*
G01X1330016Y1451106D02*
G01X1329760Y1451382D01*
G01X1329760Y1451382D02*
G01X1329488Y1451650D01*
G01X1329488Y1451650D02*
G01X1329209Y1451902D01*
G01X1329209Y1451902D02*
G01X1328921Y1452146D01*
G01X1328921Y1452146D02*
G01X1328622Y1452378D01*
G01X1328622Y1452378D02*
G01X1328315Y1452598D01*
G01X1328315Y1452598D02*
G01X1327996Y1452807D01*
G01X1327996Y1452807D02*
G01X1327673Y1453000D01*
G01X1327673Y1453000D02*
G01X1327343Y1453181D01*
G01X1327343Y1453181D02*
G01X1327000Y1453350D01*
G01X1327000Y1453350D02*
G01X1326657Y1453504D01*
G01X1326657Y1453504D02*
G01X1326303Y1453646D01*
G01X1326303Y1453646D02*
G01X1325949Y1453772D01*
G01X1325949Y1453772D02*
G01X1325587Y1453882D01*
G01X1325587Y1453882D02*
G01X1325220Y1453980D01*
G01X1325220Y1453980D02*
G01X1324850Y1454063D01*
G01X1324850Y1454063D02*
G01X1324480Y1454130D01*
G01X1324480Y1454130D02*
G01X1324106Y1454185D01*
G01X1324106Y1454185D02*
G01X1323728Y1454220D01*
G01X1323728Y1454220D02*
G01X1323350Y1454244D01*
G01X1323350Y1454244D02*
G01X1322972Y1454252D01*
G01X1322972Y1454252D02*
G01X1322594Y1454244D01*
G01X1322594Y1454244D02*
G01X1322217Y1454220D01*
G01X1322217Y1454220D02*
G01X1321839Y1454185D01*
G01X1321839Y1454185D02*
G01X1321465Y1454130D01*
G01X1321465Y1454130D02*
G01X1321094Y1454063D01*
G01X1321094Y1454063D02*
G01X1320724Y1453980D01*
G01X1320724Y1453980D02*
G01X1320358Y1453882D01*
G01X1320358Y1453882D02*
G01X1319996Y1453772D01*
G01X1319996Y1453772D02*
G01X1319642Y1453646D01*
G01X1319642Y1453646D02*
G01X1319287Y1453504D01*
G01X1319287Y1453504D02*
G01X1318945Y1453350D01*
G01X1318945Y1453350D02*
G01X1318602Y1453181D01*
G01X1318602Y1453181D02*
G01X1318272Y1453000D01*
G01X1318272Y1453000D02*
G01X1317949Y1452807D01*
G01X1317949Y1452807D02*
G01X1317630Y1452598D01*
G01X1317630Y1452598D02*
G01X1317323Y1452378D01*
G01X1317323Y1452378D02*
G01X1317024Y1452146D01*
G01X1317024Y1452146D02*
G01X1316736Y1451902D01*
G01X1316736Y1451902D02*
G01X1316457Y1451650D01*
G01X1316457Y1451650D02*
G01X1316185Y1451382D01*
G01X1316185Y1451382D02*
G01X1315929Y1451106D01*
G01X1315929Y1451106D02*
G01X1315681Y1450819D01*
G01X1315681Y1450819D02*
G01X1315445Y1450524D01*
G01X1315445Y1450524D02*
G01X1315224Y1450217D01*
G01X1315224Y1450217D02*
G01X1315012Y1449902D01*
G01X1315012Y1449902D02*
G01X1314815Y1449579D01*
G01X1314815Y1449579D02*
G01X1314630Y1449248D01*
G01X1314630Y1449248D02*
G01X1314461Y1448913D01*
G01X1314461Y1448913D02*
G01X1314299Y1448567D01*
G01X1314299Y1448567D02*
G01X1314157Y1448217D01*
G01X1314157Y1448217D02*
G01X1314028Y1447862D01*
G01X1314031Y1447862D02*
G01X1313642Y1447043D01*
G01X1313642Y1447043D02*
G01X1313276Y1446217D01*
G01X1313276Y1446217D02*
G01X1312929Y1445382D01*
G01X1312929Y1445382D02*
G01X1312602Y1444539D01*
G01X1312602Y1444539D02*
G01X1312295Y1443685D01*
G01X1312295Y1443685D02*
G01X1312008Y1442827D01*
G01X1312008Y1442827D02*
G01X1311740Y1441965D01*
G01X1311740Y1441965D02*
G01X1311496Y1441091D01*
G01X1311496Y1441091D02*
G01X1311272Y1440217D01*
G01X1311272Y1440217D02*
G01X1311067Y1439335D01*
G01X1311067Y1439335D02*
G01X1310886Y1438449D01*
G01X1310886Y1438449D02*
G01X1310724Y1437559D01*
G01X1310724Y1437559D02*
G01X1310587Y1436661D01*
G01X1310587Y1436661D02*
G01X1310469Y1435768D01*
G01X1310469Y1435768D02*
G01X1310370Y1434866D01*
G01X1310370Y1434866D02*
G01X1310295Y1433965D01*
G01X1310295Y1433965D02*
G01X1310240Y1433063D01*
G01X1310240Y1433063D02*
G01X1310209Y1432157D01*
G01X1310209Y1432157D02*
G01X1310197Y1431252D01*
G01X1335752Y1431252D02*
G01X1335740Y1430346D01*
G01X1335740Y1430346D02*
G01X1335709Y1429441D01*
G01X1335709Y1429441D02*
G01X1335654Y1428539D01*
G01X1335654Y1428539D02*
G01X1335579Y1427638D01*
G01X1335579Y1427638D02*
G01X1335480Y1426736D01*
G01X1335480Y1426736D02*
G01X1335362Y1425839D01*
G01X1335362Y1425839D02*
G01X1335224Y1424945D01*
G01X1335224Y1424945D02*
G01X1335063Y1424055D01*
G01X1335063Y1424055D02*
G01X1334882Y1423169D01*
G01X1334882Y1423169D02*
G01X1334677Y1422287D01*
G01X1334677Y1422287D02*
G01X1334453Y1421409D01*
G01X1334453Y1421409D02*
G01X1334209Y1420539D01*
G01X1334209Y1420539D02*
G01X1333941Y1419673D01*
G01X1333941Y1419673D02*
G01X1333654Y1418815D01*
G01X1333654Y1418815D02*
G01X1333346Y1417965D01*
G01X1333346Y1417965D02*
G01X1333020Y1417122D01*
G01X1333020Y1417122D02*
G01X1332673Y1416287D01*
G01X1332673Y1416287D02*
G01X1332307Y1415457D01*
G01X1332307Y1415457D02*
G01X1331917Y1414642D01*
G01X1331917Y1414638D02*
G01X1331787Y1414283D01*
G01X1331787Y1414283D02*
G01X1331646Y1413933D01*
G01X1331646Y1413933D02*
G01X1331484Y1413587D01*
G01X1331484Y1413587D02*
G01X1331315Y1413252D01*
G01X1331315Y1413252D02*
G01X1331130Y1412921D01*
G01X1331130Y1412921D02*
G01X1330933Y1412598D01*
G01X1330933Y1412598D02*
G01X1330720Y1412283D01*
G01X1330720Y1412283D02*
G01X1330500Y1411980D01*
G01X1330500Y1411980D02*
G01X1330264Y1411681D01*
G01X1330264Y1411681D02*
G01X1330016Y1411394D01*
G01X1330016Y1411394D02*
G01X1329760Y1411118D01*
G01X1329760Y1411118D02*
G01X1329488Y1410850D01*
G01X1329488Y1410850D02*
G01X1329209Y1410598D01*
G01X1329209Y1410598D02*
G01X1328921Y1410354D01*
G01X1328921Y1410354D02*
G01X1328622Y1410122D01*
G01X1328622Y1410122D02*
G01X1328315Y1409902D01*
G01X1328315Y1409902D02*
G01X1327996Y1409693D01*
G01X1327996Y1409693D02*
G01X1327673Y1409500D01*
G01X1327673Y1409500D02*
G01X1327343Y1409319D01*
G01X1327343Y1409319D02*
G01X1327000Y1409150D01*
G01X1327000Y1409150D02*
G01X1326657Y1408996D01*
G01X1326657Y1408996D02*
G01X1326303Y1408854D01*
G01X1326303Y1408854D02*
G01X1325949Y1408728D01*
G01X1325949Y1408728D02*
G01X1325587Y1408618D01*
G01X1325587Y1408618D02*
G01X1325220Y1408520D01*
G01X1325220Y1408520D02*
G01X1324850Y1408437D01*
G01X1324850Y1408437D02*
G01X1324480Y1408370D01*
G01X1324480Y1408370D02*
G01X1324106Y1408315D01*
G01X1324106Y1408315D02*
G01X1323728Y1408280D01*
G01X1323728Y1408280D02*
G01X1323350Y1408256D01*
G01X1323350Y1408256D02*
G01X1322972Y1408248D01*
G01X1314028Y1414642D02*
G01X1313638Y1415457D01*
G01X1313638Y1415457D02*
G01X1313272Y1416287D01*
G01X1313272Y1416287D02*
G01X1312925Y1417122D01*
G01X1312925Y1417122D02*
G01X1312598Y1417965D01*
G01X1312598Y1417965D02*
G01X1312291Y1418815D01*
G01X1312291Y1418815D02*
G01X1312004Y1419673D01*
G01X1312004Y1419673D02*
G01X1311736Y1420539D01*
G01X1311736Y1420539D02*
G01X1311492Y1421409D01*
G01X1311492Y1421409D02*
G01X1311268Y1422287D01*
G01X1311268Y1422287D02*
G01X1311063Y1423169D01*
G01X1311063Y1423169D02*
G01X1310882Y1424055D01*
G01X1310882Y1424055D02*
G01X1310720Y1424945D01*
G01X1310720Y1424945D02*
G01X1310583Y1425839D01*
G01X1310583Y1425839D02*
G01X1310465Y1426736D01*
G01X1310465Y1426736D02*
G01X1310366Y1427638D01*
G01X1310366Y1427638D02*
G01X1310291Y1428539D01*
G01X1310291Y1428539D02*
G01X1310236Y1429441D01*
G01X1310236Y1429441D02*
G01X1310205Y1430346D01*
G01X1310205Y1430346D02*
G01X1310193Y1431252D01*
G01X1314028Y1414638D02*
G01X1314157Y1414283D01*
G01X1314157Y1414283D02*
G01X1314299Y1413933D01*
G01X1314299Y1413933D02*
G01X1314461Y1413587D01*
G01X1314461Y1413587D02*
G01X1314630Y1413252D01*
G01X1314630Y1413252D02*
G01X1314815Y1412921D01*
G01X1314815Y1412921D02*
G01X1315012Y1412598D01*
G01X1315012Y1412598D02*
G01X1315224Y1412283D01*
G01X1315224Y1412283D02*
G01X1315445Y1411976D01*
G01X1315445Y1411976D02*
G01X1315681Y1411681D01*
G01X1315681Y1411681D02*
G01X1315929Y1411394D01*
G01X1315929Y1411394D02*
G01X1316185Y1411118D01*
G01X1316185Y1411118D02*
G01X1316457Y1410850D01*
G01X1316457Y1410850D02*
G01X1316736Y1410598D01*
G01X1316736Y1410598D02*
G01X1317024Y1410354D01*
G01X1317024Y1410354D02*
G01X1317323Y1410122D01*
G01X1317323Y1410122D02*
G01X1317630Y1409902D01*
G01X1317630Y1409902D02*
G01X1317949Y1409693D01*
G01X1317949Y1409693D02*
G01X1318272Y1409500D01*
G01X1318272Y1409500D02*
G01X1318602Y1409319D01*
G01X1318602Y1409319D02*
G01X1318945Y1409150D01*
G01X1318945Y1409150D02*
G01X1319287Y1408996D01*
G01X1319287Y1408996D02*
G01X1319642Y1408854D01*
G01X1319642Y1408854D02*
G01X1319996Y1408728D01*
G01X1319996Y1408728D02*
G01X1320358Y1408618D01*
G01X1320358Y1408618D02*
G01X1320724Y1408520D01*
G01X1320724Y1408520D02*
G01X1321094Y1408437D01*
G01X1321094Y1408437D02*
G01X1321465Y1408370D01*
G01X1321465Y1408370D02*
G01X1321839Y1408315D01*
G01X1321839Y1408315D02*
G01X1322217Y1408280D01*
G01X1322217Y1408280D02*
G01X1322594Y1408256D01*
G01X1322594Y1408256D02*
G01X1322972Y1408248D01*
G01X1333193Y1418472D02*
G01X1312752Y1444028D01*
G01X1454252Y1329252D02*
G01X1454252Y1283252D01*
G01X1454252Y1329252D02*
G01X1441472Y1329252D01*
G01X1441472Y1329252D02*
G01X1441028Y1329244D01*
G01X1441028Y1329244D02*
G01X1440583Y1329220D01*
G01X1440583Y1329220D02*
G01X1440138Y1329181D01*
G01X1440138Y1329181D02*
G01X1439693Y1329126D01*
G01X1439693Y1329126D02*
G01X1439252Y1329059D01*
G01X1439252Y1329059D02*
G01X1438815Y1328972D01*
G01X1438815Y1328972D02*
G01X1438382Y1328874D01*
G01X1438382Y1328874D02*
G01X1437949Y1328756D01*
G01X1437949Y1328756D02*
G01X1437524Y1328626D01*
G01X1437524Y1328626D02*
G01X1437102Y1328480D01*
G01X1437102Y1328480D02*
G01X1436685Y1328323D01*
G01X1436685Y1328323D02*
G01X1436276Y1328146D01*
G01X1436276Y1328146D02*
G01X1435870Y1327957D01*
G01X1435870Y1327957D02*
G01X1435472Y1327756D01*
G01X1435472Y1327756D02*
G01X1435083Y1327539D01*
G01X1435083Y1327539D02*
G01X1434701Y1327311D01*
G01X1434701Y1327311D02*
G01X1434327Y1327067D01*
G01X1434327Y1327067D02*
G01X1433961Y1326811D01*
G01X1433961Y1326811D02*
G01X1433606Y1326543D01*
G01X1433606Y1326543D02*
G01X1433260Y1326264D01*
G01X1433260Y1326264D02*
G01X1432921Y1325969D01*
G01X1432921Y1325969D02*
G01X1432594Y1325665D01*
G01X1432594Y1325665D02*
G01X1432280Y1325350D01*
G01X1432280Y1325350D02*
G01X1431976Y1325024D01*
G01X1431976Y1325024D02*
G01X1431681Y1324685D01*
G01X1431681Y1324685D02*
G01X1431402Y1324339D01*
G01X1431402Y1324339D02*
G01X1431134Y1323984D01*
G01X1431134Y1323984D02*
G01X1430878Y1323618D01*
G01X1430878Y1323618D02*
G01X1430634Y1323244D01*
G01X1430634Y1323244D02*
G01X1430406Y1322862D01*
G01X1430406Y1322862D02*
G01X1430189Y1322472D01*
G01X1430189Y1322472D02*
G01X1429988Y1322075D01*
G01X1429988Y1322075D02*
G01X1429799Y1321669D01*
G01X1429799Y1321669D02*
G01X1429622Y1321260D01*
G01X1429622Y1321260D02*
G01X1429465Y1320843D01*
G01X1429465Y1320843D02*
G01X1429319Y1320421D01*
G01X1429319Y1320421D02*
G01X1429189Y1319996D01*
G01X1429189Y1319996D02*
G01X1429071Y1319563D01*
G01X1429071Y1319563D02*
G01X1428972Y1319130D01*
G01X1428972Y1319130D02*
G01X1428886Y1318693D01*
G01X1428886Y1318693D02*
G01X1428819Y1318252D01*
G01X1428819Y1318252D02*
G01X1428764Y1317807D01*
G01X1428764Y1317807D02*
G01X1428724Y1317362D01*
G01X1428724Y1317362D02*
G01X1428701Y1316917D01*
G01X1428701Y1316917D02*
G01X1428693Y1316472D01*
G01X1428693Y1316472D02*
G01X1428693Y1296028D01*
G01X1428693Y1296028D02*
G01X1428701Y1295583D01*
G01X1428701Y1295583D02*
G01X1428724Y1295138D01*
G01X1428724Y1295138D02*
G01X1428764Y1294693D01*
G01X1428764Y1294693D02*
G01X1428819Y1294248D01*
G01X1428819Y1294248D02*
G01X1428886Y1293807D01*
G01X1428886Y1293807D02*
G01X1428972Y1293370D01*
G01X1428972Y1293370D02*
G01X1429071Y1292937D01*
G01X1429071Y1292937D02*
G01X1429189Y1292504D01*
G01X1429189Y1292504D02*
G01X1429319Y1292079D01*
G01X1429319Y1292079D02*
G01X1429465Y1291657D01*
G01X1429465Y1291657D02*
G01X1429622Y1291240D01*
G01X1429622Y1291240D02*
G01X1429799Y1290831D01*
G01X1429799Y1290831D02*
G01X1429988Y1290425D01*
G01X1429988Y1290425D02*
G01X1430189Y1290028D01*
G01X1430189Y1290028D02*
G01X1430406Y1289638D01*
G01X1430406Y1289638D02*
G01X1430634Y1289256D01*
G01X1430634Y1289256D02*
G01X1430878Y1288882D01*
G01X1430878Y1288882D02*
G01X1431134Y1288516D01*
G01X1431134Y1288516D02*
G01X1431402Y1288161D01*
G01X1431402Y1288161D02*
G01X1431681Y1287815D01*
G01X1431681Y1287815D02*
G01X1431976Y1287476D01*
G01X1431976Y1287476D02*
G01X1432280Y1287150D01*
G01X1432280Y1287150D02*
G01X1432594Y1286835D01*
G01X1432594Y1286835D02*
G01X1432921Y1286531D01*
G01X1432921Y1286531D02*
G01X1433260Y1286236D01*
G01X1433260Y1286236D02*
G01X1433606Y1285957D01*
G01X1433606Y1285957D02*
G01X1433961Y1285689D01*
G01X1433961Y1285689D02*
G01X1434327Y1285433D01*
G01X1434327Y1285433D02*
G01X1434701Y1285189D01*
G01X1434701Y1285189D02*
G01X1435083Y1284961D01*
G01X1435083Y1284961D02*
G01X1435472Y1284744D01*
G01X1435472Y1284744D02*
G01X1435870Y1284543D01*
G01X1435870Y1284543D02*
G01X1436276Y1284354D01*
G01X1436276Y1284354D02*
G01X1436685Y1284177D01*
G01X1436685Y1284177D02*
G01X1437102Y1284020D01*
G01X1437102Y1284020D02*
G01X1437524Y1283874D01*
G01X1437524Y1283874D02*
G01X1437949Y1283744D01*
G01X1437949Y1283744D02*
G01X1438382Y1283626D01*
G01X1438382Y1283626D02*
G01X1438815Y1283528D01*
G01X1438815Y1283528D02*
G01X1439252Y1283441D01*
G01X1439252Y1283441D02*
G01X1439693Y1283374D01*
G01X1439693Y1283374D02*
G01X1440138Y1283319D01*
G01X1440138Y1283319D02*
G01X1440583Y1283280D01*
G01X1440583Y1283280D02*
G01X1441028Y1283256D01*
G01X1441028Y1283256D02*
G01X1441472Y1283248D01*
G01X1441472Y1283252D02*
G01X1454252Y1283252D01*
G01X1403972Y1283252D02*
G01X1403972Y1329252D01*
G01X1409083Y1283252D02*
G01X1398862Y1283252D01*
G01X1398862Y1329252D02*
G01X1409083Y1329252D01*
G01X1380752Y1316472D02*
G01X1380752Y1296028D01*
G01X1380752Y1316472D02*
G01X1380744Y1316917D01*
G01X1380744Y1316917D02*
G01X1380720Y1317362D01*
G01X1380720Y1317362D02*
G01X1380681Y1317807D01*
G01X1380681Y1317807D02*
G01X1380626Y1318252D01*
G01X1380626Y1318252D02*
G01X1380559Y1318693D01*
G01X1380559Y1318693D02*
G01X1380472Y1319130D01*
G01X1380472Y1319130D02*
G01X1380374Y1319563D01*
G01X1380374Y1319563D02*
G01X1380256Y1319996D01*
G01X1380256Y1319996D02*
G01X1380126Y1320421D01*
G01X1380126Y1320421D02*
G01X1379980Y1320843D01*
G01X1379980Y1320843D02*
G01X1379823Y1321260D01*
G01X1379823Y1321260D02*
G01X1379646Y1321669D01*
G01X1379646Y1321669D02*
G01X1379457Y1322075D01*
G01X1379457Y1322075D02*
G01X1379256Y1322472D01*
G01X1379256Y1322472D02*
G01X1379039Y1322862D01*
G01X1379039Y1322862D02*
G01X1378811Y1323244D01*
G01X1378811Y1323244D02*
G01X1378567Y1323618D01*
G01X1378567Y1323618D02*
G01X1378311Y1323984D01*
G01X1378311Y1323984D02*
G01X1378043Y1324339D01*
G01X1378043Y1324339D02*
G01X1377764Y1324685D01*
G01X1377764Y1324685D02*
G01X1377469Y1325024D01*
G01X1377469Y1325024D02*
G01X1377165Y1325350D01*
G01X1377165Y1325350D02*
G01X1376850Y1325665D01*
G01X1376850Y1325665D02*
G01X1376524Y1325969D01*
G01X1376524Y1325969D02*
G01X1376185Y1326264D01*
G01X1376185Y1326264D02*
G01X1375839Y1326543D01*
G01X1375839Y1326543D02*
G01X1375484Y1326811D01*
G01X1375484Y1326811D02*
G01X1375118Y1327067D01*
G01X1375118Y1327067D02*
G01X1374744Y1327311D01*
G01X1374744Y1327311D02*
G01X1374362Y1327539D01*
G01X1374362Y1327539D02*
G01X1373972Y1327756D01*
G01X1373972Y1327756D02*
G01X1373575Y1327957D01*
G01X1373575Y1327957D02*
G01X1373169Y1328146D01*
G01X1373169Y1328146D02*
G01X1372760Y1328323D01*
G01X1372760Y1328323D02*
G01X1372343Y1328480D01*
G01X1372343Y1328480D02*
G01X1371921Y1328626D01*
G01X1371921Y1328626D02*
G01X1371496Y1328756D01*
G01X1371496Y1328756D02*
G01X1371063Y1328874D01*
G01X1371063Y1328874D02*
G01X1370630Y1328972D01*
G01X1370630Y1328972D02*
G01X1370193Y1329059D01*
G01X1370193Y1329059D02*
G01X1369752Y1329126D01*
G01X1369752Y1329126D02*
G01X1369307Y1329181D01*
G01X1369307Y1329181D02*
G01X1368862Y1329220D01*
G01X1368862Y1329220D02*
G01X1368417Y1329244D01*
G01X1368417Y1329244D02*
G01X1367972Y1329252D01*
G01X1367972Y1329252D02*
G01X1367528Y1329244D01*
G01X1367528Y1329244D02*
G01X1367083Y1329220D01*
G01X1367083Y1329220D02*
G01X1366638Y1329181D01*
G01X1366638Y1329181D02*
G01X1366193Y1329126D01*
G01X1366193Y1329126D02*
G01X1365752Y1329059D01*
G01X1365752Y1329059D02*
G01X1365315Y1328972D01*
G01X1365315Y1328972D02*
G01X1364882Y1328874D01*
G01X1364882Y1328874D02*
G01X1364449Y1328756D01*
G01X1364449Y1328756D02*
G01X1364024Y1328626D01*
G01X1364024Y1328626D02*
G01X1363602Y1328480D01*
G01X1363602Y1328480D02*
G01X1363185Y1328323D01*
G01X1363185Y1328323D02*
G01X1362776Y1328146D01*
G01X1362776Y1328146D02*
G01X1362370Y1327957D01*
G01X1362370Y1327957D02*
G01X1361972Y1327756D01*
G01X1361972Y1327756D02*
G01X1361583Y1327539D01*
G01X1361583Y1327539D02*
G01X1361201Y1327311D01*
G01X1361201Y1327311D02*
G01X1360827Y1327067D01*
G01X1360827Y1327067D02*
G01X1360461Y1326811D01*
G01X1360461Y1326811D02*
G01X1360106Y1326543D01*
G01X1360106Y1326543D02*
G01X1359760Y1326264D01*
G01X1359760Y1326264D02*
G01X1359421Y1325969D01*
G01X1359421Y1325969D02*
G01X1359094Y1325665D01*
G01X1359094Y1325665D02*
G01X1358780Y1325350D01*
G01X1358780Y1325350D02*
G01X1358476Y1325024D01*
G01X1358476Y1325024D02*
G01X1358181Y1324685D01*
G01X1358181Y1324685D02*
G01X1357902Y1324339D01*
G01X1357902Y1324339D02*
G01X1357634Y1323984D01*
G01X1357634Y1323984D02*
G01X1357378Y1323618D01*
G01X1357378Y1323618D02*
G01X1357134Y1323244D01*
G01X1357134Y1323244D02*
G01X1356906Y1322862D01*
G01X1356906Y1322862D02*
G01X1356689Y1322472D01*
G01X1356689Y1322472D02*
G01X1356488Y1322075D01*
G01X1356488Y1322075D02*
G01X1356299Y1321669D01*
G01X1356299Y1321669D02*
G01X1356122Y1321260D01*
G01X1356122Y1321260D02*
G01X1355965Y1320843D01*
G01X1355965Y1320843D02*
G01X1355819Y1320421D01*
G01X1355819Y1320421D02*
G01X1355689Y1319996D01*
G01X1355689Y1319996D02*
G01X1355571Y1319563D01*
G01X1355571Y1319563D02*
G01X1355472Y1319130D01*
G01X1355472Y1319130D02*
G01X1355386Y1318693D01*
G01X1355386Y1318693D02*
G01X1355319Y1318252D01*
G01X1355319Y1318252D02*
G01X1355264Y1317807D01*
G01X1355264Y1317807D02*
G01X1355224Y1317362D01*
G01X1355224Y1317362D02*
G01X1355201Y1316917D01*
G01X1355201Y1316917D02*
G01X1355193Y1316472D01*
G01X1355193Y1316472D02*
G01X1355193Y1296028D01*
G01X1355193Y1296028D02*
G01X1355201Y1295583D01*
G01X1355201Y1295583D02*
G01X1355224Y1295138D01*
G01X1355224Y1295138D02*
G01X1355264Y1294693D01*
G01X1355264Y1294693D02*
G01X1355319Y1294248D01*
G01X1355319Y1294248D02*
G01X1355386Y1293807D01*
G01X1355386Y1293807D02*
G01X1355472Y1293370D01*
G01X1355472Y1293370D02*
G01X1355571Y1292937D01*
G01X1355571Y1292937D02*
G01X1355689Y1292504D01*
G01X1355689Y1292504D02*
G01X1355819Y1292079D01*
G01X1355819Y1292079D02*
G01X1355965Y1291657D01*
G01X1355965Y1291657D02*
G01X1356122Y1291240D01*
G01X1356122Y1291240D02*
G01X1356299Y1290831D01*
G01X1356299Y1290831D02*
G01X1356488Y1290425D01*
G01X1356488Y1290425D02*
G01X1356689Y1290028D01*
G01X1356689Y1290028D02*
G01X1356906Y1289638D01*
G01X1356906Y1289638D02*
G01X1357134Y1289256D01*
G01X1357134Y1289256D02*
G01X1357378Y1288882D01*
G01X1357378Y1288882D02*
G01X1357634Y1288516D01*
G01X1357634Y1288516D02*
G01X1357902Y1288161D01*
G01X1357902Y1288161D02*
G01X1358181Y1287815D01*
G01X1358181Y1287815D02*
G01X1358476Y1287476D01*
G01X1358476Y1287476D02*
G01X1358780Y1287150D01*
G01X1358780Y1287150D02*
G01X1359094Y1286835D01*
G01X1359094Y1286835D02*
G01X1359421Y1286531D01*
G01X1359421Y1286531D02*
G01X1359760Y1286236D01*
G01X1359760Y1286236D02*
G01X1360106Y1285957D01*
G01X1360106Y1285957D02*
G01X1360461Y1285689D01*
G01X1360461Y1285689D02*
G01X1360827Y1285433D01*
G01X1360827Y1285433D02*
G01X1361201Y1285189D01*
G01X1361201Y1285189D02*
G01X1361583Y1284961D01*
G01X1361583Y1284961D02*
G01X1361972Y1284744D01*
G01X1361972Y1284744D02*
G01X1362370Y1284543D01*
G01X1362370Y1284543D02*
G01X1362776Y1284354D01*
G01X1362776Y1284354D02*
G01X1363185Y1284177D01*
G01X1363185Y1284177D02*
G01X1363602Y1284020D01*
G01X1363602Y1284020D02*
G01X1364024Y1283874D01*
G01X1364024Y1283874D02*
G01X1364449Y1283744D01*
G01X1364449Y1283744D02*
G01X1364882Y1283626D01*
G01X1364882Y1283626D02*
G01X1365315Y1283528D01*
G01X1365315Y1283528D02*
G01X1365752Y1283441D01*
G01X1365752Y1283441D02*
G01X1366193Y1283374D01*
G01X1366193Y1283374D02*
G01X1366638Y1283319D01*
G01X1366638Y1283319D02*
G01X1367083Y1283280D01*
G01X1367083Y1283280D02*
G01X1367528Y1283256D01*
G01X1367528Y1283256D02*
G01X1367972Y1283248D01*
G01X1367972Y1283248D02*
G01X1368417Y1283256D01*
G01X1368417Y1283256D02*
G01X1368862Y1283280D01*
G01X1368862Y1283280D02*
G01X1369307Y1283319D01*
G01X1369307Y1283319D02*
G01X1369752Y1283374D01*
G01X1369752Y1283374D02*
G01X1370193Y1283441D01*
G01X1370193Y1283441D02*
G01X1370630Y1283528D01*
G01X1370630Y1283528D02*
G01X1371063Y1283626D01*
G01X1371063Y1283626D02*
G01X1371496Y1283744D01*
G01X1371496Y1283744D02*
G01X1371921Y1283874D01*
G01X1371921Y1283874D02*
G01X1372343Y1284020D01*
G01X1372343Y1284020D02*
G01X1372760Y1284177D01*
G01X1372760Y1284177D02*
G01X1373169Y1284354D01*
G01X1373169Y1284354D02*
G01X1373575Y1284543D01*
G01X1373575Y1284543D02*
G01X1373972Y1284744D01*
G01X1373972Y1284744D02*
G01X1374362Y1284961D01*
G01X1374362Y1284961D02*
G01X1374744Y1285189D01*
G01X1374744Y1285189D02*
G01X1375118Y1285433D01*
G01X1375118Y1285433D02*
G01X1375484Y1285689D01*
G01X1375484Y1285689D02*
G01X1375839Y1285957D01*
G01X1375839Y1285957D02*
G01X1376185Y1286236D01*
G01X1376185Y1286236D02*
G01X1376524Y1286531D01*
G01X1376524Y1286531D02*
G01X1376850Y1286835D01*
G01X1376850Y1286835D02*
G01X1377165Y1287150D01*
G01X1377165Y1287150D02*
G01X1377469Y1287476D01*
G01X1377469Y1287476D02*
G01X1377764Y1287815D01*
G01X1377764Y1287815D02*
G01X1378043Y1288161D01*
G01X1378043Y1288161D02*
G01X1378311Y1288516D01*
G01X1378311Y1288516D02*
G01X1378567Y1288882D01*
G01X1378567Y1288882D02*
G01X1378811Y1289256D01*
G01X1378811Y1289256D02*
G01X1379039Y1289638D01*
G01X1379039Y1289638D02*
G01X1379256Y1290028D01*
G01X1379256Y1290028D02*
G01X1379457Y1290425D01*
G01X1379457Y1290425D02*
G01X1379646Y1290831D01*
G01X1379646Y1290831D02*
G01X1379823Y1291240D01*
G01X1379823Y1291240D02*
G01X1379980Y1291657D01*
G01X1379980Y1291657D02*
G01X1380126Y1292079D01*
G01X1380126Y1292079D02*
G01X1380256Y1292504D01*
G01X1380256Y1292504D02*
G01X1380374Y1292937D01*
G01X1380374Y1292937D02*
G01X1380472Y1293370D01*
G01X1380472Y1293370D02*
G01X1380559Y1293807D01*
G01X1380559Y1293807D02*
G01X1380626Y1294248D01*
G01X1380626Y1294248D02*
G01X1380681Y1294693D01*
G01X1380681Y1294693D02*
G01X1380720Y1295138D01*
G01X1380720Y1295138D02*
G01X1380744Y1295583D01*
G01X1380744Y1295583D02*
G01X1380752Y1296028D01*
G01X1335752Y1319028D02*
G01X1322972Y1329252D01*
G01X1322972Y1329252D02*
G01X1322972Y1283252D01*
G01X1335752Y1283252D02*
G01X1310193Y1283252D01*
G54D12*
G01X1277500Y1453752D02*
G01X1277500Y1283752D01*
G01X1207500Y1273752D02*
G01X1207106Y1273760D01*
G01X1207106Y1273760D02*
G01X1206717Y1273783D01*
G01X1206717Y1273783D02*
G01X1206323Y1273823D01*
G01X1206323Y1273823D02*
G01X1205937Y1273874D01*
G01X1205937Y1273874D02*
G01X1205547Y1273945D01*
G01X1205547Y1273945D02*
G01X1205165Y1274028D01*
G01X1205165Y1274028D02*
G01X1204787Y1274126D01*
G01X1204787Y1274126D02*
G01X1204409Y1274240D01*
G01X1204409Y1274240D02*
G01X1204039Y1274370D01*
G01X1204039Y1274370D02*
G01X1203673Y1274512D01*
G01X1203673Y1274512D02*
G01X1203315Y1274669D01*
G01X1203315Y1274669D02*
G01X1202961Y1274843D01*
G01X1202961Y1274843D02*
G01X1202614Y1275028D01*
G01X1202614Y1275028D02*
G01X1202276Y1275224D01*
G01X1202276Y1275224D02*
G01X1201945Y1275437D01*
G01X1201945Y1275437D02*
G01X1201622Y1275661D01*
G01X1201622Y1275661D02*
G01X1201311Y1275898D01*
G01X1201311Y1275898D02*
G01X1201004Y1276150D01*
G01X1201004Y1276150D02*
G01X1200713Y1276409D01*
G01X1200713Y1276409D02*
G01X1200429Y1276681D01*
G01X1200429Y1276681D02*
G01X1200157Y1276965D01*
G01X1200157Y1276965D02*
G01X1199898Y1277256D01*
G01X1199898Y1277256D02*
G01X1199646Y1277563D01*
G01X1199646Y1277563D02*
G01X1199409Y1277874D01*
G01X1199409Y1277874D02*
G01X1199185Y1278197D01*
G01X1199185Y1278197D02*
G01X1198972Y1278528D01*
G01X1198972Y1278528D02*
G01X1198776Y1278866D01*
G01X1198776Y1278866D02*
G01X1198591Y1279213D01*
G01X1198591Y1279213D02*
G01X1198417Y1279567D01*
G01X1198417Y1279567D02*
G01X1198260Y1279925D01*
G01X1198260Y1279925D02*
G01X1198118Y1280291D01*
G01X1198118Y1280291D02*
G01X1197988Y1280661D01*
G01X1197988Y1280661D02*
G01X1197874Y1281039D01*
G01X1197874Y1281039D02*
G01X1197776Y1281417D01*
G01X1197776Y1281417D02*
G01X1197693Y1281799D01*
G01X1197693Y1281799D02*
G01X1197622Y1282189D01*
G01X1197622Y1282189D02*
G01X1197571Y1282575D01*
G01X1197571Y1282575D02*
G01X1197531Y1282969D01*
G01X1197531Y1282969D02*
G01X1197508Y1283358D01*
G01X1197508Y1283358D02*
G01X1197500Y1283752D01*
G01X1197500Y1453752D02*
G01X1197508Y1454146D01*
G01X1197508Y1454146D02*
G01X1197531Y1454535D01*
G01X1197531Y1454535D02*
G01X1197571Y1454929D01*
G01X1197571Y1454929D02*
G01X1197622Y1455315D01*
G01X1197622Y1455315D02*
G01X1197693Y1455705D01*
G01X1197693Y1455705D02*
G01X1197776Y1456087D01*
G01X1197776Y1456087D02*
G01X1197874Y1456465D01*
G01X1197874Y1456465D02*
G01X1197988Y1456843D01*
G01X1197988Y1456843D02*
G01X1198118Y1457213D01*
G01X1198118Y1457213D02*
G01X1198260Y1457579D01*
G01X1198260Y1457579D02*
G01X1198417Y1457937D01*
G01X1198417Y1457937D02*
G01X1198591Y1458291D01*
G01X1198591Y1458291D02*
G01X1198776Y1458638D01*
G01X1198776Y1458638D02*
G01X1198972Y1458976D01*
G01X1198972Y1458976D02*
G01X1199185Y1459307D01*
G01X1199185Y1459307D02*
G01X1199409Y1459630D01*
G01X1199409Y1459630D02*
G01X1199646Y1459941D01*
G01X1199646Y1459941D02*
G01X1199898Y1460248D01*
G01X1199898Y1460248D02*
G01X1200157Y1460539D01*
G01X1200157Y1460539D02*
G01X1200429Y1460823D01*
G01X1200429Y1460823D02*
G01X1200713Y1461094D01*
G01X1200713Y1461094D02*
G01X1201004Y1461354D01*
G01X1201004Y1461354D02*
G01X1201311Y1461606D01*
G01X1201311Y1461606D02*
G01X1201622Y1461843D01*
G01X1201622Y1461843D02*
G01X1201945Y1462067D01*
G01X1201945Y1462067D02*
G01X1202276Y1462280D01*
G01X1202276Y1462280D02*
G01X1202614Y1462476D01*
G01X1202614Y1462476D02*
G01X1202961Y1462661D01*
G01X1202961Y1462661D02*
G01X1203315Y1462835D01*
G01X1203315Y1462835D02*
G01X1203673Y1462992D01*
G01X1203673Y1462992D02*
G01X1204039Y1463134D01*
G01X1204039Y1463134D02*
G01X1204409Y1463264D01*
G01X1204409Y1463264D02*
G01X1204787Y1463378D01*
G01X1204787Y1463378D02*
G01X1205165Y1463476D01*
G01X1205165Y1463476D02*
G01X1205547Y1463559D01*
G01X1205547Y1463559D02*
G01X1205937Y1463630D01*
G01X1205937Y1463630D02*
G01X1206323Y1463681D01*
G01X1206323Y1463681D02*
G01X1206717Y1463720D01*
G01X1206717Y1463720D02*
G01X1207106Y1463744D01*
G01X1207106Y1463744D02*
G01X1207500Y1463752D01*
G01X1267500Y1463752D02*
G01X1267894Y1463744D01*
G01X1267894Y1463744D02*
G01X1268283Y1463720D01*
G01X1268283Y1463720D02*
G01X1268677Y1463681D01*
G01X1268677Y1463681D02*
G01X1269063Y1463630D01*
G01X1269063Y1463630D02*
G01X1269453Y1463559D01*
G01X1269453Y1463559D02*
G01X1269835Y1463476D01*
G01X1269835Y1463476D02*
G01X1270213Y1463378D01*
G01X1270213Y1463378D02*
G01X1270591Y1463264D01*
G01X1270591Y1463264D02*
G01X1270961Y1463134D01*
G01X1270961Y1463134D02*
G01X1271327Y1462992D01*
G01X1271327Y1462992D02*
G01X1271685Y1462835D01*
G01X1271685Y1462835D02*
G01X1272039Y1462661D01*
G01X1272039Y1462661D02*
G01X1272386Y1462476D01*
G01X1272386Y1462476D02*
G01X1272724Y1462280D01*
G01X1272724Y1462280D02*
G01X1273055Y1462067D01*
G01X1273055Y1462067D02*
G01X1273378Y1461843D01*
G01X1273378Y1461843D02*
G01X1273689Y1461606D01*
G01X1273689Y1461606D02*
G01X1273996Y1461354D01*
G01X1273996Y1461354D02*
G01X1274287Y1461094D01*
G01X1274287Y1461094D02*
G01X1274571Y1460823D01*
G01X1274571Y1460823D02*
G01X1274843Y1460539D01*
G01X1274843Y1460539D02*
G01X1275102Y1460248D01*
G01X1275102Y1460248D02*
G01X1275354Y1459941D01*
G01X1275354Y1459941D02*
G01X1275591Y1459630D01*
G01X1275591Y1459630D02*
G01X1275815Y1459307D01*
G01X1275815Y1459307D02*
G01X1276028Y1458976D01*
G01X1276028Y1458976D02*
G01X1276224Y1458638D01*
G01X1276224Y1458638D02*
G01X1276409Y1458291D01*
G01X1276409Y1458291D02*
G01X1276583Y1457937D01*
G01X1276583Y1457937D02*
G01X1276740Y1457579D01*
G01X1276740Y1457579D02*
G01X1276882Y1457213D01*
G01X1276882Y1457213D02*
G01X1277012Y1456843D01*
G01X1277012Y1456843D02*
G01X1277126Y1456465D01*
G01X1277126Y1456465D02*
G01X1277224Y1456087D01*
G01X1277224Y1456087D02*
G01X1277307Y1455705D01*
G01X1277307Y1455705D02*
G01X1277378Y1455315D01*
G01X1277378Y1455315D02*
G01X1277429Y1454929D01*
G01X1277429Y1454929D02*
G01X1277469Y1454535D01*
G01X1277469Y1454535D02*
G01X1277492Y1454146D01*
G01X1277492Y1454146D02*
G01X1277500Y1453752D01*
G01X1277500Y1283752D02*
G01X1277492Y1283358D01*
G01X1277492Y1283358D02*
G01X1277469Y1282969D01*
G01X1277469Y1282969D02*
G01X1277429Y1282575D01*
G01X1277429Y1282575D02*
G01X1277378Y1282189D01*
G01X1277378Y1282189D02*
G01X1277307Y1281799D01*
G01X1277307Y1281799D02*
G01X1277224Y1281417D01*
G01X1277224Y1281417D02*
G01X1277126Y1281039D01*
G01X1277126Y1281039D02*
G01X1277012Y1280661D01*
G01X1277012Y1280661D02*
G01X1276882Y1280291D01*
G01X1276882Y1280291D02*
G01X1276740Y1279925D01*
G01X1276740Y1279925D02*
G01X1276583Y1279567D01*
G01X1276583Y1279567D02*
G01X1276409Y1279213D01*
G01X1276409Y1279213D02*
G01X1276224Y1278866D01*
G01X1276224Y1278866D02*
G01X1276028Y1278528D01*
G01X1276028Y1278528D02*
G01X1275815Y1278197D01*
G01X1275815Y1278197D02*
G01X1275591Y1277874D01*
G01X1275591Y1277874D02*
G01X1275354Y1277563D01*
G01X1275354Y1277563D02*
G01X1275102Y1277256D01*
G01X1275102Y1277256D02*
G01X1274843Y1276965D01*
G01X1274843Y1276965D02*
G01X1274571Y1276681D01*
G01X1274571Y1276681D02*
G01X1274287Y1276409D01*
G01X1274287Y1276409D02*
G01X1273996Y1276150D01*
G01X1273996Y1276150D02*
G01X1273689Y1275898D01*
G01X1273689Y1275898D02*
G01X1273378Y1275661D01*
G01X1273378Y1275661D02*
G01X1273055Y1275437D01*
G01X1273055Y1275437D02*
G01X1272724Y1275224D01*
G01X1272724Y1275224D02*
G01X1272386Y1275028D01*
G01X1272386Y1275028D02*
G01X1272039Y1274843D01*
G01X1272039Y1274843D02*
G01X1271685Y1274669D01*
G01X1271685Y1274669D02*
G01X1271327Y1274512D01*
G01X1271327Y1274512D02*
G01X1270961Y1274370D01*
G01X1270961Y1274370D02*
G01X1270591Y1274240D01*
G01X1270591Y1274240D02*
G01X1270213Y1274126D01*
G01X1270213Y1274126D02*
G01X1269835Y1274028D01*
G01X1269835Y1274028D02*
G01X1269453Y1273945D01*
G01X1269453Y1273945D02*
G01X1269063Y1273874D01*
G01X1269063Y1273874D02*
G01X1268677Y1273823D01*
G01X1268677Y1273823D02*
G01X1268283Y1273783D01*
G01X1268283Y1273783D02*
G01X1267894Y1273760D01*
G01X1267894Y1273760D02*
G01X1267500Y1273752D01*
G01X1267500Y1273752D02*
G01X1207500Y1273752D01*
G01X1207500Y1463752D02*
G01X1267500Y1463752D01*
G01X1197500Y1453752D02*
G01X1197500Y1283752D01*
G01X1237500Y1278752D02*
G01X1237500Y1298752D01*
G01X1237500Y1438752D02*
G01X1237500Y1458752D01*
G01X1207500Y1368752D02*
G01X1197500Y1368752D01*
G01X1267500Y1368752D02*
G01X1277500Y1368752D01*
G54D13*
G01X1210114Y1326256D02*
G01X1237500Y1328748D01*
G01X1237500Y1328748D02*
G01X1237500Y1328748D01*
G01X1237500Y1328748D02*
G01X1264886Y1326256D01*
G01X1264886Y1326256D02*
G01X1264819Y1325587D01*
G01X1264819Y1325587D02*
G01X1264732Y1324917D01*
G01X1264732Y1324917D02*
G01X1264630Y1324256D01*
G01X1264630Y1324256D02*
G01X1264512Y1323591D01*
G01X1264512Y1323591D02*
G01X1264378Y1322933D01*
G01X1264378Y1322933D02*
G01X1264228Y1322276D01*
G01X1264228Y1322276D02*
G01X1264059Y1321626D01*
G01X1264059Y1321626D02*
G01X1263878Y1320976D01*
G01X1263878Y1320976D02*
G01X1263681Y1320335D01*
G01X1263681Y1320335D02*
G01X1263469Y1319697D01*
G01X1263469Y1319697D02*
G01X1263236Y1319063D01*
G01X1263236Y1319063D02*
G01X1262992Y1318437D01*
G01X1262992Y1318437D02*
G01X1262732Y1317819D01*
G01X1262732Y1317819D02*
G01X1262457Y1317205D01*
G01X1262457Y1317205D02*
G01X1262169Y1316598D01*
G01X1262169Y1316598D02*
G01X1261862Y1315996D01*
G01X1261862Y1315996D02*
G01X1261543Y1315406D01*
G01X1261543Y1315406D02*
G01X1261209Y1314823D01*
G01X1261209Y1314823D02*
G01X1260862Y1314244D01*
G01X1260862Y1314244D02*
G01X1260500Y1313677D01*
G01X1260500Y1313677D02*
G01X1260126Y1313122D01*
G01X1260126Y1313122D02*
G01X1259736Y1312571D01*
G01X1259736Y1312571D02*
G01X1259335Y1312031D01*
G01X1259335Y1312031D02*
G01X1258917Y1311504D01*
G01X1258917Y1311504D02*
G01X1258488Y1310984D01*
G01X1258488Y1310984D02*
G01X1258047Y1310476D01*
G01X1258047Y1310476D02*
G01X1257594Y1309980D01*
G01X1257594Y1309980D02*
G01X1257130Y1309492D01*
G01X1257130Y1309492D02*
G01X1256654Y1309020D01*
G01X1256654Y1309020D02*
G01X1256165Y1308555D01*
G01X1256165Y1308555D02*
G01X1255665Y1308106D01*
G01X1255665Y1308106D02*
G01X1255157Y1307669D01*
G01X1255157Y1307669D02*
G01X1254634Y1307244D01*
G01X1254634Y1307244D02*
G01X1254102Y1306831D01*
G01X1254102Y1306831D02*
G01X1253563Y1306429D01*
G01X1253563Y1306429D02*
G01X1253012Y1306043D01*
G01X1253012Y1306043D02*
G01X1252453Y1305673D01*
G01X1252453Y1305673D02*
G01X1251882Y1305311D01*
G01X1251882Y1305311D02*
G01X1251303Y1304969D01*
G01X1251303Y1304969D02*
G01X1250720Y1304638D01*
G01X1250720Y1304638D02*
G01X1250126Y1304323D01*
G01X1250126Y1304323D02*
G01X1249524Y1304020D01*
G01X1249524Y1304020D02*
G01X1248917Y1303732D01*
G01X1248917Y1303732D02*
G01X1248299Y1303461D01*
G01X1248299Y1303461D02*
G01X1247677Y1303205D01*
G01X1247677Y1303205D02*
G01X1247051Y1302965D01*
G01X1247051Y1302965D02*
G01X1246417Y1302736D01*
G01X1246417Y1302736D02*
G01X1245780Y1302528D01*
G01X1245780Y1302528D02*
G01X1245134Y1302335D01*
G01X1245134Y1302335D02*
G01X1244484Y1302154D01*
G01X1244484Y1302154D02*
G01X1243835Y1301992D01*
G01X1243835Y1301992D02*
G01X1243177Y1301843D01*
G01X1243177Y1301843D02*
G01X1242516Y1301713D01*
G01X1242516Y1301713D02*
G01X1241854Y1301598D01*
G01X1241854Y1301598D02*
G01X1241189Y1301500D01*
G01X1241189Y1301500D02*
G01X1240520Y1301417D01*
G01X1240520Y1301417D02*
G01X1239850Y1301354D01*
G01X1239850Y1301354D02*
G01X1239181Y1301303D01*
G01X1239181Y1301303D02*
G01X1238508Y1301272D01*
G01X1238508Y1301272D02*
G01X1237835Y1301256D01*
G01X1237835Y1301256D02*
G01X1237165Y1301256D01*
G01X1237165Y1301256D02*
G01X1236492Y1301272D01*
G01X1236492Y1301272D02*
G01X1235819Y1301303D01*
G01X1235819Y1301303D02*
G01X1235150Y1301354D01*
G01X1235150Y1301354D02*
G01X1234480Y1301417D01*
G01X1234480Y1301417D02*
G01X1233811Y1301500D01*
G01X1233811Y1301500D02*
G01X1233146Y1301598D01*
G01X1233146Y1301598D02*
G01X1232484Y1301713D01*
G01X1232484Y1301713D02*
G01X1231823Y1301843D01*
G01X1231823Y1301843D02*
G01X1231165Y1301992D01*
G01X1231165Y1301992D02*
G01X1230516Y1302154D01*
G01X1230516Y1302154D02*
G01X1229866Y1302335D01*
G01X1229866Y1302335D02*
G01X1229220Y1302528D01*
G01X1229220Y1302528D02*
G01X1228583Y1302736D01*
G01X1228583Y1302736D02*
G01X1227949Y1302965D01*
G01X1227949Y1302965D02*
G01X1227323Y1303205D01*
G01X1227323Y1303205D02*
G01X1226701Y1303461D01*
G01X1226701Y1303461D02*
G01X1226083Y1303732D01*
G01X1226083Y1303732D02*
G01X1225476Y1304020D01*
G01X1225476Y1304020D02*
G01X1224874Y1304323D01*
G01X1224874Y1304323D02*
G01X1224280Y1304638D01*
G01X1224280Y1304638D02*
G01X1223697Y1304969D01*
G01X1223697Y1304969D02*
G01X1223118Y1305311D01*
G01X1223118Y1305311D02*
G01X1222547Y1305673D01*
G01X1222547Y1305673D02*
G01X1221988Y1306043D01*
G01X1221988Y1306043D02*
G01X1221437Y1306429D01*
G01X1221437Y1306429D02*
G01X1220898Y1306831D01*
G01X1220898Y1306831D02*
G01X1220366Y1307244D01*
G01X1220366Y1307244D02*
G01X1219843Y1307669D01*
G01X1219843Y1307669D02*
G01X1219335Y1308106D01*
G01X1219335Y1308106D02*
G01X1218835Y1308555D01*
G01X1218835Y1308555D02*
G01X1218346Y1309020D01*
G01X1218346Y1309020D02*
G01X1217870Y1309492D01*
G01X1217870Y1309492D02*
G01X1217406Y1309980D01*
G01X1217406Y1309980D02*
G01X1216953Y1310476D01*
G01X1216953Y1310476D02*
G01X1216512Y1310984D01*
G01X1216512Y1310984D02*
G01X1216083Y1311504D01*
G01X1216083Y1311504D02*
G01X1215665Y1312031D01*
G01X1215665Y1312031D02*
G01X1215264Y1312571D01*
G01X1215264Y1312571D02*
G01X1214874Y1313122D01*
G01X1214874Y1313122D02*
G01X1214500Y1313677D01*
G01X1214500Y1313677D02*
G01X1214138Y1314244D01*
G01X1214138Y1314244D02*
G01X1213791Y1314823D01*
G01X1213791Y1314823D02*
G01X1213457Y1315406D01*
G01X1213457Y1315406D02*
G01X1213138Y1315996D01*
G01X1213138Y1315996D02*
G01X1212831Y1316598D01*
G01X1212831Y1316598D02*
G01X1212543Y1317205D01*
G01X1212543Y1317205D02*
G01X1212268Y1317819D01*
G01X1212268Y1317819D02*
G01X1212008Y1318437D01*
G01X1212008Y1318437D02*
G01X1211764Y1319063D01*
G01X1211764Y1319063D02*
G01X1211531Y1319697D01*
G01X1211531Y1319697D02*
G01X1211319Y1320335D01*
G01X1211319Y1320335D02*
G01X1211122Y1320976D01*
G01X1211122Y1320976D02*
G01X1210941Y1321626D01*
G01X1210941Y1321626D02*
G01X1210772Y1322276D01*
G01X1210772Y1322276D02*
G01X1210622Y1322933D01*
G01X1210622Y1322933D02*
G01X1210488Y1323591D01*
G01X1210488Y1323591D02*
G01X1210370Y1324256D01*
G01X1210370Y1324256D02*
G01X1210268Y1324917D01*
G01X1210268Y1324917D02*
G01X1210181Y1325587D01*
G01X1210181Y1325587D02*
G01X1210114Y1326256D01*
G01X1210114Y1326256D02*
G01X1214886Y1326256D01*
G01X1214886Y1326256D02*
G01X1214957Y1325669D01*
G01X1214957Y1325669D02*
G01X1215047Y1325083D01*
G01X1215047Y1325083D02*
G01X1215150Y1324496D01*
G01X1215150Y1324496D02*
G01X1215268Y1323913D01*
G01X1215268Y1323913D02*
G01X1215402Y1323339D01*
G01X1215402Y1323339D02*
G01X1215551Y1322764D01*
G01X1215551Y1322764D02*
G01X1215713Y1322193D01*
G01X1215713Y1322193D02*
G01X1215894Y1321626D01*
G01X1215894Y1321626D02*
G01X1216087Y1321063D01*
G01X1216087Y1321063D02*
G01X1216295Y1320508D01*
G01X1216295Y1320508D02*
G01X1216516Y1319957D01*
G01X1216516Y1319957D02*
G01X1216752Y1319413D01*
G01X1216752Y1319413D02*
G01X1217004Y1318874D01*
G01X1217004Y1318874D02*
G01X1217268Y1318343D01*
G01X1217268Y1318343D02*
G01X1217547Y1317819D01*
G01X1217547Y1317819D02*
G01X1217839Y1317303D01*
G01X1217839Y1317303D02*
G01X1218142Y1316795D01*
G01X1218142Y1316795D02*
G01X1218461Y1316295D01*
G01X1218461Y1316295D02*
G01X1218795Y1315803D01*
G01X1218795Y1315803D02*
G01X1219138Y1315319D01*
G01X1219138Y1315319D02*
G01X1219496Y1314843D01*
G01X1219496Y1314843D02*
G01X1219862Y1314378D01*
G01X1219862Y1314378D02*
G01X1220244Y1313921D01*
G01X1220244Y1313921D02*
G01X1220638Y1313476D01*
G01X1220638Y1313476D02*
G01X1221039Y1313043D01*
G01X1221039Y1313043D02*
G01X1221457Y1312618D01*
G01X1221457Y1312618D02*
G01X1221882Y1312205D01*
G01X1221882Y1312205D02*
G01X1222319Y1311803D01*
G01X1222319Y1311803D02*
G01X1222768Y1311413D01*
G01X1222768Y1311413D02*
G01X1223224Y1311035D01*
G01X1223224Y1311035D02*
G01X1223693Y1310669D01*
G01X1223693Y1310669D02*
G01X1224169Y1310315D01*
G01X1224169Y1310315D02*
G01X1224654Y1309972D01*
G01X1224654Y1309972D02*
G01X1225146Y1309646D01*
G01X1225146Y1309646D02*
G01X1225650Y1309331D01*
G01X1225650Y1309331D02*
G01X1226161Y1309028D01*
G01X1226161Y1309028D02*
G01X1226677Y1308736D01*
G01X1226677Y1308736D02*
G01X1227205Y1308465D01*
G01X1227205Y1308465D02*
G01X1227736Y1308201D01*
G01X1227736Y1308201D02*
G01X1228276Y1307953D01*
G01X1228276Y1307953D02*
G01X1228823Y1307720D01*
G01X1228823Y1307720D02*
G01X1229374Y1307500D01*
G01X1229374Y1307500D02*
G01X1229929Y1307295D01*
G01X1229929Y1307295D02*
G01X1230492Y1307106D01*
G01X1230492Y1307106D02*
G01X1231059Y1306929D01*
G01X1231059Y1306929D02*
G01X1231630Y1306772D01*
G01X1231630Y1306772D02*
G01X1232209Y1306626D01*
G01X1232209Y1306626D02*
G01X1232787Y1306492D01*
G01X1232787Y1306492D02*
G01X1233370Y1306378D01*
G01X1233370Y1306378D02*
G01X1233953Y1306280D01*
G01X1233953Y1306280D02*
G01X1234539Y1306193D01*
G01X1234539Y1306193D02*
G01X1235130Y1306122D01*
G01X1235130Y1306122D02*
G01X1235720Y1306071D01*
G01X1235720Y1306071D02*
G01X1236315Y1306031D01*
G01X1236315Y1306031D02*
G01X1236906Y1306008D01*
G01X1236906Y1306008D02*
G01X1237500Y1306000D01*
G01X1237500Y1306000D02*
G01X1238094Y1306008D01*
G01X1238094Y1306008D02*
G01X1238685Y1306031D01*
G01X1238685Y1306031D02*
G01X1239280Y1306071D01*
G01X1239280Y1306071D02*
G01X1239870Y1306122D01*
G01X1239870Y1306122D02*
G01X1240461Y1306193D01*
G01X1240461Y1306193D02*
G01X1241047Y1306280D01*
G01X1241047Y1306280D02*
G01X1241630Y1306378D01*
G01X1241630Y1306378D02*
G01X1242213Y1306492D01*
G01X1242213Y1306492D02*
G01X1242791Y1306626D01*
G01X1242791Y1306626D02*
G01X1243370Y1306772D01*
G01X1243370Y1306772D02*
G01X1243941Y1306929D01*
G01X1243941Y1306929D02*
G01X1244508Y1307106D01*
G01X1244508Y1307106D02*
G01X1245071Y1307295D01*
G01X1245071Y1307295D02*
G01X1245626Y1307500D01*
G01X1245626Y1307500D02*
G01X1246177Y1307720D01*
G01X1246177Y1307720D02*
G01X1246724Y1307953D01*
G01X1246724Y1307953D02*
G01X1247264Y1308201D01*
G01X1247264Y1308201D02*
G01X1247795Y1308465D01*
G01X1247795Y1308465D02*
G01X1248323Y1308736D01*
G01X1248323Y1308736D02*
G01X1248839Y1309028D01*
G01X1248839Y1309028D02*
G01X1249350Y1309331D01*
G01X1249350Y1309331D02*
G01X1249854Y1309646D01*
G01X1249854Y1309646D02*
G01X1250346Y1309972D01*
G01X1250346Y1309972D02*
G01X1250831Y1310315D01*
G01X1250831Y1310315D02*
G01X1251307Y1310669D01*
G01X1251307Y1310669D02*
G01X1251776Y1311035D01*
G01X1251776Y1311035D02*
G01X1252232Y1311413D01*
G01X1252232Y1311413D02*
G01X1252681Y1311803D01*
G01X1252681Y1311803D02*
G01X1253118Y1312205D01*
G01X1253118Y1312205D02*
G01X1253543Y1312618D01*
G01X1253543Y1312618D02*
G01X1253961Y1313043D01*
G01X1253961Y1313043D02*
G01X1254362Y1313476D01*
G01X1254362Y1313476D02*
G01X1254756Y1313921D01*
G01X1254756Y1313921D02*
G01X1255138Y1314378D01*
G01X1255138Y1314378D02*
G01X1255504Y1314843D01*
G01X1255504Y1314843D02*
G01X1255862Y1315319D01*
G01X1255862Y1315319D02*
G01X1256205Y1315803D01*
G01X1256205Y1315803D02*
G01X1256539Y1316295D01*
G01X1256539Y1316295D02*
G01X1256858Y1316795D01*
G01X1256858Y1316795D02*
G01X1257161Y1317303D01*
G01X1257161Y1317303D02*
G01X1257453Y1317819D01*
G01X1257453Y1317819D02*
G01X1257732Y1318343D01*
G01X1257732Y1318343D02*
G01X1257996Y1318874D01*
G01X1257996Y1318874D02*
G01X1258248Y1319413D01*
G01X1258248Y1319413D02*
G01X1258484Y1319957D01*
G01X1258484Y1319957D02*
G01X1258705Y1320508D01*
G01X1258705Y1320508D02*
G01X1258913Y1321063D01*
G01X1258913Y1321063D02*
G01X1259106Y1321626D01*
G01X1259106Y1321626D02*
G01X1259287Y1322193D01*
G01X1259287Y1322193D02*
G01X1259449Y1322764D01*
G01X1259449Y1322764D02*
G01X1259598Y1323339D01*
G01X1259598Y1323339D02*
G01X1259732Y1323913D01*
G01X1259732Y1323913D02*
G01X1259850Y1324496D01*
G01X1259850Y1324496D02*
G01X1259953Y1325083D01*
G01X1259953Y1325083D02*
G01X1260043Y1325669D01*
G01X1260043Y1325669D02*
G01X1260114Y1326256D01*
G01X1260114Y1326256D02*
G01X1255331Y1326260D01*
G01X1255331Y1326260D02*
G01X1255252Y1325740D01*
G01X1255252Y1325740D02*
G01X1255154Y1325224D01*
G01X1255154Y1325224D02*
G01X1255043Y1324709D01*
G01X1255043Y1324709D02*
G01X1254917Y1324197D01*
G01X1254917Y1324197D02*
G01X1254780Y1323689D01*
G01X1254780Y1323689D02*
G01X1254622Y1323189D01*
G01X1254622Y1323189D02*
G01X1254453Y1322689D01*
G01X1254453Y1322689D02*
G01X1254268Y1322197D01*
G01X1254268Y1322197D02*
G01X1254071Y1321709D01*
G01X1254071Y1321709D02*
G01X1253858Y1321228D01*
G01X1253858Y1321228D02*
G01X1253630Y1320756D01*
G01X1253630Y1320756D02*
G01X1253390Y1320287D01*
G01X1253390Y1320287D02*
G01X1253134Y1319827D01*
G01X1253134Y1319827D02*
G01X1252866Y1319374D01*
G01X1252866Y1319374D02*
G01X1252587Y1318929D01*
G01X1252587Y1318929D02*
G01X1252295Y1318492D01*
G01X1252295Y1318492D02*
G01X1251988Y1318063D01*
G01X1251988Y1318063D02*
G01X1251669Y1317646D01*
G01X1251669Y1317646D02*
G01X1251339Y1317236D01*
G01X1251339Y1317236D02*
G01X1250996Y1316835D01*
G01X1250996Y1316835D02*
G01X1250642Y1316445D01*
G01X1250642Y1316445D02*
G01X1250276Y1316067D01*
G01X1250276Y1316067D02*
G01X1249902Y1315701D01*
G01X1249902Y1315701D02*
G01X1249516Y1315343D01*
G01X1249516Y1315343D02*
G01X1249118Y1314996D01*
G01X1249118Y1314996D02*
G01X1248709Y1314665D01*
G01X1248709Y1314665D02*
G01X1248295Y1314343D01*
G01X1248295Y1314343D02*
G01X1247870Y1314031D01*
G01X1247870Y1314031D02*
G01X1247433Y1313736D01*
G01X1247433Y1313736D02*
G01X1246992Y1313453D01*
G01X1246992Y1313453D02*
G01X1246539Y1313181D01*
G01X1246539Y1313181D02*
G01X1246083Y1312925D01*
G01X1246083Y1312925D02*
G01X1245614Y1312681D01*
G01X1245614Y1312681D02*
G01X1245142Y1312449D01*
G01X1245142Y1312449D02*
G01X1244661Y1312232D01*
G01X1244661Y1312232D02*
G01X1244177Y1312031D01*
G01X1244177Y1312031D02*
G01X1243685Y1311843D01*
G01X1243685Y1311843D02*
G01X1243189Y1311669D01*
G01X1243189Y1311669D02*
G01X1242685Y1311512D01*
G01X1242685Y1311512D02*
G01X1242181Y1311366D01*
G01X1242181Y1311366D02*
G01X1241669Y1311236D01*
G01X1241669Y1311236D02*
G01X1241157Y1311122D01*
G01X1241157Y1311122D02*
G01X1240642Y1311024D01*
G01X1240642Y1311024D02*
G01X1240122Y1310941D01*
G01X1240122Y1310941D02*
G01X1239598Y1310870D01*
G01X1239598Y1310870D02*
G01X1239075Y1310819D01*
G01X1239075Y1310819D02*
G01X1238551Y1310780D01*
G01X1238551Y1310780D02*
G01X1238028Y1310756D01*
G01X1238028Y1310756D02*
G01X1237500Y1310748D01*
G01X1237500Y1310748D02*
G01X1236972Y1310756D01*
G01X1236972Y1310756D02*
G01X1236449Y1310780D01*
G01X1236449Y1310780D02*
G01X1235925Y1310819D01*
G01X1235925Y1310819D02*
G01X1235402Y1310870D01*
G01X1235402Y1310870D02*
G01X1234878Y1310941D01*
G01X1234878Y1310941D02*
G01X1234358Y1311024D01*
G01X1234358Y1311024D02*
G01X1233843Y1311122D01*
G01X1233843Y1311122D02*
G01X1233331Y1311236D01*
G01X1233331Y1311236D02*
G01X1232819Y1311366D01*
G01X1232819Y1311366D02*
G01X1232315Y1311512D01*
G01X1232315Y1311512D02*
G01X1231811Y1311669D01*
G01X1231811Y1311669D02*
G01X1231315Y1311843D01*
G01X1231315Y1311843D02*
G01X1230823Y1312031D01*
G01X1230823Y1312031D02*
G01X1230339Y1312232D01*
G01X1230339Y1312232D02*
G01X1229858Y1312449D01*
G01X1229858Y1312449D02*
G01X1229386Y1312681D01*
G01X1229386Y1312681D02*
G01X1228917Y1312925D01*
G01X1228917Y1312925D02*
G01X1228461Y1313181D01*
G01X1228461Y1313181D02*
G01X1228008Y1313453D01*
G01X1228008Y1313453D02*
G01X1227567Y1313736D01*
G01X1227567Y1313736D02*
G01X1227130Y1314031D01*
G01X1227130Y1314031D02*
G01X1226705Y1314343D01*
G01X1226705Y1314343D02*
G01X1226291Y1314665D01*
G01X1226291Y1314665D02*
G01X1225882Y1314996D01*
G01X1225882Y1314996D02*
G01X1225484Y1315343D01*
G01X1225484Y1315343D02*
G01X1225098Y1315701D01*
G01X1225098Y1315701D02*
G01X1224724Y1316067D01*
G01X1224724Y1316067D02*
G01X1224358Y1316445D01*
G01X1224358Y1316445D02*
G01X1224004Y1316835D01*
G01X1224004Y1316835D02*
G01X1223661Y1317236D01*
G01X1223661Y1317236D02*
G01X1223331Y1317646D01*
G01X1223331Y1317646D02*
G01X1223012Y1318063D01*
G01X1223012Y1318063D02*
G01X1222705Y1318492D01*
G01X1222705Y1318492D02*
G01X1222413Y1318929D01*
G01X1222413Y1318929D02*
G01X1222134Y1319374D01*
G01X1222134Y1319374D02*
G01X1221866Y1319827D01*
G01X1221866Y1319827D02*
G01X1221610Y1320287D01*
G01X1221610Y1320287D02*
G01X1221370Y1320756D01*
G01X1221370Y1320756D02*
G01X1221142Y1321228D01*
G01X1221142Y1321228D02*
G01X1220929Y1321709D01*
G01X1220929Y1321709D02*
G01X1220732Y1322197D01*
G01X1220732Y1322197D02*
G01X1220547Y1322689D01*
G01X1220547Y1322689D02*
G01X1220378Y1323189D01*
G01X1220378Y1323189D02*
G01X1220220Y1323689D01*
G01X1220220Y1323689D02*
G01X1220083Y1324197D01*
G01X1220083Y1324197D02*
G01X1219957Y1324709D01*
G01X1219957Y1324709D02*
G01X1219846Y1325224D01*
G01X1219846Y1325224D02*
G01X1219748Y1325740D01*
G01X1219748Y1325740D02*
G01X1219669Y1326260D01*
G01X1219669Y1326260D02*
G01X1224480Y1326268D01*
G01X1224480Y1326268D02*
G01X1224571Y1325823D01*
G01X1224571Y1325823D02*
G01X1224677Y1325386D01*
G01X1224677Y1325386D02*
G01X1224803Y1324949D01*
G01X1224803Y1324949D02*
G01X1224937Y1324520D01*
G01X1224937Y1324520D02*
G01X1225091Y1324091D01*
G01X1225091Y1324091D02*
G01X1225256Y1323669D01*
G01X1225256Y1323669D02*
G01X1225437Y1323256D01*
G01X1225437Y1323256D02*
G01X1225630Y1322846D01*
G01X1225630Y1322846D02*
G01X1225839Y1322445D01*
G01X1225839Y1322445D02*
G01X1226063Y1322051D01*
G01X1226063Y1322051D02*
G01X1226295Y1321665D01*
G01X1226295Y1321665D02*
G01X1226547Y1321287D01*
G01X1226547Y1321287D02*
G01X1226807Y1320917D01*
G01X1226807Y1320917D02*
G01X1227079Y1320559D01*
G01X1227079Y1320559D02*
G01X1227366Y1320209D01*
G01X1227366Y1320209D02*
G01X1227661Y1319866D01*
G01X1227661Y1319866D02*
G01X1227972Y1319535D01*
G01X1227972Y1319535D02*
G01X1228291Y1319217D01*
G01X1228291Y1319217D02*
G01X1228622Y1318906D01*
G01X1228622Y1318906D02*
G01X1228965Y1318610D01*
G01X1228965Y1318610D02*
G01X1229315Y1318323D01*
G01X1229315Y1318323D02*
G01X1229677Y1318051D01*
G01X1229677Y1318051D02*
G01X1230047Y1317791D01*
G01X1230047Y1317791D02*
G01X1230425Y1317543D01*
G01X1230425Y1317543D02*
G01X1230811Y1317307D01*
G01X1230811Y1317307D02*
G01X1231205Y1317087D01*
G01X1231205Y1317087D02*
G01X1231606Y1316878D01*
G01X1231606Y1316878D02*
G01X1232016Y1316685D01*
G01X1232016Y1316685D02*
G01X1232429Y1316504D01*
G01X1232429Y1316504D02*
G01X1232850Y1316339D01*
G01X1232850Y1316339D02*
G01X1233276Y1316185D01*
G01X1233276Y1316185D02*
G01X1233709Y1316051D01*
G01X1233709Y1316051D02*
G01X1234146Y1315929D01*
G01X1234146Y1315929D02*
G01X1234583Y1315823D01*
G01X1234583Y1315823D02*
G01X1235028Y1315728D01*
G01X1235028Y1315728D02*
G01X1235472Y1315654D01*
G01X1235472Y1315654D02*
G01X1235921Y1315591D01*
G01X1235921Y1315591D02*
G01X1236370Y1315543D01*
G01X1236370Y1315543D02*
G01X1236823Y1315512D01*
G01X1236823Y1315512D02*
G01X1237276Y1315496D01*
G01X1237276Y1315496D02*
G01X1237724Y1315496D01*
G01X1237724Y1315496D02*
G01X1238177Y1315512D01*
G01X1238177Y1315512D02*
G01X1238630Y1315543D01*
G01X1238630Y1315543D02*
G01X1239079Y1315591D01*
G01X1239079Y1315591D02*
G01X1239528Y1315654D01*
G01X1239528Y1315654D02*
G01X1239972Y1315728D01*
G01X1239972Y1315728D02*
G01X1240417Y1315823D01*
G01X1240417Y1315823D02*
G01X1240854Y1315929D01*
G01X1240854Y1315929D02*
G01X1241291Y1316051D01*
G01X1241291Y1316051D02*
G01X1241724Y1316185D01*
G01X1241724Y1316185D02*
G01X1242150Y1316339D01*
G01X1242150Y1316339D02*
G01X1242571Y1316504D01*
G01X1242571Y1316504D02*
G01X1242984Y1316685D01*
G01X1242984Y1316685D02*
G01X1243394Y1316878D01*
G01X1243394Y1316878D02*
G01X1243795Y1317087D01*
G01X1243795Y1317087D02*
G01X1244189Y1317307D01*
G01X1244189Y1317307D02*
G01X1244575Y1317543D01*
G01X1244575Y1317543D02*
G01X1244953Y1317791D01*
G01X1244953Y1317791D02*
G01X1245323Y1318051D01*
G01X1245323Y1318051D02*
G01X1245685Y1318323D01*
G01X1245685Y1318323D02*
G01X1246035Y1318610D01*
G01X1246035Y1318610D02*
G01X1246378Y1318906D01*
G01X1246378Y1318906D02*
G01X1246709Y1319217D01*
G01X1246709Y1319217D02*
G01X1247028Y1319535D01*
G01X1247028Y1319535D02*
G01X1247339Y1319866D01*
G01X1247339Y1319866D02*
G01X1247634Y1320209D01*
G01X1247634Y1320209D02*
G01X1247921Y1320559D01*
G01X1247921Y1320559D02*
G01X1248193Y1320917D01*
G01X1248193Y1320917D02*
G01X1248453Y1321287D01*
G01X1248453Y1321287D02*
G01X1248705Y1321665D01*
G01X1248705Y1321665D02*
G01X1248937Y1322051D01*
G01X1248937Y1322051D02*
G01X1249161Y1322445D01*
G01X1249161Y1322445D02*
G01X1249370Y1322846D01*
G01X1249370Y1322846D02*
G01X1249563Y1323256D01*
G01X1249563Y1323256D02*
G01X1249744Y1323669D01*
G01X1249744Y1323669D02*
G01X1249909Y1324091D01*
G01X1249909Y1324091D02*
G01X1250063Y1324520D01*
G01X1250063Y1324520D02*
G01X1250197Y1324949D01*
G01X1250197Y1324949D02*
G01X1250323Y1325386D01*
G01X1250323Y1325386D02*
G01X1250429Y1325823D01*
G01X1250429Y1325823D02*
G01X1250520Y1326268D01*
G01X1250520Y1326268D02*
G01X1245642Y1326287D01*
G01X1245642Y1326287D02*
G01X1245531Y1325945D01*
G01X1245531Y1325945D02*
G01X1245406Y1325602D01*
G01X1245406Y1325602D02*
G01X1245264Y1325272D01*
G01X1245264Y1325272D02*
G01X1245106Y1324945D01*
G01X1245106Y1324945D02*
G01X1244941Y1324622D01*
G01X1244941Y1324622D02*
G01X1244756Y1324311D01*
G01X1244756Y1324311D02*
G01X1244559Y1324004D01*
G01X1244559Y1324004D02*
G01X1244354Y1323709D01*
G01X1244354Y1323709D02*
G01X1244130Y1323421D01*
G01X1244130Y1323421D02*
G01X1243898Y1323146D01*
G01X1243898Y1323146D02*
G01X1243654Y1322878D01*
G01X1243654Y1322878D02*
G01X1243398Y1322622D01*
G01X1243398Y1322622D02*
G01X1243134Y1322374D01*
G01X1243134Y1322374D02*
G01X1242858Y1322142D01*
G01X1242858Y1322142D02*
G01X1242571Y1321921D01*
G01X1242571Y1321921D02*
G01X1242276Y1321709D01*
G01X1242276Y1321709D02*
G01X1241972Y1321512D01*
G01X1241972Y1321512D02*
G01X1241657Y1321331D01*
G01X1241657Y1321331D02*
G01X1241339Y1321161D01*
G01X1241339Y1321161D02*
G01X1241012Y1321004D01*
G01X1241012Y1321004D02*
G01X1240681Y1320862D01*
G01X1240681Y1320862D02*
G01X1240343Y1320732D01*
G01X1240343Y1320732D02*
G01X1239996Y1320618D01*
G01X1239996Y1320618D02*
G01X1239650Y1320520D01*
G01X1239650Y1320520D02*
G01X1239295Y1320437D01*
G01X1239295Y1320437D02*
G01X1238941Y1320366D01*
G01X1238941Y1320366D02*
G01X1238583Y1320315D01*
G01X1238583Y1320315D02*
G01X1238224Y1320276D01*
G01X1238224Y1320276D02*
G01X1237862Y1320252D01*
G01X1237862Y1320252D02*
G01X1237500Y1320244D01*
G01X1237500Y1320244D02*
G01X1237138Y1320252D01*
G01X1237138Y1320252D02*
G01X1236776Y1320276D01*
G01X1236776Y1320276D02*
G01X1236417Y1320315D01*
G01X1236417Y1320315D02*
G01X1236059Y1320366D01*
G01X1236059Y1320366D02*
G01X1235705Y1320437D01*
G01X1235705Y1320437D02*
G01X1235350Y1320520D01*
G01X1235350Y1320520D02*
G01X1235004Y1320618D01*
G01X1235004Y1320618D02*
G01X1234657Y1320732D01*
G01X1234657Y1320732D02*
G01X1234319Y1320862D01*
G01X1234319Y1320862D02*
G01X1233988Y1321004D01*
G01X1233988Y1321004D02*
G01X1233661Y1321161D01*
G01X1233661Y1321161D02*
G01X1233343Y1321331D01*
G01X1233343Y1321331D02*
G01X1233028Y1321512D01*
G01X1233028Y1321512D02*
G01X1232724Y1321709D01*
G01X1232724Y1321709D02*
G01X1232429Y1321921D01*
G01X1232429Y1321921D02*
G01X1232142Y1322142D01*
G01X1232142Y1322142D02*
G01X1231866Y1322374D01*
G01X1231866Y1322374D02*
G01X1231602Y1322622D01*
G01X1231602Y1322622D02*
G01X1231346Y1322878D01*
G01X1231346Y1322878D02*
G01X1231102Y1323146D01*
G01X1231102Y1323146D02*
G01X1230870Y1323421D01*
G01X1230870Y1323421D02*
G01X1230646Y1323709D01*
G01X1230646Y1323709D02*
G01X1230441Y1324004D01*
G01X1230441Y1324004D02*
G01X1230244Y1324311D01*
G01X1230244Y1324311D02*
G01X1230059Y1324622D01*
G01X1230059Y1324622D02*
G01X1229894Y1324945D01*
G01X1229894Y1324945D02*
G01X1229736Y1325272D01*
G01X1229736Y1325272D02*
G01X1229594Y1325602D01*
G01X1229594Y1325602D02*
G01X1229469Y1325945D01*
G01X1229469Y1325945D02*
G01X1229358Y1326287D01*
G01X1229358Y1326287D02*
G01X1234539Y1326433D01*
G01X1234539Y1326433D02*
G01X1234693Y1326252D01*
G01X1234693Y1326252D02*
G01X1234854Y1326083D01*
G01X1234854Y1326083D02*
G01X1235024Y1325921D01*
G01X1235024Y1325921D02*
G01X1235209Y1325772D01*
G01X1235209Y1325772D02*
G01X1235398Y1325634D01*
G01X1235398Y1325634D02*
G01X1235594Y1325512D01*
G01X1235594Y1325512D02*
G01X1235803Y1325398D01*
G01X1235803Y1325398D02*
G01X1236016Y1325299D01*
G01X1236016Y1325299D02*
G01X1236232Y1325213D01*
G01X1236232Y1325213D02*
G01X1236457Y1325138D01*
G01X1236457Y1325138D02*
G01X1236685Y1325083D01*
G01X1236685Y1325083D02*
G01X1236913Y1325039D01*
G01X1236913Y1325039D02*
G01X1237150Y1325008D01*
G01X1237150Y1325008D02*
G01X1237382Y1324992D01*
G01X1237382Y1324992D02*
G01X1237618Y1324992D01*
G01X1237618Y1324992D02*
G01X1237850Y1325008D01*
G01X1237850Y1325008D02*
G01X1238087Y1325039D01*
G01X1238087Y1325039D02*
G01X1238315Y1325083D01*
G01X1238315Y1325083D02*
G01X1238543Y1325138D01*
G01X1238543Y1325138D02*
G01X1238768Y1325213D01*
G01X1238768Y1325213D02*
G01X1238984Y1325299D01*
G01X1238984Y1325299D02*
G01X1239197Y1325398D01*
G01X1239197Y1325398D02*
G01X1239406Y1325512D01*
G01X1239406Y1325512D02*
G01X1239602Y1325634D01*
G01X1239602Y1325634D02*
G01X1239791Y1325772D01*
G01X1239791Y1325772D02*
G01X1239976Y1325921D01*
G01X1239976Y1325921D02*
G01X1240146Y1326083D01*
G01X1240146Y1326083D02*
G01X1240307Y1326252D01*
G01X1240307Y1326252D02*
G01X1240461Y1326433D01*
G01X1264886Y1411248D02*
G01X1237500Y1408756D01*
G01X1237500Y1408756D02*
G01X1237500Y1408756D01*
G01X1237500Y1408756D02*
G01X1210114Y1411248D01*
G01X1210114Y1411248D02*
G01X1210181Y1411917D01*
G01X1210181Y1411917D02*
G01X1210268Y1412587D01*
G01X1210268Y1412587D02*
G01X1210370Y1413248D01*
G01X1210370Y1413248D02*
G01X1210488Y1413913D01*
G01X1210488Y1413913D02*
G01X1210622Y1414571D01*
G01X1210622Y1414571D02*
G01X1210772Y1415228D01*
G01X1210772Y1415228D02*
G01X1210941Y1415878D01*
G01X1210941Y1415878D02*
G01X1211122Y1416528D01*
G01X1211122Y1416528D02*
G01X1211319Y1417169D01*
G01X1211319Y1417169D02*
G01X1211531Y1417807D01*
G01X1211531Y1417807D02*
G01X1211764Y1418441D01*
G01X1211764Y1418441D02*
G01X1212008Y1419067D01*
G01X1212008Y1419067D02*
G01X1212268Y1419685D01*
G01X1212268Y1419685D02*
G01X1212543Y1420299D01*
G01X1212543Y1420299D02*
G01X1212831Y1420906D01*
G01X1212831Y1420906D02*
G01X1213138Y1421508D01*
G01X1213138Y1421508D02*
G01X1213457Y1422098D01*
G01X1213457Y1422098D02*
G01X1213791Y1422681D01*
G01X1213791Y1422681D02*
G01X1214138Y1423260D01*
G01X1214138Y1423260D02*
G01X1214500Y1423827D01*
G01X1214500Y1423827D02*
G01X1214874Y1424382D01*
G01X1214874Y1424382D02*
G01X1215264Y1424933D01*
G01X1215264Y1424933D02*
G01X1215665Y1425472D01*
G01X1215665Y1425472D02*
G01X1216083Y1426000D01*
G01X1216083Y1426000D02*
G01X1216512Y1426520D01*
G01X1216512Y1426520D02*
G01X1216953Y1427028D01*
G01X1216953Y1427028D02*
G01X1217406Y1427524D01*
G01X1217406Y1427524D02*
G01X1217870Y1428012D01*
G01X1217870Y1428012D02*
G01X1218346Y1428484D01*
G01X1218346Y1428484D02*
G01X1218835Y1428949D01*
G01X1218835Y1428949D02*
G01X1219335Y1429398D01*
G01X1219335Y1429398D02*
G01X1219843Y1429835D01*
G01X1219843Y1429835D02*
G01X1220366Y1430260D01*
G01X1220366Y1430260D02*
G01X1220898Y1430673D01*
G01X1220898Y1430673D02*
G01X1221437Y1431075D01*
G01X1221437Y1431075D02*
G01X1221988Y1431461D01*
G01X1221988Y1431461D02*
G01X1222547Y1431831D01*
G01X1222547Y1431831D02*
G01X1223118Y1432193D01*
G01X1223118Y1432193D02*
G01X1223697Y1432535D01*
G01X1223697Y1432535D02*
G01X1224280Y1432866D01*
G01X1224280Y1432866D02*
G01X1224874Y1433181D01*
G01X1224874Y1433181D02*
G01X1225476Y1433484D01*
G01X1225476Y1433484D02*
G01X1226083Y1433772D01*
G01X1226083Y1433772D02*
G01X1226701Y1434043D01*
G01X1226701Y1434043D02*
G01X1227323Y1434299D01*
G01X1227323Y1434299D02*
G01X1227949Y1434539D01*
G01X1227949Y1434539D02*
G01X1228583Y1434768D01*
G01X1228583Y1434768D02*
G01X1229220Y1434976D01*
G01X1229220Y1434976D02*
G01X1229866Y1435169D01*
G01X1229866Y1435169D02*
G01X1230516Y1435350D01*
G01X1230516Y1435350D02*
G01X1231165Y1435512D01*
G01X1231165Y1435512D02*
G01X1231823Y1435661D01*
G01X1231823Y1435661D02*
G01X1232484Y1435791D01*
G01X1232484Y1435791D02*
G01X1233146Y1435906D01*
G01X1233146Y1435906D02*
G01X1233811Y1436004D01*
G01X1233811Y1436004D02*
G01X1234480Y1436087D01*
G01X1234480Y1436087D02*
G01X1235150Y1436150D01*
G01X1235150Y1436150D02*
G01X1235819Y1436201D01*
G01X1235819Y1436201D02*
G01X1236492Y1436232D01*
G01X1236492Y1436232D02*
G01X1237165Y1436248D01*
G01X1237165Y1436248D02*
G01X1237835Y1436248D01*
G01X1237835Y1436248D02*
G01X1238508Y1436232D01*
G01X1238508Y1436232D02*
G01X1239181Y1436201D01*
G01X1239181Y1436201D02*
G01X1239850Y1436150D01*
G01X1239850Y1436150D02*
G01X1240520Y1436087D01*
G01X1240520Y1436087D02*
G01X1241189Y1436004D01*
G01X1241189Y1436004D02*
G01X1241854Y1435906D01*
G01X1241854Y1435906D02*
G01X1242516Y1435791D01*
G01X1242516Y1435791D02*
G01X1243177Y1435661D01*
G01X1243177Y1435661D02*
G01X1243835Y1435512D01*
G01X1243835Y1435512D02*
G01X1244484Y1435350D01*
G01X1244484Y1435350D02*
G01X1245134Y1435169D01*
G01X1245134Y1435169D02*
G01X1245780Y1434976D01*
G01X1245780Y1434976D02*
G01X1246417Y1434768D01*
G01X1246417Y1434768D02*
G01X1247051Y1434539D01*
G01X1247051Y1434539D02*
G01X1247677Y1434299D01*
G01X1247677Y1434299D02*
G01X1248299Y1434043D01*
G01X1248299Y1434043D02*
G01X1248917Y1433772D01*
G01X1248917Y1433772D02*
G01X1249524Y1433484D01*
G01X1249524Y1433484D02*
G01X1250126Y1433181D01*
G01X1250126Y1433181D02*
G01X1250720Y1432866D01*
G01X1250720Y1432866D02*
G01X1251303Y1432535D01*
G01X1251303Y1432535D02*
G01X1251882Y1432193D01*
G01X1251882Y1432193D02*
G01X1252453Y1431831D01*
G01X1252453Y1431831D02*
G01X1253012Y1431461D01*
G01X1253012Y1431461D02*
G01X1253563Y1431075D01*
G01X1253563Y1431075D02*
G01X1254102Y1430673D01*
G01X1254102Y1430673D02*
G01X1254634Y1430260D01*
G01X1254634Y1430260D02*
G01X1255157Y1429835D01*
G01X1255157Y1429835D02*
G01X1255665Y1429398D01*
G01X1255665Y1429398D02*
G01X1256165Y1428949D01*
G01X1256165Y1428949D02*
G01X1256654Y1428484D01*
G01X1256654Y1428484D02*
G01X1257130Y1428012D01*
G01X1257130Y1428012D02*
G01X1257594Y1427524D01*
G01X1257594Y1427524D02*
G01X1258047Y1427028D01*
G01X1258047Y1427028D02*
G01X1258488Y1426520D01*
G01X1258488Y1426520D02*
G01X1258917Y1426000D01*
G01X1258917Y1426000D02*
G01X1259335Y1425472D01*
G01X1259335Y1425472D02*
G01X1259736Y1424933D01*
G01X1259736Y1424933D02*
G01X1260126Y1424382D01*
G01X1260126Y1424382D02*
G01X1260500Y1423827D01*
G01X1260500Y1423827D02*
G01X1260862Y1423260D01*
G01X1260862Y1423260D02*
G01X1261209Y1422681D01*
G01X1261209Y1422681D02*
G01X1261543Y1422098D01*
G01X1261543Y1422098D02*
G01X1261862Y1421508D01*
G01X1261862Y1421508D02*
G01X1262169Y1420906D01*
G01X1262169Y1420906D02*
G01X1262457Y1420299D01*
G01X1262457Y1420299D02*
G01X1262732Y1419685D01*
G01X1262732Y1419685D02*
G01X1262992Y1419067D01*
G01X1262992Y1419067D02*
G01X1263236Y1418441D01*
G01X1263236Y1418441D02*
G01X1263469Y1417807D01*
G01X1263469Y1417807D02*
G01X1263681Y1417169D01*
G01X1263681Y1417169D02*
G01X1263878Y1416528D01*
G01X1263878Y1416528D02*
G01X1264059Y1415878D01*
G01X1264059Y1415878D02*
G01X1264228Y1415228D01*
G01X1264228Y1415228D02*
G01X1264378Y1414571D01*
G01X1264378Y1414571D02*
G01X1264512Y1413913D01*
G01X1264512Y1413913D02*
G01X1264630Y1413248D01*
G01X1264630Y1413248D02*
G01X1264732Y1412587D01*
G01X1264732Y1412587D02*
G01X1264819Y1411917D01*
G01X1264819Y1411917D02*
G01X1264886Y1411248D01*
G01X1264886Y1411248D02*
G01X1260114Y1411248D01*
G01X1260114Y1411248D02*
G01X1260043Y1411835D01*
G01X1260043Y1411835D02*
G01X1259953Y1412421D01*
G01X1259953Y1412421D02*
G01X1259850Y1413008D01*
G01X1259850Y1413008D02*
G01X1259732Y1413591D01*
G01X1259732Y1413591D02*
G01X1259598Y1414165D01*
G01X1259598Y1414165D02*
G01X1259449Y1414740D01*
G01X1259449Y1414740D02*
G01X1259287Y1415311D01*
G01X1259287Y1415311D02*
G01X1259106Y1415878D01*
G01X1259106Y1415878D02*
G01X1258913Y1416441D01*
G01X1258913Y1416441D02*
G01X1258705Y1416996D01*
G01X1258705Y1416996D02*
G01X1258484Y1417547D01*
G01X1258484Y1417547D02*
G01X1258248Y1418091D01*
G01X1258248Y1418091D02*
G01X1257996Y1418630D01*
G01X1257996Y1418630D02*
G01X1257732Y1419161D01*
G01X1257732Y1419161D02*
G01X1257453Y1419685D01*
G01X1257453Y1419685D02*
G01X1257161Y1420201D01*
G01X1257161Y1420201D02*
G01X1256858Y1420709D01*
G01X1256858Y1420709D02*
G01X1256539Y1421209D01*
G01X1256539Y1421209D02*
G01X1256205Y1421701D01*
G01X1256205Y1421701D02*
G01X1255862Y1422185D01*
G01X1255862Y1422185D02*
G01X1255504Y1422661D01*
G01X1255504Y1422661D02*
G01X1255138Y1423126D01*
G01X1255138Y1423126D02*
G01X1254756Y1423583D01*
G01X1254756Y1423583D02*
G01X1254362Y1424028D01*
G01X1254362Y1424028D02*
G01X1253961Y1424461D01*
G01X1253961Y1424461D02*
G01X1253543Y1424886D01*
G01X1253543Y1424886D02*
G01X1253118Y1425299D01*
G01X1253118Y1425299D02*
G01X1252681Y1425701D01*
G01X1252681Y1425701D02*
G01X1252232Y1426091D01*
G01X1252232Y1426091D02*
G01X1251776Y1426469D01*
G01X1251776Y1426469D02*
G01X1251307Y1426835D01*
G01X1251307Y1426835D02*
G01X1250831Y1427189D01*
G01X1250831Y1427189D02*
G01X1250346Y1427531D01*
G01X1250346Y1427531D02*
G01X1249854Y1427858D01*
G01X1249854Y1427858D02*
G01X1249350Y1428173D01*
G01X1249350Y1428173D02*
G01X1248839Y1428476D01*
G01X1248839Y1428476D02*
G01X1248323Y1428768D01*
G01X1248323Y1428768D02*
G01X1247795Y1429039D01*
G01X1247795Y1429039D02*
G01X1247264Y1429303D01*
G01X1247264Y1429303D02*
G01X1246724Y1429551D01*
G01X1246724Y1429551D02*
G01X1246177Y1429783D01*
G01X1246177Y1429783D02*
G01X1245626Y1430004D01*
G01X1245626Y1430004D02*
G01X1245071Y1430209D01*
G01X1245071Y1430209D02*
G01X1244508Y1430398D01*
G01X1244508Y1430398D02*
G01X1243941Y1430575D01*
G01X1243941Y1430575D02*
G01X1243370Y1430732D01*
G01X1243370Y1430732D02*
G01X1242791Y1430878D01*
G01X1242791Y1430878D02*
G01X1242213Y1431012D01*
G01X1242213Y1431012D02*
G01X1241630Y1431126D01*
G01X1241630Y1431126D02*
G01X1241047Y1431224D01*
G01X1241047Y1431224D02*
G01X1240461Y1431311D01*
G01X1240461Y1431311D02*
G01X1239870Y1431382D01*
G01X1239870Y1431382D02*
G01X1239280Y1431433D01*
G01X1239280Y1431433D02*
G01X1238685Y1431472D01*
G01X1238685Y1431472D02*
G01X1238094Y1431496D01*
G01X1238094Y1431496D02*
G01X1237500Y1431504D01*
G01X1237500Y1431504D02*
G01X1236906Y1431496D01*
G01X1236906Y1431496D02*
G01X1236315Y1431472D01*
G01X1236315Y1431472D02*
G01X1235720Y1431433D01*
G01X1235720Y1431433D02*
G01X1235130Y1431382D01*
G01X1235130Y1431382D02*
G01X1234539Y1431311D01*
G01X1234539Y1431311D02*
G01X1233953Y1431224D01*
G01X1233953Y1431224D02*
G01X1233370Y1431126D01*
G01X1233370Y1431126D02*
G01X1232787Y1431012D01*
G01X1232787Y1431012D02*
G01X1232209Y1430878D01*
G01X1232209Y1430878D02*
G01X1231630Y1430732D01*
G01X1231630Y1430732D02*
G01X1231059Y1430575D01*
G01X1231059Y1430575D02*
G01X1230492Y1430398D01*
G01X1230492Y1430398D02*
G01X1229929Y1430209D01*
G01X1229929Y1430209D02*
G01X1229374Y1430004D01*
G01X1229374Y1430004D02*
G01X1228823Y1429783D01*
G01X1228823Y1429783D02*
G01X1228276Y1429551D01*
G01X1228276Y1429551D02*
G01X1227736Y1429303D01*
G01X1227736Y1429303D02*
G01X1227205Y1429039D01*
G01X1227205Y1429039D02*
G01X1226677Y1428768D01*
G01X1226677Y1428768D02*
G01X1226161Y1428476D01*
G01X1226161Y1428476D02*
G01X1225650Y1428173D01*
G01X1225650Y1428173D02*
G01X1225146Y1427858D01*
G01X1225146Y1427858D02*
G01X1224654Y1427531D01*
G01X1224654Y1427531D02*
G01X1224169Y1427189D01*
G01X1224169Y1427189D02*
G01X1223693Y1426835D01*
G01X1223693Y1426835D02*
G01X1223224Y1426469D01*
G01X1223224Y1426469D02*
G01X1222768Y1426091D01*
G01X1222768Y1426091D02*
G01X1222319Y1425701D01*
G01X1222319Y1425701D02*
G01X1221882Y1425299D01*
G01X1221882Y1425299D02*
G01X1221457Y1424886D01*
G01X1221457Y1424886D02*
G01X1221039Y1424461D01*
G01X1221039Y1424461D02*
G01X1220638Y1424028D01*
G01X1220638Y1424028D02*
G01X1220244Y1423583D01*
G01X1220244Y1423583D02*
G01X1219862Y1423126D01*
G01X1219862Y1423126D02*
G01X1219496Y1422661D01*
G01X1219496Y1422661D02*
G01X1219138Y1422185D01*
G01X1219138Y1422185D02*
G01X1218795Y1421701D01*
G01X1218795Y1421701D02*
G01X1218461Y1421209D01*
G01X1218461Y1421209D02*
G01X1218142Y1420709D01*
G01X1218142Y1420709D02*
G01X1217839Y1420201D01*
G01X1217839Y1420201D02*
G01X1217547Y1419685D01*
G01X1217547Y1419685D02*
G01X1217268Y1419161D01*
G01X1217268Y1419161D02*
G01X1217004Y1418630D01*
G01X1217004Y1418630D02*
G01X1216752Y1418091D01*
G01X1216752Y1418091D02*
G01X1216516Y1417547D01*
G01X1216516Y1417547D02*
G01X1216295Y1416996D01*
G01X1216295Y1416996D02*
G01X1216087Y1416441D01*
G01X1216087Y1416441D02*
G01X1215894Y1415878D01*
G01X1215894Y1415878D02*
G01X1215713Y1415311D01*
G01X1215713Y1415311D02*
G01X1215551Y1414740D01*
G01X1215551Y1414740D02*
G01X1215402Y1414165D01*
G01X1215402Y1414165D02*
G01X1215268Y1413591D01*
G01X1215268Y1413591D02*
G01X1215150Y1413008D01*
G01X1215150Y1413008D02*
G01X1215047Y1412421D01*
G01X1215047Y1412421D02*
G01X1214957Y1411835D01*
G01X1214957Y1411835D02*
G01X1214886Y1411248D01*
G01X1214886Y1411248D02*
G01X1219669Y1411244D01*
G01X1219669Y1411244D02*
G01X1219748Y1411764D01*
G01X1219748Y1411764D02*
G01X1219846Y1412280D01*
G01X1219846Y1412280D02*
G01X1219957Y1412795D01*
G01X1219957Y1412795D02*
G01X1220083Y1413307D01*
G01X1220083Y1413307D02*
G01X1220220Y1413815D01*
G01X1220220Y1413815D02*
G01X1220378Y1414315D01*
G01X1220378Y1414315D02*
G01X1220547Y1414815D01*
G01X1220547Y1414815D02*
G01X1220732Y1415307D01*
G01X1220732Y1415307D02*
G01X1220929Y1415795D01*
G01X1220929Y1415795D02*
G01X1221142Y1416276D01*
G01X1221142Y1416276D02*
G01X1221370Y1416748D01*
G01X1221370Y1416748D02*
G01X1221610Y1417217D01*
G01X1221610Y1417217D02*
G01X1221866Y1417677D01*
G01X1221866Y1417677D02*
G01X1222134Y1418130D01*
G01X1222134Y1418130D02*
G01X1222413Y1418575D01*
G01X1222413Y1418575D02*
G01X1222705Y1419012D01*
G01X1222705Y1419012D02*
G01X1223012Y1419441D01*
G01X1223012Y1419441D02*
G01X1223331Y1419858D01*
G01X1223331Y1419858D02*
G01X1223661Y1420268D01*
G01X1223661Y1420268D02*
G01X1224004Y1420669D01*
G01X1224004Y1420669D02*
G01X1224358Y1421059D01*
G01X1224358Y1421059D02*
G01X1224724Y1421437D01*
G01X1224724Y1421437D02*
G01X1225098Y1421803D01*
G01X1225098Y1421803D02*
G01X1225484Y1422161D01*
G01X1225484Y1422161D02*
G01X1225882Y1422508D01*
G01X1225882Y1422508D02*
G01X1226291Y1422839D01*
G01X1226291Y1422839D02*
G01X1226705Y1423161D01*
G01X1226705Y1423161D02*
G01X1227130Y1423472D01*
G01X1227130Y1423472D02*
G01X1227567Y1423768D01*
G01X1227567Y1423768D02*
G01X1228008Y1424051D01*
G01X1228008Y1424051D02*
G01X1228461Y1424323D01*
G01X1228461Y1424323D02*
G01X1228917Y1424579D01*
G01X1228917Y1424579D02*
G01X1229386Y1424823D01*
G01X1229386Y1424823D02*
G01X1229858Y1425055D01*
G01X1229858Y1425055D02*
G01X1230339Y1425272D01*
G01X1230339Y1425272D02*
G01X1230823Y1425472D01*
G01X1230823Y1425472D02*
G01X1231315Y1425661D01*
G01X1231315Y1425661D02*
G01X1231811Y1425835D01*
G01X1231811Y1425835D02*
G01X1232315Y1425992D01*
G01X1232315Y1425992D02*
G01X1232819Y1426138D01*
G01X1232819Y1426138D02*
G01X1233331Y1426268D01*
G01X1233331Y1426268D02*
G01X1233843Y1426382D01*
G01X1233843Y1426382D02*
G01X1234358Y1426480D01*
G01X1234358Y1426480D02*
G01X1234878Y1426563D01*
G01X1234878Y1426563D02*
G01X1235402Y1426634D01*
G01X1235402Y1426634D02*
G01X1235925Y1426685D01*
G01X1235925Y1426685D02*
G01X1236449Y1426724D01*
G01X1236449Y1426724D02*
G01X1236972Y1426748D01*
G01X1236972Y1426748D02*
G01X1237500Y1426756D01*
G01X1237500Y1426756D02*
G01X1238028Y1426748D01*
G01X1238028Y1426748D02*
G01X1238551Y1426724D01*
G01X1238551Y1426724D02*
G01X1239075Y1426685D01*
G01X1239075Y1426685D02*
G01X1239598Y1426634D01*
G01X1239598Y1426634D02*
G01X1240122Y1426563D01*
G01X1240122Y1426563D02*
G01X1240642Y1426480D01*
G01X1240642Y1426480D02*
G01X1241157Y1426382D01*
G01X1241157Y1426382D02*
G01X1241669Y1426268D01*
G01X1241669Y1426268D02*
G01X1242181Y1426138D01*
G01X1242181Y1426138D02*
G01X1242685Y1425992D01*
G01X1242685Y1425992D02*
G01X1243189Y1425835D01*
G01X1243189Y1425835D02*
G01X1243685Y1425661D01*
G01X1243685Y1425661D02*
G01X1244177Y1425472D01*
G01X1244177Y1425472D02*
G01X1244661Y1425272D01*
G01X1244661Y1425272D02*
G01X1245142Y1425055D01*
G01X1245142Y1425055D02*
G01X1245614Y1424823D01*
G01X1245614Y1424823D02*
G01X1246083Y1424579D01*
G01X1246083Y1424579D02*
G01X1246539Y1424323D01*
G01X1246539Y1424323D02*
G01X1246992Y1424051D01*
G01X1246992Y1424051D02*
G01X1247433Y1423768D01*
G01X1247433Y1423768D02*
G01X1247870Y1423472D01*
G01X1247870Y1423472D02*
G01X1248295Y1423161D01*
G01X1248295Y1423161D02*
G01X1248709Y1422839D01*
G01X1248709Y1422839D02*
G01X1249118Y1422508D01*
G01X1249118Y1422508D02*
G01X1249516Y1422161D01*
G01X1249516Y1422161D02*
G01X1249902Y1421803D01*
G01X1249902Y1421803D02*
G01X1250276Y1421437D01*
G01X1250276Y1421437D02*
G01X1250642Y1421059D01*
G01X1250642Y1421059D02*
G01X1250996Y1420669D01*
G01X1250996Y1420669D02*
G01X1251339Y1420268D01*
G01X1251339Y1420268D02*
G01X1251669Y1419858D01*
G01X1251669Y1419858D02*
G01X1251988Y1419441D01*
G01X1251988Y1419441D02*
G01X1252295Y1419012D01*
G01X1252295Y1419012D02*
G01X1252587Y1418575D01*
G01X1252587Y1418575D02*
G01X1252866Y1418130D01*
G01X1252866Y1418130D02*
G01X1253134Y1417677D01*
G01X1253134Y1417677D02*
G01X1253390Y1417217D01*
G01X1253390Y1417217D02*
G01X1253630Y1416748D01*
G01X1253630Y1416748D02*
G01X1253858Y1416276D01*
G01X1253858Y1416276D02*
G01X1254071Y1415795D01*
G01X1254071Y1415795D02*
G01X1254268Y1415307D01*
G01X1254268Y1415307D02*
G01X1254453Y1414815D01*
G01X1254453Y1414815D02*
G01X1254622Y1414315D01*
G01X1254622Y1414315D02*
G01X1254780Y1413815D01*
G01X1254780Y1413815D02*
G01X1254917Y1413307D01*
G01X1254917Y1413307D02*
G01X1255043Y1412795D01*
G01X1255043Y1412795D02*
G01X1255154Y1412280D01*
G01X1255154Y1412280D02*
G01X1255252Y1411764D01*
G01X1255252Y1411764D02*
G01X1255331Y1411244D01*
G01X1255331Y1411244D02*
G01X1250520Y1411236D01*
G01X1250520Y1411236D02*
G01X1250429Y1411681D01*
G01X1250429Y1411681D02*
G01X1250323Y1412118D01*
G01X1250323Y1412118D02*
G01X1250197Y1412555D01*
G01X1250197Y1412555D02*
G01X1250063Y1412984D01*
G01X1250063Y1412984D02*
G01X1249909Y1413413D01*
G01X1249909Y1413413D02*
G01X1249744Y1413835D01*
G01X1249744Y1413835D02*
G01X1249563Y1414248D01*
G01X1249563Y1414248D02*
G01X1249370Y1414657D01*
G01X1249370Y1414657D02*
G01X1249161Y1415059D01*
G01X1249161Y1415059D02*
G01X1248937Y1415453D01*
G01X1248937Y1415453D02*
G01X1248705Y1415839D01*
G01X1248705Y1415839D02*
G01X1248453Y1416217D01*
G01X1248453Y1416217D02*
G01X1248193Y1416587D01*
G01X1248193Y1416587D02*
G01X1247921Y1416945D01*
G01X1247921Y1416945D02*
G01X1247634Y1417295D01*
G01X1247634Y1417295D02*
G01X1247339Y1417638D01*
G01X1247339Y1417638D02*
G01X1247028Y1417969D01*
G01X1247028Y1417969D02*
G01X1246709Y1418287D01*
G01X1246709Y1418287D02*
G01X1246378Y1418598D01*
G01X1246378Y1418598D02*
G01X1246035Y1418894D01*
G01X1246035Y1418894D02*
G01X1245685Y1419181D01*
G01X1245685Y1419181D02*
G01X1245323Y1419453D01*
G01X1245323Y1419453D02*
G01X1244953Y1419713D01*
G01X1244953Y1419713D02*
G01X1244575Y1419961D01*
G01X1244575Y1419961D02*
G01X1244189Y1420197D01*
G01X1244189Y1420197D02*
G01X1243795Y1420417D01*
G01X1243795Y1420417D02*
G01X1243394Y1420626D01*
G01X1243394Y1420626D02*
G01X1242984Y1420819D01*
G01X1242984Y1420819D02*
G01X1242571Y1421000D01*
G01X1242571Y1421000D02*
G01X1242150Y1421165D01*
G01X1242150Y1421165D02*
G01X1241724Y1421319D01*
G01X1241724Y1421319D02*
G01X1241291Y1421453D01*
G01X1241291Y1421453D02*
G01X1240854Y1421575D01*
G01X1240854Y1421575D02*
G01X1240417Y1421681D01*
G01X1240417Y1421681D02*
G01X1239972Y1421776D01*
G01X1239972Y1421776D02*
G01X1239528Y1421850D01*
G01X1239528Y1421850D02*
G01X1239079Y1421913D01*
G01X1239079Y1421913D02*
G01X1238630Y1421961D01*
G01X1238630Y1421961D02*
G01X1238177Y1421992D01*
G01X1238177Y1421992D02*
G01X1237724Y1422008D01*
G01X1237724Y1422008D02*
G01X1237276Y1422008D01*
G01X1237276Y1422008D02*
G01X1236823Y1421992D01*
G01X1236823Y1421992D02*
G01X1236370Y1421961D01*
G01X1236370Y1421961D02*
G01X1235921Y1421913D01*
G01X1235921Y1421913D02*
G01X1235472Y1421850D01*
G01X1235472Y1421850D02*
G01X1235028Y1421776D01*
G01X1235028Y1421776D02*
G01X1234583Y1421681D01*
G01X1234583Y1421681D02*
G01X1234146Y1421575D01*
G01X1234146Y1421575D02*
G01X1233709Y1421453D01*
G01X1233709Y1421453D02*
G01X1233276Y1421319D01*
G01X1233276Y1421319D02*
G01X1232850Y1421165D01*
G01X1232850Y1421165D02*
G01X1232429Y1421000D01*
G01X1232429Y1421000D02*
G01X1232016Y1420819D01*
G01X1232016Y1420819D02*
G01X1231606Y1420626D01*
G01X1231606Y1420626D02*
G01X1231205Y1420417D01*
G01X1231205Y1420417D02*
G01X1230811Y1420197D01*
G01X1230811Y1420197D02*
G01X1230425Y1419961D01*
G01X1230425Y1419961D02*
G01X1230047Y1419713D01*
G01X1230047Y1419713D02*
G01X1229677Y1419453D01*
G01X1229677Y1419453D02*
G01X1229315Y1419181D01*
G01X1229315Y1419181D02*
G01X1228965Y1418894D01*
G01X1228965Y1418894D02*
G01X1228622Y1418598D01*
G01X1228622Y1418598D02*
G01X1228291Y1418287D01*
G01X1228291Y1418287D02*
G01X1227972Y1417969D01*
G01X1227972Y1417969D02*
G01X1227661Y1417638D01*
G01X1227661Y1417638D02*
G01X1227366Y1417295D01*
G01X1227366Y1417295D02*
G01X1227079Y1416945D01*
G01X1227079Y1416945D02*
G01X1226807Y1416587D01*
G01X1226807Y1416587D02*
G01X1226547Y1416217D01*
G01X1226547Y1416217D02*
G01X1226295Y1415839D01*
G01X1226295Y1415839D02*
G01X1226063Y1415453D01*
G01X1226063Y1415453D02*
G01X1225839Y1415059D01*
G01X1225839Y1415059D02*
G01X1225630Y1414657D01*
G01X1225630Y1414657D02*
G01X1225437Y1414248D01*
G01X1225437Y1414248D02*
G01X1225256Y1413835D01*
G01X1225256Y1413835D02*
G01X1225091Y1413413D01*
G01X1225091Y1413413D02*
G01X1224937Y1412984D01*
G01X1224937Y1412984D02*
G01X1224803Y1412555D01*
G01X1224803Y1412555D02*
G01X1224677Y1412118D01*
G01X1224677Y1412118D02*
G01X1224571Y1411681D01*
G01X1224571Y1411681D02*
G01X1224480Y1411236D01*
G01X1224480Y1411236D02*
G01X1229358Y1411217D01*
G01X1229358Y1411217D02*
G01X1229469Y1411559D01*
G01X1229469Y1411559D02*
G01X1229594Y1411902D01*
G01X1229594Y1411902D02*
G01X1229736Y1412232D01*
G01X1229736Y1412232D02*
G01X1229894Y1412559D01*
G01X1229894Y1412559D02*
G01X1230059Y1412882D01*
G01X1230059Y1412882D02*
G01X1230244Y1413193D01*
G01X1230244Y1413193D02*
G01X1230441Y1413500D01*
G01X1230441Y1413500D02*
G01X1230646Y1413795D01*
G01X1230646Y1413795D02*
G01X1230870Y1414083D01*
G01X1230870Y1414083D02*
G01X1231102Y1414358D01*
G01X1231102Y1414358D02*
G01X1231346Y1414626D01*
G01X1231346Y1414626D02*
G01X1231602Y1414882D01*
G01X1231602Y1414882D02*
G01X1231866Y1415130D01*
G01X1231866Y1415130D02*
G01X1232142Y1415362D01*
G01X1232142Y1415362D02*
G01X1232429Y1415583D01*
G01X1232429Y1415583D02*
G01X1232724Y1415795D01*
G01X1232724Y1415795D02*
G01X1233028Y1415992D01*
G01X1233028Y1415992D02*
G01X1233343Y1416173D01*
G01X1233343Y1416173D02*
G01X1233661Y1416343D01*
G01X1233661Y1416343D02*
G01X1233988Y1416500D01*
G01X1233988Y1416500D02*
G01X1234319Y1416642D01*
G01X1234319Y1416642D02*
G01X1234657Y1416772D01*
G01X1234657Y1416772D02*
G01X1235004Y1416886D01*
G01X1235004Y1416886D02*
G01X1235350Y1416984D01*
G01X1235350Y1416984D02*
G01X1235705Y1417067D01*
G01X1235705Y1417067D02*
G01X1236059Y1417138D01*
G01X1236059Y1417138D02*
G01X1236417Y1417189D01*
G01X1236417Y1417189D02*
G01X1236776Y1417228D01*
G01X1236776Y1417228D02*
G01X1237138Y1417252D01*
G01X1237138Y1417252D02*
G01X1237500Y1417260D01*
G01X1237500Y1417260D02*
G01X1237862Y1417252D01*
G01X1237862Y1417252D02*
G01X1238224Y1417228D01*
G01X1238224Y1417228D02*
G01X1238583Y1417189D01*
G01X1238583Y1417189D02*
G01X1238941Y1417138D01*
G01X1238941Y1417138D02*
G01X1239295Y1417067D01*
G01X1239295Y1417067D02*
G01X1239650Y1416984D01*
G01X1239650Y1416984D02*
G01X1239996Y1416886D01*
G01X1239996Y1416886D02*
G01X1240343Y1416772D01*
G01X1240343Y1416772D02*
G01X1240681Y1416642D01*
G01X1240681Y1416642D02*
G01X1241012Y1416500D01*
G01X1241012Y1416500D02*
G01X1241339Y1416343D01*
G01X1241339Y1416343D02*
G01X1241657Y1416173D01*
G01X1241657Y1416173D02*
G01X1241972Y1415992D01*
G01X1241972Y1415992D02*
G01X1242276Y1415795D01*
G01X1242276Y1415795D02*
G01X1242571Y1415583D01*
G01X1242571Y1415583D02*
G01X1242858Y1415362D01*
G01X1242858Y1415362D02*
G01X1243134Y1415130D01*
G01X1243134Y1415130D02*
G01X1243398Y1414882D01*
G01X1243398Y1414882D02*
G01X1243654Y1414626D01*
G01X1243654Y1414626D02*
G01X1243898Y1414358D01*
G01X1243898Y1414358D02*
G01X1244130Y1414083D01*
G01X1244130Y1414083D02*
G01X1244354Y1413795D01*
G01X1244354Y1413795D02*
G01X1244559Y1413500D01*
G01X1244559Y1413500D02*
G01X1244756Y1413193D01*
G01X1244756Y1413193D02*
G01X1244941Y1412882D01*
G01X1244941Y1412882D02*
G01X1245106Y1412559D01*
G01X1245106Y1412559D02*
G01X1245264Y1412232D01*
G01X1245264Y1412232D02*
G01X1245406Y1411902D01*
G01X1245406Y1411902D02*
G01X1245531Y1411559D01*
G01X1245531Y1411559D02*
G01X1245642Y1411217D01*
G01X1245642Y1411217D02*
G01X1240461Y1411071D01*
G01X1240461Y1411071D02*
G01X1240307Y1411252D01*
G01X1240307Y1411252D02*
G01X1240146Y1411421D01*
G01X1240146Y1411421D02*
G01X1239976Y1411583D01*
G01X1239976Y1411583D02*
G01X1239791Y1411732D01*
G01X1239791Y1411732D02*
G01X1239602Y1411870D01*
G01X1239602Y1411870D02*
G01X1239406Y1411992D01*
G01X1239406Y1411992D02*
G01X1239197Y1412106D01*
G01X1239197Y1412106D02*
G01X1238984Y1412205D01*
G01X1238984Y1412205D02*
G01X1238768Y1412291D01*
G01X1238768Y1412291D02*
G01X1238543Y1412366D01*
G01X1238543Y1412366D02*
G01X1238315Y1412421D01*
G01X1238315Y1412421D02*
G01X1238087Y1412465D01*
G01X1238087Y1412465D02*
G01X1237850Y1412496D01*
G01X1237850Y1412496D02*
G01X1237618Y1412512D01*
G01X1237618Y1412512D02*
G01X1237382Y1412512D01*
G01X1237382Y1412512D02*
G01X1237150Y1412496D01*
G01X1237150Y1412496D02*
G01X1236913Y1412465D01*
G01X1236913Y1412465D02*
G01X1236685Y1412421D01*
G01X1236685Y1412421D02*
G01X1236457Y1412366D01*
G01X1236457Y1412366D02*
G01X1236232Y1412291D01*
G01X1236232Y1412291D02*
G01X1236016Y1412205D01*
G01X1236016Y1412205D02*
G01X1235803Y1412106D01*
G01X1235803Y1412106D02*
G01X1235594Y1411992D01*
G01X1235594Y1411992D02*
G01X1235398Y1411870D01*
G01X1235398Y1411870D02*
G01X1235209Y1411732D01*
G01X1235209Y1411732D02*
G01X1235024Y1411583D01*
G01X1235024Y1411583D02*
G01X1234854Y1411421D01*
G01X1234854Y1411421D02*
G01X1234693Y1411252D01*
G01X1234693Y1411252D02*
G01X1234539Y1411071D01*
G54D14*
G01X1237500Y1368752D03*
G54D13*
G01X1177500Y1490000D02*
G01X1177106Y1490008D01*
G01X1177106Y1490008D02*
G01X1176717Y1490031D01*
G01X1176717Y1490031D02*
G01X1176323Y1490071D01*
G01X1176323Y1490071D02*
G01X1175937Y1490122D01*
G01X1175937Y1490122D02*
G01X1175547Y1490193D01*
G01X1175547Y1490193D02*
G01X1175165Y1490276D01*
G01X1175165Y1490276D02*
G01X1174787Y1490374D01*
G01X1174787Y1490374D02*
G01X1174409Y1490488D01*
G01X1174409Y1490488D02*
G01X1174039Y1490618D01*
G01X1174039Y1490618D02*
G01X1173673Y1490760D01*
G01X1173673Y1490760D02*
G01X1173315Y1490917D01*
G01X1173315Y1490917D02*
G01X1172961Y1491091D01*
G01X1172961Y1491091D02*
G01X1172614Y1491276D01*
G01X1172614Y1491276D02*
G01X1172276Y1491472D01*
G01X1172276Y1491472D02*
G01X1171945Y1491685D01*
G01X1171945Y1491685D02*
G01X1171622Y1491909D01*
G01X1171622Y1491909D02*
G01X1171311Y1492146D01*
G01X1171311Y1492146D02*
G01X1171004Y1492398D01*
G01X1171004Y1492398D02*
G01X1170713Y1492657D01*
G01X1170713Y1492657D02*
G01X1170429Y1492929D01*
G01X1170429Y1492929D02*
G01X1170157Y1493213D01*
G01X1170157Y1493213D02*
G01X1169898Y1493504D01*
G01X1169898Y1493504D02*
G01X1169646Y1493811D01*
G01X1169646Y1493811D02*
G01X1169409Y1494122D01*
G01X1169409Y1494122D02*
G01X1169185Y1494445D01*
G01X1169185Y1494445D02*
G01X1168972Y1494776D01*
G01X1168972Y1494776D02*
G01X1168776Y1495114D01*
G01X1168776Y1495114D02*
G01X1168591Y1495461D01*
G01X1168591Y1495461D02*
G01X1168417Y1495815D01*
G01X1168417Y1495815D02*
G01X1168260Y1496173D01*
G01X1168260Y1496173D02*
G01X1168118Y1496539D01*
G01X1168118Y1496539D02*
G01X1167988Y1496909D01*
G01X1167988Y1496909D02*
G01X1167874Y1497287D01*
G01X1167874Y1497287D02*
G01X1167776Y1497665D01*
G01X1167776Y1497665D02*
G01X1167693Y1498047D01*
G01X1167693Y1498047D02*
G01X1167622Y1498437D01*
G01X1167622Y1498437D02*
G01X1167571Y1498823D01*
G01X1167571Y1498823D02*
G01X1167531Y1499217D01*
G01X1167531Y1499217D02*
G01X1167508Y1499606D01*
G01X1167508Y1499606D02*
G01X1167500Y1500000D01*
G01X1177500Y1490000D02*
G01X1178055Y1490008D01*
G01X1178055Y1490008D02*
G01X1178610Y1490028D01*
G01X1178610Y1490028D02*
G01X1179165Y1490067D01*
G01X1179165Y1490067D02*
G01X1179720Y1490118D01*
G01X1179720Y1490118D02*
G01X1180272Y1490181D01*
G01X1180272Y1490181D02*
G01X1180823Y1490264D01*
G01X1180823Y1490264D02*
G01X1181370Y1490358D01*
G01X1181370Y1490358D02*
G01X1181917Y1490469D01*
G01X1181917Y1490469D02*
G01X1182457Y1490591D01*
G01X1182457Y1490591D02*
G01X1182996Y1490728D01*
G01X1182996Y1490728D02*
G01X1183531Y1490878D01*
G01X1183531Y1490878D02*
G01X1184063Y1491043D01*
G01X1184063Y1491043D02*
G01X1184587Y1491224D01*
G01X1184587Y1491224D02*
G01X1185110Y1491417D01*
G01X1185110Y1491417D02*
G01X1185626Y1491626D01*
G01X1185626Y1491626D02*
G01X1186134Y1491846D01*
G01X1186134Y1491846D02*
G01X1186642Y1492079D01*
G01X1186642Y1492079D02*
G01X1187138Y1492327D01*
G01X1187138Y1492327D02*
G01X1187630Y1492587D01*
G01X1187630Y1492587D02*
G01X1188114Y1492858D01*
G01X1188114Y1492858D02*
G01X1188591Y1493146D01*
G01X1188591Y1493146D02*
G01X1189059Y1493445D01*
G01X1189059Y1493445D02*
G01X1189524Y1493756D01*
G01X1189524Y1493756D02*
G01X1189976Y1494075D01*
G01X1189976Y1494075D02*
G01X1190417Y1494409D01*
G01X1190417Y1494409D02*
G01X1190854Y1494756D01*
G01X1190854Y1494756D02*
G01X1191280Y1495114D01*
G01X1191280Y1495114D02*
G01X1191697Y1495480D01*
G01X1191697Y1495480D02*
G01X1192102Y1495862D01*
G01X1192102Y1495862D02*
G01X1192500Y1496252D01*
G01X1191252Y1525000D02*
G01X1191244Y1525394D01*
G01X1191244Y1525394D02*
G01X1191220Y1525783D01*
G01X1191220Y1525783D02*
G01X1191181Y1526177D01*
G01X1191181Y1526177D02*
G01X1191130Y1526563D01*
G01X1191130Y1526563D02*
G01X1191059Y1526953D01*
G01X1191059Y1526953D02*
G01X1190976Y1527335D01*
G01X1190976Y1527335D02*
G01X1190878Y1527713D01*
G01X1190878Y1527713D02*
G01X1190764Y1528091D01*
G01X1190764Y1528091D02*
G01X1190634Y1528461D01*
G01X1190634Y1528461D02*
G01X1190492Y1528827D01*
G01X1190492Y1528827D02*
G01X1190335Y1529185D01*
G01X1190335Y1529185D02*
G01X1190161Y1529539D01*
G01X1190161Y1529539D02*
G01X1189976Y1529886D01*
G01X1189976Y1529886D02*
G01X1189780Y1530224D01*
G01X1189780Y1530224D02*
G01X1189567Y1530555D01*
G01X1189567Y1530555D02*
G01X1189343Y1530878D01*
G01X1189343Y1530878D02*
G01X1189106Y1531189D01*
G01X1189106Y1531189D02*
G01X1188854Y1531496D01*
G01X1188854Y1531496D02*
G01X1188594Y1531787D01*
G01X1188594Y1531787D02*
G01X1188323Y1532071D01*
G01X1188323Y1532071D02*
G01X1188039Y1532343D01*
G01X1188039Y1532343D02*
G01X1187748Y1532602D01*
G01X1187748Y1532602D02*
G01X1187441Y1532854D01*
G01X1187441Y1532854D02*
G01X1187130Y1533091D01*
G01X1187130Y1533091D02*
G01X1186807Y1533315D01*
G01X1186807Y1533315D02*
G01X1186476Y1533528D01*
G01X1186476Y1533528D02*
G01X1186138Y1533724D01*
G01X1186138Y1533724D02*
G01X1185791Y1533909D01*
G01X1185791Y1533909D02*
G01X1185437Y1534083D01*
G01X1185437Y1534083D02*
G01X1185079Y1534240D01*
G01X1185079Y1534240D02*
G01X1184713Y1534382D01*
G01X1184713Y1534382D02*
G01X1184343Y1534512D01*
G01X1184343Y1534512D02*
G01X1183965Y1534626D01*
G01X1183965Y1534626D02*
G01X1183587Y1534724D01*
G01X1183587Y1534724D02*
G01X1183205Y1534807D01*
G01X1183205Y1534807D02*
G01X1182815Y1534878D01*
G01X1182815Y1534878D02*
G01X1182429Y1534929D01*
G01X1182429Y1534929D02*
G01X1182035Y1534969D01*
G01X1182035Y1534969D02*
G01X1181646Y1534992D01*
G01X1181646Y1534992D02*
G01X1181252Y1535000D01*
G01X1181252Y1535004D02*
G01X1180728Y1534996D01*
G01X1180728Y1534996D02*
G01X1180205Y1534976D01*
G01X1180205Y1534976D02*
G01X1179681Y1534937D01*
G01X1179681Y1534937D02*
G01X1179157Y1534886D01*
G01X1179157Y1534886D02*
G01X1178638Y1534819D01*
G01X1178638Y1534819D02*
G01X1178118Y1534740D01*
G01X1178118Y1534740D02*
G01X1177602Y1534646D01*
G01X1177602Y1534646D02*
G01X1177091Y1534535D01*
G01X1177091Y1534535D02*
G01X1176579Y1534413D01*
G01X1176579Y1534413D02*
G01X1176075Y1534276D01*
G01X1176075Y1534276D02*
G01X1175571Y1534122D01*
G01X1175571Y1534122D02*
G01X1175075Y1533957D01*
G01X1175075Y1533957D02*
G01X1174583Y1533776D01*
G01X1174583Y1533776D02*
G01X1174094Y1533583D01*
G01X1174094Y1533583D02*
G01X1173610Y1533378D01*
G01X1173610Y1533378D02*
G01X1173134Y1533157D01*
G01X1173134Y1533157D02*
G01X1172665Y1532921D01*
G01X1172665Y1532921D02*
G01X1172201Y1532677D01*
G01X1172201Y1532677D02*
G01X1171748Y1532417D01*
G01X1171748Y1532417D02*
G01X1171299Y1532146D01*
G01X1171299Y1532146D02*
G01X1170858Y1531858D01*
G01X1170858Y1531858D02*
G01X1170425Y1531563D01*
G01X1170425Y1531563D02*
G01X1170000Y1531252D01*
G01X1186252Y1516248D02*
G01X1186583Y1516453D01*
G01X1186583Y1516453D02*
G01X1186909Y1516669D01*
G01X1186909Y1516669D02*
G01X1187224Y1516902D01*
G01X1187224Y1516902D02*
G01X1187531Y1517142D01*
G01X1187531Y1517142D02*
G01X1187827Y1517394D01*
G01X1187827Y1517394D02*
G01X1188114Y1517661D01*
G01X1188114Y1517661D02*
G01X1188394Y1517937D01*
G01X1188394Y1517937D02*
G01X1188657Y1518220D01*
G01X1188657Y1518220D02*
G01X1188913Y1518516D01*
G01X1188913Y1518516D02*
G01X1189157Y1518823D01*
G01X1189157Y1518823D02*
G01X1189390Y1519138D01*
G01X1189390Y1519138D02*
G01X1189610Y1519461D01*
G01X1189610Y1519461D02*
G01X1189815Y1519791D01*
G01X1189815Y1519791D02*
G01X1190008Y1520130D01*
G01X1190008Y1520130D02*
G01X1190189Y1520476D01*
G01X1190189Y1520476D02*
G01X1190358Y1520831D01*
G01X1190358Y1520831D02*
G01X1190512Y1521189D01*
G01X1190512Y1521189D02*
G01X1190650Y1521555D01*
G01X1190650Y1521555D02*
G01X1190776Y1521925D01*
G01X1190776Y1521925D02*
G01X1190886Y1522299D01*
G01X1190886Y1522299D02*
G01X1190984Y1522677D01*
G01X1190984Y1522677D02*
G01X1191063Y1523059D01*
G01X1191063Y1523059D02*
G01X1191134Y1523445D01*
G01X1191134Y1523445D02*
G01X1191185Y1523831D01*
G01X1191185Y1523831D02*
G01X1191220Y1524220D01*
G01X1191220Y1524220D02*
G01X1191244Y1524610D01*
G01X1191244Y1524610D02*
G01X1191252Y1525000D01*
G01X1172500Y1508752D02*
G01X1172169Y1508547D01*
G01X1172169Y1508547D02*
G01X1171843Y1508331D01*
G01X1171843Y1508331D02*
G01X1171528Y1508098D01*
G01X1171528Y1508098D02*
G01X1171220Y1507858D01*
G01X1171220Y1507858D02*
G01X1170925Y1507606D01*
G01X1170925Y1507606D02*
G01X1170638Y1507339D01*
G01X1170638Y1507339D02*
G01X1170358Y1507063D01*
G01X1170358Y1507063D02*
G01X1170094Y1506780D01*
G01X1170094Y1506780D02*
G01X1169839Y1506484D01*
G01X1169839Y1506484D02*
G01X1169594Y1506177D01*
G01X1169594Y1506177D02*
G01X1169362Y1505862D01*
G01X1169362Y1505862D02*
G01X1169142Y1505539D01*
G01X1169142Y1505539D02*
G01X1168937Y1505209D01*
G01X1168937Y1505209D02*
G01X1168744Y1504870D01*
G01X1168744Y1504870D02*
G01X1168563Y1504524D01*
G01X1168563Y1504524D02*
G01X1168394Y1504169D01*
G01X1168394Y1504169D02*
G01X1168240Y1503811D01*
G01X1168240Y1503811D02*
G01X1168102Y1503445D01*
G01X1168102Y1503445D02*
G01X1167976Y1503075D01*
G01X1167976Y1503075D02*
G01X1167866Y1502701D01*
G01X1167866Y1502701D02*
G01X1167768Y1502323D01*
G01X1167768Y1502323D02*
G01X1167689Y1501941D01*
G01X1167689Y1501941D02*
G01X1167618Y1501555D01*
G01X1167618Y1501555D02*
G01X1167567Y1501169D01*
G01X1167567Y1501169D02*
G01X1167531Y1500780D01*
G01X1167531Y1500780D02*
G01X1167508Y1500390D01*
G01X1167508Y1500390D02*
G01X1167500Y1500000D01*
G01X1172500Y1508752D02*
G01X1186252Y1516252D01*
G01X1138795Y1500000D02*
G01X1138795Y1535000D01*
G01X1138795Y1500000D02*
G01X1138803Y1499606D01*
G01X1138803Y1499606D02*
G01X1138827Y1499217D01*
G01X1138827Y1499217D02*
G01X1138866Y1498823D01*
G01X1138866Y1498823D02*
G01X1138917Y1498437D01*
G01X1138917Y1498437D02*
G01X1138988Y1498047D01*
G01X1138988Y1498047D02*
G01X1139071Y1497665D01*
G01X1139071Y1497665D02*
G01X1139169Y1497287D01*
G01X1139169Y1497287D02*
G01X1139283Y1496909D01*
G01X1139283Y1496909D02*
G01X1139413Y1496539D01*
G01X1139413Y1496539D02*
G01X1139555Y1496173D01*
G01X1139555Y1496173D02*
G01X1139713Y1495815D01*
G01X1139713Y1495815D02*
G01X1139886Y1495461D01*
G01X1139886Y1495461D02*
G01X1140071Y1495114D01*
G01X1140071Y1495114D02*
G01X1140268Y1494776D01*
G01X1140268Y1494776D02*
G01X1140480Y1494445D01*
G01X1140480Y1494445D02*
G01X1140705Y1494122D01*
G01X1140705Y1494122D02*
G01X1140941Y1493811D01*
G01X1140941Y1493811D02*
G01X1141193Y1493504D01*
G01X1141193Y1493504D02*
G01X1141453Y1493213D01*
G01X1141453Y1493213D02*
G01X1141724Y1492929D01*
G01X1141724Y1492929D02*
G01X1142008Y1492657D01*
G01X1142008Y1492657D02*
G01X1142299Y1492398D01*
G01X1142299Y1492398D02*
G01X1142606Y1492146D01*
G01X1142606Y1492146D02*
G01X1142917Y1491909D01*
G01X1142917Y1491909D02*
G01X1143240Y1491685D01*
G01X1143240Y1491685D02*
G01X1143571Y1491472D01*
G01X1143571Y1491472D02*
G01X1143909Y1491276D01*
G01X1143909Y1491276D02*
G01X1144256Y1491091D01*
G01X1144256Y1491091D02*
G01X1144610Y1490917D01*
G01X1144610Y1490917D02*
G01X1144969Y1490760D01*
G01X1144969Y1490760D02*
G01X1145335Y1490618D01*
G01X1145335Y1490618D02*
G01X1145705Y1490488D01*
G01X1145705Y1490488D02*
G01X1146083Y1490374D01*
G01X1146083Y1490374D02*
G01X1146461Y1490276D01*
G01X1146461Y1490276D02*
G01X1146843Y1490193D01*
G01X1146843Y1490193D02*
G01X1147232Y1490122D01*
G01X1147232Y1490122D02*
G01X1147618Y1490071D01*
G01X1147618Y1490071D02*
G01X1148012Y1490031D01*
G01X1148012Y1490031D02*
G01X1148402Y1490008D01*
G01X1148402Y1490008D02*
G01X1148795Y1490000D01*
G01X1148795Y1490000D02*
G01X1153795Y1490000D01*
G01X1117500Y1525000D02*
G01X1105000Y1535000D01*
G01X1105000Y1535000D02*
G01X1105000Y1490000D01*
G01X1117500Y1490000D02*
G01X1092500Y1490000D01*
M02*
